<?xml version="1.0" encoding="UTF-8" standalone="no"?>
<!DOCTYPE svg PUBLIC "-//W3C//DTD SVG 1.1//EN"
 "http://www.w3.org/Graphics/SVG/1.1/DTD/svg11.dtd">
<!-- Generated by graphviz version 2.43.0 (0)
 -->
<!-- Title: src/app/seamly2d/options.h Pages: 1 -->
<svg width="4193pt" height="218pt"
 viewBox="0.00 0.00 4192.50 218.00" xmlns="http://www.w3.org/2000/svg" xmlns:xlink="http://www.w3.org/1999/xlink">
<g id="graph0" class="graph" transform="scale(1 1) rotate(0) translate(4 214)">
<title>src/app/seamly2d/options.h</title>
<polygon fill="white" stroke="transparent" points="-4,4 -4,-214 4188.5,-214 4188.5,4 -4,4"/>
<!-- Node1 -->
<g id="node1" class="node">
<title>Node1</title>
<g id="a_node1"><a xlink:title=" ">
<polygon fill="#bfbfbf" stroke="black" points="2863,-190.5 2863,-209.5 3014,-209.5 3014,-190.5 2863,-190.5"/>
<text text-anchor="middle" x="2938.5" y="-197.5" font-family="Helvetica,sans-Serif" font-size="10.00">src/app/seamly2d/options.h</text>
</a>
</g>
</g>
<!-- Node2 -->
<g id="node2" class="node">
<title>Node2</title>
<g id="a_node2"><a xlink:href="../../d7/d61/application__2d_8h.html" target="_top" xlink:title=" ">
<polygon fill="white" stroke="black" points="2118,-123.5 2118,-153.5 2245,-153.5 2245,-123.5 2118,-123.5"/>
<text text-anchor="start" x="2126" y="-141.5" font-family="Helvetica,sans-Serif" font-size="10.00">src/app/seamly2d/core</text>
<text text-anchor="middle" x="2181.5" y="-130.5" font-family="Helvetica,sans-Serif" font-size="10.00">/application_2d.h</text>
</a>
</g>
</g>
<!-- Node1&#45;&gt;Node2 -->
<g id="edge1" class="edge">
<title>Node1&#45;&gt;Node2</title>
<path fill="none" stroke="midnightblue" d="M2852.48,-192.24C2698.87,-180.16 2380.8,-155.17 2245.1,-144.5"/>
<polygon fill="midnightblue" stroke="midnightblue" points="2852.56,-195.76 2862.8,-193.05 2853.1,-188.78 2852.56,-195.76"/>
</g>
<!-- Node5 -->
<g id="node5" class="node">
<title>Node5</title>
<g id="a_node5"><a xlink:href="../../d7/dfa/calculator__dialog_8cpp.html" target="_top" xlink:title=" ">
<polygon fill="white" stroke="black" points="0,-56.5 0,-86.5 141,-86.5 141,-56.5 0,-56.5"/>
<text text-anchor="start" x="8" y="-74.5" font-family="Helvetica,sans-Serif" font-size="10.00">src/app/seamly2d/dialogs</text>
<text text-anchor="middle" x="70.5" y="-63.5" font-family="Helvetica,sans-Serif" font-size="10.00">/calculator_dialog.cpp</text>
</a>
</g>
</g>
<!-- Node1&#45;&gt;Node5 -->
<g id="edge25" class="edge">
<title>Node1&#45;&gt;Node5</title>
<path fill="none" stroke="midnightblue" d="M2852.81,-198.17C2505.06,-194.67 1198.17,-180 785.5,-154 501.83,-136.13 430.82,-127.57 149.5,-87 146.74,-86.6 143.93,-86.18 141.09,-85.73"/>
<polygon fill="midnightblue" stroke="midnightblue" points="2852.78,-201.67 2862.81,-198.27 2852.85,-194.67 2852.78,-201.67"/>
</g>
<!-- Node7 -->
<g id="node7" class="node">
<title>Node7</title>
<g id="a_node7"><a xlink:href="../../dc/d20/preferencespathpage_8cpp.html" target="_top" xlink:title=" ">
<polygon fill="white" stroke="black" points="159,-56.5 159,-86.5 364,-86.5 364,-56.5 159,-56.5"/>
<text text-anchor="start" x="167" y="-74.5" font-family="Helvetica,sans-Serif" font-size="10.00">src/app/seamly2d/dialogs</text>
<text text-anchor="middle" x="261.5" y="-63.5" font-family="Helvetica,sans-Serif" font-size="10.00">/configpages/preferencespathpage.cpp</text>
</a>
</g>
</g>
<!-- Node1&#45;&gt;Node7 -->
<g id="edge26" class="edge">
<title>Node1&#45;&gt;Node7</title>
<path fill="none" stroke="midnightblue" d="M2852.54,-197.67C2616.42,-193.78 1937.95,-180.93 1374.5,-154 928.68,-132.69 816.67,-130.82 372.5,-87 369.79,-86.73 367.05,-86.45 364.28,-86.16"/>
<polygon fill="midnightblue" stroke="midnightblue" points="2852.72,-201.18 2862.78,-197.84 2852.84,-194.18 2852.72,-201.18"/>
</g>
<!-- Node11 -->
<g id="node11" class="node">
<title>Node11</title>
<g id="a_node11"><a xlink:href="../../dd/d64/dialogaboutapp_8cpp.html" target="_top" xlink:title=" ">
<polygon fill="white" stroke="black" points="382,-56.5 382,-86.5 523,-86.5 523,-56.5 382,-56.5"/>
<text text-anchor="start" x="390" y="-74.5" font-family="Helvetica,sans-Serif" font-size="10.00">src/app/seamly2d/dialogs</text>
<text text-anchor="middle" x="452.5" y="-63.5" font-family="Helvetica,sans-Serif" font-size="10.00">/dialogaboutapp.cpp</text>
</a>
</g>
</g>
<!-- Node1&#45;&gt;Node11 -->
<g id="edge27" class="edge">
<title>Node1&#45;&gt;Node11</title>
<path fill="none" stroke="midnightblue" d="M2852.59,-194.65C2616.6,-182.74 1938.44,-148.76 1374.5,-123 1000.33,-105.91 904.76,-128.5 532.5,-87 529.41,-86.66 526.27,-86.26 523.09,-85.83"/>
<polygon fill="midnightblue" stroke="midnightblue" points="2852.66,-198.16 2862.82,-195.17 2853.01,-191.17 2852.66,-198.16"/>
</g>
<!-- Node14 -->
<g id="node14" class="node">
<title>Node14</title>
<g id="a_node14"><a xlink:href="../../d6/d89/dialoglayoutprogress_8cpp.html" target="_top" xlink:title=" ">
<polygon fill="white" stroke="black" points="3525,-56.5 3525,-86.5 3668,-86.5 3668,-56.5 3525,-56.5"/>
<text text-anchor="start" x="3533" y="-74.5" font-family="Helvetica,sans-Serif" font-size="10.00">src/app/seamly2d/dialogs</text>
<text text-anchor="middle" x="3596.5" y="-63.5" font-family="Helvetica,sans-Serif" font-size="10.00">/dialoglayoutprogress.cpp</text>
</a>
</g>
</g>
<!-- Node1&#45;&gt;Node14 -->
<g id="edge28" class="edge">
<title>Node1&#45;&gt;Node14</title>
<path fill="none" stroke="midnightblue" d="M2992.88,-188.55C3111.26,-165.79 3392.28,-111.76 3524.89,-86.27"/>
<polygon fill="midnightblue" stroke="midnightblue" points="2992.11,-185.13 2982.95,-190.45 2993.43,-192 2992.11,-185.13"/>
</g>
<!-- Node16 -->
<g id="node16" class="node">
<title>Node16</title>
<g id="a_node16"><a xlink:href="../../dd/d54/export__layout__dialog_8cpp.html" target="_top" xlink:title=" ">
<polygon fill="white" stroke="black" points="3686,-56.5 3686,-86.5 3829,-86.5 3829,-56.5 3686,-56.5"/>
<text text-anchor="start" x="3694" y="-74.5" font-family="Helvetica,sans-Serif" font-size="10.00">src/app/seamly2d/dialogs</text>
<text text-anchor="middle" x="3757.5" y="-63.5" font-family="Helvetica,sans-Serif" font-size="10.00">/export_layout_dialog.cpp</text>
</a>
</g>
</g>
<!-- Node1&#45;&gt;Node16 -->
<g id="edge33" class="edge">
<title>Node1&#45;&gt;Node16</title>
<path fill="none" stroke="midnightblue" d="M3016.56,-189.16C3084.31,-180.45 3184.99,-167.13 3272.5,-154 3452.93,-126.93 3497.73,-118.16 3677.5,-87 3680.28,-86.52 3683.12,-86.02 3685.98,-85.52"/>
<polygon fill="midnightblue" stroke="midnightblue" points="3015.87,-185.72 3006.39,-190.46 3016.76,-192.66 3015.87,-185.72"/>
</g>
<!-- Node25 -->
<g id="node25" class="node">
<title>Node25</title>
<g id="a_node25"><a xlink:href="../../d8/dd9/mainwindow_8cpp.html" target="_top" xlink:title=" ">
<polygon fill="white" stroke="black" points="3996.5,-0.5 3996.5,-19.5 4184.5,-19.5 4184.5,-0.5 3996.5,-0.5"/>
<text text-anchor="middle" x="4090.5" y="-7.5" font-family="Helvetica,sans-Serif" font-size="10.00">src/app/seamly2d/mainwindow.cpp</text>
</a>
</g>
</g>
<!-- Node1&#45;&gt;Node25 -->
<g id="edge34" class="edge">
<title>Node1&#45;&gt;Node25</title>
<path fill="none" stroke="midnightblue" d="M3024.2,-199.16C3243.18,-198.96 3819.12,-194.49 4005.5,-154 4082.84,-137.2 4126.3,-152.66 4170.5,-87 4178.19,-75.57 4177.46,-67.89 4170.5,-56 4159.8,-37.71 4138.63,-26.27 4120.75,-19.51"/>
<polygon fill="midnightblue" stroke="midnightblue" points="3024.04,-195.66 3014.04,-199.17 3024.05,-202.66 3024.04,-195.66"/>
</g>
<!-- Node26 -->
<g id="node26" class="node">
<title>Node26</title>
<g id="a_node26"><a xlink:href="../../d5/d4e/dialogpatternproperties_8h.html" target="_top" xlink:title=" ">
<polygon fill="white" stroke="black" points="3853,-123.5 3853,-153.5 3996,-153.5 3996,-123.5 3853,-123.5"/>
<text text-anchor="start" x="3861" y="-141.5" font-family="Helvetica,sans-Serif" font-size="10.00">src/app/seamly2d/dialogs</text>
<text text-anchor="middle" x="3924.5" y="-130.5" font-family="Helvetica,sans-Serif" font-size="10.00">/dialogpatternproperties.h</text>
</a>
</g>
</g>
<!-- Node1&#45;&gt;Node26 -->
<g id="edge29" class="edge">
<title>Node1&#45;&gt;Node26</title>
<path fill="none" stroke="midnightblue" d="M3024.25,-193.83C3215.77,-182.27 3675.36,-154.53 3852.86,-143.82"/>
<polygon fill="midnightblue" stroke="midnightblue" points="3024,-190.33 3014.23,-194.43 3024.43,-197.32 3024,-190.33"/>
</g>
<!-- Node3 -->
<g id="node3" class="node">
<title>Node3</title>
<g id="a_node3"><a xlink:href="../../df/d3e/application__2d_8cpp.html" target="_top" xlink:title=" ">
<polygon fill="white" stroke="black" points="2553,-56.5 2553,-86.5 2680,-86.5 2680,-56.5 2553,-56.5"/>
<text text-anchor="start" x="2561" y="-74.5" font-family="Helvetica,sans-Serif" font-size="10.00">src/app/seamly2d/core</text>
<text text-anchor="middle" x="2616.5" y="-63.5" font-family="Helvetica,sans-Serif" font-size="10.00">/application_2d.cpp</text>
</a>
</g>
</g>
<!-- Node2&#45;&gt;Node3 -->
<g id="edge2" class="edge">
<title>Node2&#45;&gt;Node3</title>
<path fill="none" stroke="midnightblue" d="M2255.15,-128.49C2328.43,-119.22 2444,-103.81 2543.5,-87 2546.56,-86.48 2549.68,-85.94 2552.84,-85.37"/>
<polygon fill="midnightblue" stroke="midnightblue" points="2254.58,-125.03 2245.1,-129.75 2255.46,-131.97 2254.58,-125.03"/>
</g>
<!-- Node4 -->
<g id="node4" class="node">
<title>Node4</title>
<g id="a_node4"><a xlink:href="../../dd/db4/abstractlayout__dialog_8cpp.html" target="_top" xlink:title=" ">
<polygon fill="white" stroke="black" points="2698.5,-56.5 2698.5,-86.5 2844.5,-86.5 2844.5,-56.5 2698.5,-56.5"/>
<text text-anchor="start" x="2706.5" y="-74.5" font-family="Helvetica,sans-Serif" font-size="10.00">src/app/seamly2d/dialogs</text>
<text text-anchor="middle" x="2771.5" y="-63.5" font-family="Helvetica,sans-Serif" font-size="10.00">/abstractlayout_dialog.cpp</text>
</a>
</g>
</g>
<!-- Node2&#45;&gt;Node4 -->
<g id="edge3" class="edge">
<title>Node2&#45;&gt;Node4</title>
<path fill="none" stroke="midnightblue" d="M2255.5,-131.85C2354.41,-123.9 2535.08,-108.01 2688.5,-87 2691.69,-86.56 2694.94,-86.09 2698.23,-85.6"/>
<polygon fill="midnightblue" stroke="midnightblue" points="2255,-128.38 2245.31,-132.66 2255.55,-135.35 2255,-128.38"/>
</g>
<!-- Node2&#45;&gt;Node5 -->
<g id="edge4" class="edge">
<title>Node2&#45;&gt;Node5</title>
<path fill="none" stroke="midnightblue" d="M2107.7,-137.22C1790.39,-135.76 540.58,-127.5 149.5,-87 146.73,-86.71 143.9,-86.38 141.06,-86.02"/>
<polygon fill="midnightblue" stroke="midnightblue" points="2107.68,-140.72 2117.7,-137.26 2107.72,-133.72 2107.68,-140.72"/>
</g>
<!-- Node6 -->
<g id="node6" class="node">
<title>Node6</title>
<g id="a_node6"><a xlink:href="../../d2/d2d/preferencesconfigurationpage_8cpp.html" target="_top" xlink:title=" ">
<polygon fill="white" stroke="black" points="2863,-56.5 2863,-86.5 3110,-86.5 3110,-56.5 2863,-56.5"/>
<text text-anchor="start" x="2871" y="-74.5" font-family="Helvetica,sans-Serif" font-size="10.00">src/app/seamly2d/dialogs</text>
<text text-anchor="middle" x="2986.5" y="-63.5" font-family="Helvetica,sans-Serif" font-size="10.00">/configpages/preferencesconfigurationpage.cpp</text>
</a>
</g>
</g>
<!-- Node2&#45;&gt;Node6 -->
<g id="edge5" class="edge">
<title>Node2&#45;&gt;Node6</title>
<path fill="none" stroke="midnightblue" d="M2255.14,-132.78C2378.85,-124.66 2636.21,-107 2853.5,-87 2856.62,-86.71 2859.79,-86.42 2862.98,-86.11"/>
<polygon fill="midnightblue" stroke="midnightblue" points="2254.78,-129.29 2245.02,-133.44 2255.23,-136.28 2254.78,-129.29"/>
</g>
<!-- Node2&#45;&gt;Node7 -->
<g id="edge6" class="edge">
<title>Node2&#45;&gt;Node7</title>
<path fill="none" stroke="midnightblue" d="M2107.74,-136.45C1812.89,-132.08 718.21,-114.33 372.5,-87 369.79,-86.79 367.04,-86.55 364.27,-86.3"/>
<polygon fill="midnightblue" stroke="midnightblue" points="2107.84,-139.95 2117.89,-136.6 2107.94,-132.95 2107.84,-139.95"/>
</g>
<!-- Node8 -->
<g id="node8" class="node">
<title>Node8</title>
<g id="a_node8"><a xlink:href="../../d2/d00/vtooloptionspropertybrowser_8cpp.html" target="_top" xlink:title=" ">
<polygon fill="white" stroke="black" points="3128.5,-56.5 3128.5,-86.5 3308.5,-86.5 3308.5,-56.5 3128.5,-56.5"/>
<text text-anchor="start" x="3136.5" y="-74.5" font-family="Helvetica,sans-Serif" font-size="10.00">src/app/seamly2d/core</text>
<text text-anchor="middle" x="3218.5" y="-63.5" font-family="Helvetica,sans-Serif" font-size="10.00">/vtooloptionspropertybrowser.cpp</text>
</a>
</g>
</g>
<!-- Node2&#45;&gt;Node8 -->
<g id="edge7" class="edge">
<title>Node2&#45;&gt;Node8</title>
<path fill="none" stroke="midnightblue" d="M2255.38,-135.78C2413.86,-131.6 2798.07,-118.8 3118.5,-87 3121.73,-86.68 3125.01,-86.33 3128.33,-85.96"/>
<polygon fill="midnightblue" stroke="midnightblue" points="2255.18,-132.29 2245.27,-136.05 2255.36,-139.28 2255.18,-132.29"/>
</g>
<!-- Node9 -->
<g id="node9" class="node">
<title>Node9</title>
<g id="a_node9"><a xlink:href="../../dd/dc2/decimalchart__dialog_8cpp.html" target="_top" xlink:title=" ">
<polygon fill="white" stroke="black" points="3327,-56.5 3327,-86.5 3468,-86.5 3468,-56.5 3327,-56.5"/>
<text text-anchor="start" x="3335" y="-74.5" font-family="Helvetica,sans-Serif" font-size="10.00">src/app/seamly2d/dialogs</text>
<text text-anchor="middle" x="3397.5" y="-63.5" font-family="Helvetica,sans-Serif" font-size="10.00">/decimalchart_dialog.cpp</text>
</a>
</g>
</g>
<!-- Node2&#45;&gt;Node9 -->
<g id="edge8" class="edge">
<title>Node2&#45;&gt;Node9</title>
<path fill="none" stroke="midnightblue" d="M2255.39,-137.66C2436.85,-137.29 2918.65,-131.8 3317.5,-87 3320.59,-86.65 3323.73,-86.26 3326.91,-85.83"/>
<polygon fill="midnightblue" stroke="midnightblue" points="2255.16,-134.16 2245.16,-137.67 2255.17,-141.16 2255.16,-134.16"/>
</g>
<!-- Node10 -->
<g id="node10" class="node">
<title>Node10</title>
<g id="a_node10"><a xlink:href="../../dc/d63/preferencespatternpage_8cpp.html" target="_top" xlink:title=" ">
<polygon fill="white" stroke="black" points="541.5,-56.5 541.5,-86.5 759.5,-86.5 759.5,-56.5 541.5,-56.5"/>
<text text-anchor="start" x="549.5" y="-74.5" font-family="Helvetica,sans-Serif" font-size="10.00">src/app/seamly2d/dialogs</text>
<text text-anchor="middle" x="650.5" y="-63.5" font-family="Helvetica,sans-Serif" font-size="10.00">/configpages/preferencespatternpage.cpp</text>
</a>
</g>
</g>
<!-- Node2&#45;&gt;Node10 -->
<g id="edge9" class="edge">
<title>Node2&#45;&gt;Node10</title>
<path fill="none" stroke="midnightblue" d="M2107.66,-133.72C2045.28,-130.6 1953.56,-126.19 1873.5,-123 1382.52,-103.45 1258.4,-125 768.5,-87 765.62,-86.78 762.7,-86.53 759.76,-86.28"/>
<polygon fill="midnightblue" stroke="midnightblue" points="2107.64,-137.23 2117.8,-134.23 2107.99,-130.24 2107.64,-137.23"/>
</g>
<!-- Node2&#45;&gt;Node11 -->
<g id="edge10" class="edge">
<title>Node2&#45;&gt;Node11</title>
<path fill="none" stroke="midnightblue" d="M2107.67,-133.6C2045.29,-130.41 1953.56,-125.96 1873.5,-123 1277.69,-100.98 1125.55,-148.34 532.5,-87 529.41,-86.68 526.26,-86.31 523.09,-85.9"/>
<polygon fill="midnightblue" stroke="midnightblue" points="2107.64,-137.11 2117.81,-134.13 2108,-130.12 2107.64,-137.11"/>
</g>
<!-- Node12 -->
<g id="node12" class="node">
<title>Node12</title>
<g id="a_node12"><a xlink:href="../../d9/d70/preferencesgraphicsviewpage_8cpp.html" target="_top" xlink:title=" ">
<polygon fill="white" stroke="black" points="777.5,-56.5 777.5,-86.5 1025.5,-86.5 1025.5,-56.5 777.5,-56.5"/>
<text text-anchor="start" x="785.5" y="-74.5" font-family="Helvetica,sans-Serif" font-size="10.00">src/app/seamly2d/dialogs</text>
<text text-anchor="middle" x="901.5" y="-63.5" font-family="Helvetica,sans-Serif" font-size="10.00">/configpages/preferencesgraphicsviewpage.cpp</text>
</a>
</g>
</g>
<!-- Node2&#45;&gt;Node12 -->
<g id="edge11" class="edge">
<title>Node2&#45;&gt;Node12</title>
<path fill="none" stroke="midnightblue" d="M2107.66,-133.94C2045.27,-130.95 1953.54,-126.6 1873.5,-123 1500.65,-106.22 1406.66,-115.24 1034.5,-87 1031.6,-86.78 1028.68,-86.55 1025.72,-86.3"/>
<polygon fill="midnightblue" stroke="midnightblue" points="2107.64,-137.44 2117.8,-134.42 2107.98,-130.45 2107.64,-137.44"/>
</g>
<!-- Node13 -->
<g id="node13" class="node">
<title>Node13</title>
<g id="a_node13"><a xlink:href="../../d5/d18/dialogpatternproperties_8cpp.html" target="_top" xlink:title=" ">
<polygon fill="white" stroke="black" points="3847,-56.5 3847,-86.5 4002,-86.5 4002,-56.5 3847,-56.5"/>
<text text-anchor="start" x="3855" y="-74.5" font-family="Helvetica,sans-Serif" font-size="10.00">src/app/seamly2d/dialogs</text>
<text text-anchor="middle" x="3924.5" y="-63.5" font-family="Helvetica,sans-Serif" font-size="10.00">/dialogpatternproperties.cpp</text>
</a>
</g>
</g>
<!-- Node2&#45;&gt;Node13 -->
<g id="edge12" class="edge">
<title>Node2&#45;&gt;Node13</title>
<path fill="none" stroke="midnightblue" d="M2255.05,-136.6C2533.7,-132.96 3524.65,-118.09 3838.5,-87 3841.21,-86.73 3843.97,-86.43 3846.75,-86.1"/>
<polygon fill="midnightblue" stroke="midnightblue" points="2255,-133.1 2245.04,-136.73 2255.09,-140.1 2255,-133.1"/>
</g>
<!-- Node2&#45;&gt;Node14 -->
<g id="edge13" class="edge">
<title>Node2&#45;&gt;Node14</title>
<path fill="none" stroke="midnightblue" d="M2255.52,-138.03C2457.37,-138.75 3034.15,-136 3510.5,-87 3515.17,-86.52 3519.97,-85.94 3524.8,-85.3"/>
<polygon fill="midnightblue" stroke="midnightblue" points="2255.35,-134.53 2245.33,-137.99 2255.32,-141.53 2255.35,-134.53"/>
</g>
<!-- Node15 -->
<g id="node15" class="node">
<title>Node15</title>
<g id="a_node15"><a xlink:href="../../d5/dc5/dialogpreferences_8cpp.html" target="_top" xlink:title=" ">
<polygon fill="white" stroke="black" points="1044,-56.5 1044,-86.5 1185,-86.5 1185,-56.5 1044,-56.5"/>
<text text-anchor="start" x="1052" y="-74.5" font-family="Helvetica,sans-Serif" font-size="10.00">src/app/seamly2d/dialogs</text>
<text text-anchor="middle" x="1114.5" y="-63.5" font-family="Helvetica,sans-Serif" font-size="10.00">/dialogpreferences.cpp</text>
</a>
</g>
</g>
<!-- Node2&#45;&gt;Node15 -->
<g id="edge14" class="edge">
<title>Node2&#45;&gt;Node15</title>
<path fill="none" stroke="midnightblue" d="M2107.62,-133.99C1885.91,-123.41 1238.68,-92.28 1193.5,-87 1190.73,-86.68 1187.91,-86.31 1185.07,-85.92"/>
<polygon fill="midnightblue" stroke="midnightblue" points="2107.7,-137.5 2117.86,-134.48 2108.03,-130.5 2107.7,-137.5"/>
</g>
<!-- Node2&#45;&gt;Node16 -->
<g id="edge15" class="edge">
<title>Node2&#45;&gt;Node16</title>
<path fill="none" stroke="midnightblue" d="M2255.2,-136.43C2516.36,-132.43 3397.01,-116.99 3677.5,-87 3680.17,-86.71 3682.88,-86.39 3685.61,-86.04"/>
<polygon fill="midnightblue" stroke="midnightblue" points="2255.01,-132.94 2245.07,-136.59 2255.12,-139.94 2255.01,-132.94"/>
</g>
<!-- Node17 -->
<g id="node17" class="node">
<title>Node17</title>
<g id="a_node17"><a xlink:href="../../db/d5c/groups__widget_8cpp.html" target="_top" xlink:title=" ">
<polygon fill="white" stroke="black" points="1203,-56.5 1203,-86.5 1344,-86.5 1344,-56.5 1203,-56.5"/>
<text text-anchor="start" x="1211" y="-74.5" font-family="Helvetica,sans-Serif" font-size="10.00">src/app/seamly2d/dialogs</text>
<text text-anchor="middle" x="1273.5" y="-63.5" font-family="Helvetica,sans-Serif" font-size="10.00">/groups_widget.cpp</text>
</a>
</g>
</g>
<!-- Node2&#45;&gt;Node17 -->
<g id="edge16" class="edge">
<title>Node2&#45;&gt;Node17</title>
<path fill="none" stroke="midnightblue" d="M2107.87,-134.16C1933.22,-126.05 1497.66,-104.68 1352.5,-87 1349.73,-86.66 1346.91,-86.29 1344.07,-85.89"/>
<polygon fill="midnightblue" stroke="midnightblue" points="2107.84,-137.66 2117.99,-134.63 2108.16,-130.67 2107.84,-137.66"/>
</g>
<!-- Node18 -->
<g id="node18" class="node">
<title>Node18</title>
<g id="a_node18"><a xlink:href="../../d0/dfa/layoutsettings__dialog_8cpp.html" target="_top" xlink:title=" ">
<polygon fill="white" stroke="black" points="1362,-56.5 1362,-86.5 1507,-86.5 1507,-56.5 1362,-56.5"/>
<text text-anchor="start" x="1370" y="-74.5" font-family="Helvetica,sans-Serif" font-size="10.00">src/app/seamly2d/dialogs</text>
<text text-anchor="middle" x="1434.5" y="-63.5" font-family="Helvetica,sans-Serif" font-size="10.00">/layoutsettings_dialog.cpp</text>
</a>
</g>
</g>
<!-- Node2&#45;&gt;Node18 -->
<g id="edge17" class="edge">
<title>Node2&#45;&gt;Node18</title>
<path fill="none" stroke="midnightblue" d="M2107.86,-134.36C1984.81,-128.57 1729.76,-114.23 1515.5,-87 1512.81,-86.66 1510.07,-86.29 1507.3,-85.89"/>
<polygon fill="midnightblue" stroke="midnightblue" points="2107.77,-137.86 2117.92,-134.83 2108.1,-130.87 2107.77,-137.86"/>
</g>
<!-- Node19 -->
<g id="node19" class="node">
<title>Node19</title>
<g id="a_node19"><a xlink:href="../../dd/d84/shortcuts__dialog_8cpp.html" target="_top" xlink:title=" ">
<polygon fill="white" stroke="black" points="1525,-56.5 1525,-86.5 1666,-86.5 1666,-56.5 1525,-56.5"/>
<text text-anchor="start" x="1533" y="-74.5" font-family="Helvetica,sans-Serif" font-size="10.00">src/app/seamly2d/dialogs</text>
<text text-anchor="middle" x="1595.5" y="-63.5" font-family="Helvetica,sans-Serif" font-size="10.00">/shortcuts_dialog.cpp</text>
</a>
</g>
</g>
<!-- Node2&#45;&gt;Node19 -->
<g id="edge18" class="edge">
<title>Node2&#45;&gt;Node19</title>
<path fill="none" stroke="midnightblue" d="M2107.48,-132.05C2008.53,-124.32 1827.82,-108.67 1674.5,-87 1671.74,-86.61 1668.93,-86.19 1666.09,-85.75"/>
<polygon fill="midnightblue" stroke="midnightblue" points="2107.43,-135.55 2117.67,-132.84 2107.97,-128.57 2107.43,-135.55"/>
</g>
<!-- Node20 -->
<g id="node20" class="node">
<title>Node20</title>
<g id="a_node20"><a xlink:href="../../d2/df4/show__info__dialog_8cpp.html" target="_top" xlink:title=" ">
<polygon fill="white" stroke="black" points="1684,-56.5 1684,-86.5 1825,-86.5 1825,-56.5 1684,-56.5"/>
<text text-anchor="start" x="1692" y="-74.5" font-family="Helvetica,sans-Serif" font-size="10.00">src/app/seamly2d/dialogs</text>
<text text-anchor="middle" x="1754.5" y="-63.5" font-family="Helvetica,sans-Serif" font-size="10.00">/show_info_dialog.cpp</text>
</a>
</g>
</g>
<!-- Node2&#45;&gt;Node20 -->
<g id="edge19" class="edge">
<title>Node2&#45;&gt;Node20</title>
<path fill="none" stroke="midnightblue" d="M2107.77,-127.62C2037.25,-117.97 1927.95,-102.52 1833.5,-87 1830.75,-86.55 1827.94,-86.08 1825.11,-85.6"/>
<polygon fill="midnightblue" stroke="midnightblue" points="2107.51,-131.11 2117.89,-129 2108.45,-124.18 2107.51,-131.11"/>
</g>
<!-- Node21 -->
<g id="node21" class="node">
<title>Node21</title>
<g id="a_node21"><a xlink:href="../../dc/d14/app_2seamly2d_2main_8cpp.html" target="_top" xlink:title=" ">
<polygon fill="white" stroke="black" points="1843,-62 1843,-81 1994,-81 1994,-62 1843,-62"/>
<text text-anchor="middle" x="1918.5" y="-69" font-family="Helvetica,sans-Serif" font-size="10.00">src/app/seamly2d/main.cpp</text>
</a>
</g>
</g>
<!-- Node2&#45;&gt;Node21 -->
<g id="edge20" class="edge">
<title>Node2&#45;&gt;Node21</title>
<path fill="none" stroke="midnightblue" d="M2115.02,-121.07C2063.44,-108.32 1994.04,-91.17 1953.01,-81.03"/>
<polygon fill="midnightblue" stroke="midnightblue" points="2114.21,-124.47 2124.76,-123.48 2115.89,-117.68 2114.21,-124.47"/>
</g>
<!-- Node22 -->
<g id="node22" class="node">
<title>Node22</title>
<g id="a_node22"><a xlink:href="../../df/d69/welcome__dialog_8cpp.html" target="_top" xlink:title=" ">
<polygon fill="white" stroke="black" points="2012,-56.5 2012,-86.5 2153,-86.5 2153,-56.5 2012,-56.5"/>
<text text-anchor="start" x="2020" y="-74.5" font-family="Helvetica,sans-Serif" font-size="10.00">src/app/seamly2d/dialogs</text>
<text text-anchor="middle" x="2082.5" y="-63.5" font-family="Helvetica,sans-Serif" font-size="10.00">/welcome_dialog.cpp</text>
</a>
</g>
</g>
<!-- Node2&#45;&gt;Node22 -->
<g id="edge21" class="edge">
<title>Node2&#45;&gt;Node22</title>
<path fill="none" stroke="midnightblue" d="M2151.39,-117.73C2136.08,-107.68 2117.81,-95.68 2103.94,-86.58"/>
<polygon fill="midnightblue" stroke="midnightblue" points="2149.74,-120.83 2160.02,-123.4 2153.58,-114.98 2149.74,-120.83"/>
</g>
<!-- Node23 -->
<g id="node23" class="node">
<title>Node23</title>
<g id="a_node23"><a xlink:href="../../d8/de8/mainwindowsnogui_8cpp.html" target="_top" xlink:title=" ">
<polygon fill="white" stroke="black" points="2171,-62 2171,-81 2392,-81 2392,-62 2171,-62"/>
<text text-anchor="middle" x="2281.5" y="-69" font-family="Helvetica,sans-Serif" font-size="10.00">src/app/seamly2d/mainwindowsnogui.cpp</text>
</a>
</g>
</g>
<!-- Node2&#45;&gt;Node23 -->
<g id="edge22" class="edge">
<title>Node2&#45;&gt;Node23</title>
<path fill="none" stroke="midnightblue" d="M2211.8,-117.81C2230.71,-105.51 2254.11,-90.3 2268.41,-81.01"/>
<polygon fill="midnightblue" stroke="midnightblue" points="2209.68,-115.01 2203.2,-123.4 2213.49,-120.88 2209.68,-115.01"/>
</g>
<!-- Node24 -->
<g id="node24" class="node">
<title>Node24</title>
<g id="a_node24"><a xlink:href="../../d3/d49/vpattern_8cpp.html" target="_top" xlink:title=" ">
<polygon fill="white" stroke="black" points="2410,-56.5 2410,-86.5 2535,-86.5 2535,-56.5 2410,-56.5"/>
<text text-anchor="start" x="2418" y="-74.5" font-family="Helvetica,sans-Serif" font-size="10.00">src/app/seamly2d/xml</text>
<text text-anchor="middle" x="2472.5" y="-63.5" font-family="Helvetica,sans-Serif" font-size="10.00">/vpattern.cpp</text>
</a>
</g>
</g>
<!-- Node2&#45;&gt;Node24 -->
<g id="edge23" class="edge">
<title>Node2&#45;&gt;Node24</title>
<path fill="none" stroke="midnightblue" d="M2254.27,-121.24C2302.14,-110.55 2364.15,-96.7 2409.83,-86.5"/>
<polygon fill="midnightblue" stroke="midnightblue" points="2253.28,-117.88 2244.28,-123.48 2254.81,-124.71 2253.28,-117.88"/>
</g>
<!-- Node2&#45;&gt;Node25 -->
<g id="edge24" class="edge">
<title>Node2&#45;&gt;Node25</title>
<path fill="none" stroke="midnightblue" d="M2255.5,-137.3C2513.4,-136.22 3363.11,-129.44 3477.5,-87 3498.26,-79.3 3495.9,-64.11 3516.5,-56 3601.32,-22.62 3856.6,-13.96 3996.42,-11.74"/>
<polygon fill="midnightblue" stroke="midnightblue" points="2255.11,-133.8 2245.12,-137.34 2255.14,-140.8 2255.11,-133.8"/>
</g>
<!-- Node26&#45;&gt;Node13 -->
<g id="edge30" class="edge">
<title>Node26&#45;&gt;Node13</title>
<path fill="none" stroke="midnightblue" d="M3924.5,-113.11C3924.5,-104.15 3924.5,-94.32 3924.5,-86.58"/>
<polygon fill="midnightblue" stroke="midnightblue" points="3921,-113.4 3924.5,-123.4 3928,-113.4 3921,-113.4"/>
</g>
<!-- Node27 -->
<g id="node27" class="node">
<title>Node27</title>
<g id="a_node27"><a xlink:href="../../d6/d64/dialogs_8h.html" target="_top" xlink:title=" ">
<polygon fill="white" stroke="black" points="4020,-56.5 4020,-86.5 4161,-86.5 4161,-56.5 4020,-56.5"/>
<text text-anchor="start" x="4028" y="-74.5" font-family="Helvetica,sans-Serif" font-size="10.00">src/app/seamly2d/dialogs</text>
<text text-anchor="middle" x="4090.5" y="-63.5" font-family="Helvetica,sans-Serif" font-size="10.00">/dialogs.h</text>
</a>
</g>
</g>
<!-- Node26&#45;&gt;Node27 -->
<g id="edge31" class="edge">
<title>Node26&#45;&gt;Node27</title>
<path fill="none" stroke="midnightblue" d="M3970.01,-119.68C3996.63,-109.26 4029.77,-96.28 4054.55,-86.58"/>
<polygon fill="midnightblue" stroke="midnightblue" points="3968.55,-116.49 3960.52,-123.4 3971.11,-123.01 3968.55,-116.49"/>
</g>
<!-- Node27&#45;&gt;Node25 -->
<g id="edge32" class="edge">
<title>Node27&#45;&gt;Node25</title>
<path fill="none" stroke="midnightblue" d="M4090.5,-46.29C4090.5,-36.86 4090.5,-26.65 4090.5,-19.66"/>
<polygon fill="midnightblue" stroke="midnightblue" points="4087,-46.4 4090.5,-56.4 4094,-46.4 4087,-46.4"/>
</g>
</g>
</svg>
