<?xml version="1.0" encoding="UTF-8" standalone="no"?>
<!DOCTYPE svg PUBLIC "-//W3C//DTD SVG 1.1//EN"
 "http://www.w3.org/Graphics/SVG/1.1/DTD/svg11.dtd">
<!-- Generated by graphviz version 2.43.0 (0)
 -->
<!-- Title: src/app/seamly2d/dialogs/layoutsettings_dialog.h Pages: 1 -->
<svg width="4178pt" height="240pt"
 viewBox="0.00 0.00 4178.00 240.00" xmlns="http://www.w3.org/2000/svg" xmlns:xlink="http://www.w3.org/1999/xlink">
<g id="graph0" class="graph" transform="scale(1 1) rotate(0) translate(4 236)">
<title>src/app/seamly2d/dialogs/layoutsettings_dialog.h</title>
<polygon fill="white" stroke="transparent" points="-4,4 -4,-236 4174,-236 4174,4 -4,4"/>
<!-- Node1 -->
<g id="node1" class="node">
<title>Node1</title>
<g id="a_node1"><a xlink:title=" ">
<polygon fill="#bfbfbf" stroke="black" points="2657,-201.5 2657,-231.5 2798,-231.5 2798,-201.5 2657,-201.5"/>
<text text-anchor="start" x="2665" y="-219.5" font-family="Helvetica,sans-Serif" font-size="10.00">src/app/seamly2d/dialogs</text>
<text text-anchor="middle" x="2727.5" y="-208.5" font-family="Helvetica,sans-Serif" font-size="10.00">/layoutsettings_dialog.h</text>
</a>
</g>
</g>
<!-- Node2 -->
<g id="node2" class="node">
<title>Node2</title>
<g id="a_node2"><a xlink:href="../../dd/d57/vcmdexport_8h.html" target="_top" xlink:title=" ">
<polygon fill="white" stroke="black" points="2500,-134.5 2500,-164.5 2627,-164.5 2627,-134.5 2500,-134.5"/>
<text text-anchor="start" x="2508" y="-152.5" font-family="Helvetica,sans-Serif" font-size="10.00">src/app/seamly2d/core</text>
<text text-anchor="middle" x="2563.5" y="-141.5" font-family="Helvetica,sans-Serif" font-size="10.00">/vcmdexport.h</text>
</a>
</g>
</g>
<!-- Node1&#45;&gt;Node2 -->
<g id="edge1" class="edge">
<title>Node1&#45;&gt;Node2</title>
<path fill="none" stroke="midnightblue" d="M2682.54,-197.68C2656.24,-187.26 2623.5,-174.28 2599.02,-164.58"/>
<polygon fill="midnightblue" stroke="midnightblue" points="2681.33,-200.97 2691.91,-201.4 2683.91,-194.46 2681.33,-200.97"/>
</g>
<!-- Node19 -->
<g id="node19" class="node">
<title>Node19</title>
<g id="a_node19"><a xlink:href="../../d0/dfa/layoutsettings__dialog_8cpp.html" target="_top" xlink:title=" ">
<polygon fill="white" stroke="black" points="3786,-0.5 3786,-30.5 3931,-30.5 3931,-0.5 3786,-0.5"/>
<text text-anchor="start" x="3794" y="-18.5" font-family="Helvetica,sans-Serif" font-size="10.00">src/app/seamly2d/dialogs</text>
<text text-anchor="middle" x="3858.5" y="-7.5" font-family="Helvetica,sans-Serif" font-size="10.00">/layoutsettings_dialog.cpp</text>
</a>
</g>
</g>
<!-- Node1&#45;&gt;Node19 -->
<g id="edge32" class="edge">
<title>Node1&#45;&gt;Node19</title>
<path fill="none" stroke="midnightblue" d="M2808.14,-201.42C2984.15,-170.67 3415.94,-95.13 3777.5,-31 3780.17,-30.53 3782.89,-30.04 3785.64,-29.55"/>
<polygon fill="midnightblue" stroke="midnightblue" points="2807.43,-197.99 2798.18,-203.16 2808.63,-204.89 2807.43,-197.99"/>
</g>
<!-- Node24 -->
<g id="node24" class="node">
<title>Node24</title>
<g id="a_node24"><a xlink:href="../../d8/de8/mainwindowsnogui_8cpp.html" target="_top" xlink:title=" ">
<polygon fill="white" stroke="black" points="3949,-6 3949,-25 4170,-25 4170,-6 3949,-6"/>
<text text-anchor="middle" x="4059.5" y="-13" font-family="Helvetica,sans-Serif" font-size="10.00">src/app/seamly2d/mainwindowsnogui.cpp</text>
</a>
</g>
</g>
<!-- Node1&#45;&gt;Node24 -->
<g id="edge33" class="edge">
<title>Node1&#45;&gt;Node24</title>
<path fill="none" stroke="midnightblue" d="M2808.17,-205.83C2887.68,-196.13 3012.59,-180.46 3120.5,-165 3460.53,-116.28 3868.31,-48.63 4008.94,-25.03"/>
<polygon fill="midnightblue" stroke="midnightblue" points="2807.73,-202.36 2798.22,-207.04 2808.57,-209.31 2807.73,-202.36"/>
</g>
<!-- Node27 -->
<g id="node27" class="node">
<title>Node27</title>
<g id="a_node27"><a xlink:href="../../df/d9b/vcmdexport_8cpp.html" target="_top" xlink:title=" ">
<polygon fill="white" stroke="black" points="2559,-67.5 2559,-97.5 2686,-97.5 2686,-67.5 2559,-67.5"/>
<text text-anchor="start" x="2567" y="-85.5" font-family="Helvetica,sans-Serif" font-size="10.00">src/app/seamly2d/core</text>
<text text-anchor="middle" x="2622.5" y="-74.5" font-family="Helvetica,sans-Serif" font-size="10.00">/vcmdexport.cpp</text>
</a>
</g>
</g>
<!-- Node1&#45;&gt;Node27 -->
<g id="edge31" class="edge">
<title>Node1&#45;&gt;Node27</title>
<path fill="none" stroke="midnightblue" d="M2710.03,-193.54C2688.33,-166.25 2651.92,-120.48 2633.66,-97.52"/>
<polygon fill="midnightblue" stroke="midnightblue" points="2707.3,-195.73 2716.26,-201.37 2712.78,-191.37 2707.3,-195.73"/>
</g>
<!-- Node3 -->
<g id="node3" class="node">
<title>Node3</title>
<g id="a_node3"><a xlink:href="../../d7/d61/application__2d_8h.html" target="_top" xlink:title=" ">
<polygon fill="white" stroke="black" points="1940,-67.5 1940,-97.5 2067,-97.5 2067,-67.5 1940,-67.5"/>
<text text-anchor="start" x="1948" y="-85.5" font-family="Helvetica,sans-Serif" font-size="10.00">src/app/seamly2d/core</text>
<text text-anchor="middle" x="2003.5" y="-74.5" font-family="Helvetica,sans-Serif" font-size="10.00">/application_2d.h</text>
</a>
</g>
</g>
<!-- Node2&#45;&gt;Node3 -->
<g id="edge2" class="edge">
<title>Node2&#45;&gt;Node3</title>
<path fill="none" stroke="midnightblue" d="M2489.72,-139.94C2378.97,-127.08 2171.62,-103.01 2067.13,-90.89"/>
<polygon fill="midnightblue" stroke="midnightblue" points="2489.47,-143.43 2499.81,-141.11 2490.28,-136.48 2489.47,-143.43"/>
</g>
<!-- Node2&#45;&gt;Node27 -->
<g id="edge26" class="edge">
<title>Node2&#45;&gt;Node27</title>
<path fill="none" stroke="midnightblue" d="M2583.25,-126.74C2591.98,-117.12 2602,-106.09 2609.72,-97.58"/>
<polygon fill="midnightblue" stroke="midnightblue" points="2580.43,-124.64 2576.3,-134.4 2585.61,-129.34 2580.43,-124.64"/>
</g>
<!-- Node28 -->
<g id="node28" class="node">
<title>Node28</title>
<g id="a_node28"><a xlink:href="../../d9/d53/mainwindow_8h.html" target="_top" xlink:title=" ">
<polygon fill="white" stroke="black" points="226.5,-73 226.5,-92 402.5,-92 402.5,-73 226.5,-73"/>
<text text-anchor="middle" x="314.5" y="-80" font-family="Helvetica,sans-Serif" font-size="10.00">src/app/seamly2d/mainwindow.h</text>
</a>
</g>
</g>
<!-- Node2&#45;&gt;Node28 -->
<g id="edge27" class="edge">
<title>Node2&#45;&gt;Node28</title>
<path fill="none" stroke="midnightblue" d="M2489.71,-146.37C2153.51,-136.65 767.55,-96.59 402.8,-86.05"/>
<polygon fill="midnightblue" stroke="midnightblue" points="2489.72,-149.87 2499.81,-146.66 2489.92,-142.87 2489.72,-149.87"/>
</g>
<!-- Node4 -->
<g id="node4" class="node">
<title>Node4</title>
<g id="a_node4"><a xlink:href="../../dd/db4/abstractlayout__dialog_8cpp.html" target="_top" xlink:title=" ">
<polygon fill="white" stroke="black" points="1473.5,-0.5 1473.5,-30.5 1619.5,-30.5 1619.5,-0.5 1473.5,-0.5"/>
<text text-anchor="start" x="1481.5" y="-18.5" font-family="Helvetica,sans-Serif" font-size="10.00">src/app/seamly2d/dialogs</text>
<text text-anchor="middle" x="1546.5" y="-7.5" font-family="Helvetica,sans-Serif" font-size="10.00">/abstractlayout_dialog.cpp</text>
</a>
</g>
</g>
<!-- Node3&#45;&gt;Node4 -->
<g id="edge3" class="edge">
<title>Node3&#45;&gt;Node4</title>
<path fill="none" stroke="midnightblue" d="M1929.3,-72.42C1853.56,-62.94 1732.65,-47.21 1628.5,-31 1625.64,-30.56 1622.73,-30.09 1619.79,-29.61"/>
<polygon fill="midnightblue" stroke="midnightblue" points="1929.33,-75.95 1939.69,-73.72 1930.2,-69.01 1929.33,-75.95"/>
</g>
<!-- Node5 -->
<g id="node5" class="node">
<title>Node5</title>
<g id="a_node5"><a xlink:href="../../d7/dfa/calculator__dialog_8cpp.html" target="_top" xlink:title=" ">
<polygon fill="white" stroke="black" points="1638,-0.5 1638,-30.5 1779,-30.5 1779,-0.5 1638,-0.5"/>
<text text-anchor="start" x="1646" y="-18.5" font-family="Helvetica,sans-Serif" font-size="10.00">src/app/seamly2d/dialogs</text>
<text text-anchor="middle" x="1708.5" y="-7.5" font-family="Helvetica,sans-Serif" font-size="10.00">/calculator_dialog.cpp</text>
</a>
</g>
</g>
<!-- Node3&#45;&gt;Node5 -->
<g id="edge4" class="edge">
<title>Node3&#45;&gt;Node5</title>
<path fill="none" stroke="midnightblue" d="M1930.05,-65.32C1881.56,-54.63 1818.67,-40.77 1772.29,-30.55"/>
<polygon fill="midnightblue" stroke="midnightblue" points="1929.33,-68.74 1939.85,-67.48 1930.84,-61.91 1929.33,-68.74"/>
</g>
<!-- Node6 -->
<g id="node6" class="node">
<title>Node6</title>
<g id="a_node6"><a xlink:href="../../df/d3e/application__2d_8cpp.html" target="_top" xlink:title=" ">
<polygon fill="white" stroke="black" points="0,-0.5 0,-30.5 127,-30.5 127,-0.5 0,-0.5"/>
<text text-anchor="start" x="8" y="-18.5" font-family="Helvetica,sans-Serif" font-size="10.00">src/app/seamly2d/core</text>
<text text-anchor="middle" x="63.5" y="-7.5" font-family="Helvetica,sans-Serif" font-size="10.00">/application_2d.cpp</text>
</a>
</g>
</g>
<!-- Node3&#45;&gt;Node6 -->
<g id="edge5" class="edge">
<title>Node3&#45;&gt;Node6</title>
<path fill="none" stroke="midnightblue" d="M1929.3,-81.2C1627.62,-79.7 492.11,-71.43 135.5,-31 132.71,-30.68 129.87,-30.32 127.01,-29.91"/>
<polygon fill="midnightblue" stroke="midnightblue" points="1929.66,-84.7 1939.68,-81.25 1929.7,-77.7 1929.66,-84.7"/>
</g>
<!-- Node7 -->
<g id="node7" class="node">
<title>Node7</title>
<g id="a_node7"><a xlink:href="../../d2/d00/vtooloptionspropertybrowser_8cpp.html" target="_top" xlink:title=" ">
<polygon fill="white" stroke="black" points="1797.5,-0.5 1797.5,-30.5 1977.5,-30.5 1977.5,-0.5 1797.5,-0.5"/>
<text text-anchor="start" x="1805.5" y="-18.5" font-family="Helvetica,sans-Serif" font-size="10.00">src/app/seamly2d/core</text>
<text text-anchor="middle" x="1887.5" y="-7.5" font-family="Helvetica,sans-Serif" font-size="10.00">/vtooloptionspropertybrowser.cpp</text>
</a>
</g>
</g>
<!-- Node3&#45;&gt;Node7 -->
<g id="edge6" class="edge">
<title>Node3&#45;&gt;Node7</title>
<path fill="none" stroke="midnightblue" d="M1969.23,-62.3C1951.08,-52.12 1929.18,-39.85 1912.62,-30.58"/>
<polygon fill="midnightblue" stroke="midnightblue" points="1967.9,-65.56 1978.33,-67.4 1971.32,-59.45 1967.9,-65.56"/>
</g>
<!-- Node8 -->
<g id="node8" class="node">
<title>Node8</title>
<g id="a_node8"><a xlink:href="../../d9/d70/preferencesgraphicsviewpage_8cpp.html" target="_top" xlink:title=" ">
<polygon fill="white" stroke="black" points="1995.5,-0.5 1995.5,-30.5 2243.5,-30.5 2243.5,-0.5 1995.5,-0.5"/>
<text text-anchor="start" x="2003.5" y="-18.5" font-family="Helvetica,sans-Serif" font-size="10.00">src/app/seamly2d/dialogs</text>
<text text-anchor="middle" x="2119.5" y="-7.5" font-family="Helvetica,sans-Serif" font-size="10.00">/configpages/preferencesgraphicsviewpage.cpp</text>
</a>
</g>
</g>
<!-- Node3&#45;&gt;Node8 -->
<g id="edge7" class="edge">
<title>Node3&#45;&gt;Node8</title>
<path fill="none" stroke="midnightblue" d="M2037.77,-62.3C2055.92,-52.12 2077.82,-39.85 2094.38,-30.58"/>
<polygon fill="midnightblue" stroke="midnightblue" points="2035.68,-59.45 2028.67,-67.4 2039.1,-65.56 2035.68,-59.45"/>
</g>
<!-- Node9 -->
<g id="node9" class="node">
<title>Node9</title>
<g id="a_node9"><a xlink:href="../../d2/d2d/preferencesconfigurationpage_8cpp.html" target="_top" xlink:title=" ">
<polygon fill="white" stroke="black" points="2262,-0.5 2262,-30.5 2509,-30.5 2509,-0.5 2262,-0.5"/>
<text text-anchor="start" x="2270" y="-18.5" font-family="Helvetica,sans-Serif" font-size="10.00">src/app/seamly2d/dialogs</text>
<text text-anchor="middle" x="2385.5" y="-7.5" font-family="Helvetica,sans-Serif" font-size="10.00">/configpages/preferencesconfigurationpage.cpp</text>
</a>
</g>
</g>
<!-- Node3&#45;&gt;Node9 -->
<g id="edge8" class="edge">
<title>Node3&#45;&gt;Node9</title>
<path fill="none" stroke="midnightblue" d="M2077.14,-68.97C2141.86,-57.96 2235.95,-41.95 2303.15,-30.51"/>
<polygon fill="midnightblue" stroke="midnightblue" points="2076.28,-65.57 2067.01,-70.69 2077.45,-72.47 2076.28,-65.57"/>
</g>
<!-- Node10 -->
<g id="node10" class="node">
<title>Node10</title>
<g id="a_node10"><a xlink:href="../../dc/d20/preferencespathpage_8cpp.html" target="_top" xlink:title=" ">
<polygon fill="white" stroke="black" points="2527,-0.5 2527,-30.5 2732,-30.5 2732,-0.5 2527,-0.5"/>
<text text-anchor="start" x="2535" y="-18.5" font-family="Helvetica,sans-Serif" font-size="10.00">src/app/seamly2d/dialogs</text>
<text text-anchor="middle" x="2629.5" y="-7.5" font-family="Helvetica,sans-Serif" font-size="10.00">/configpages/preferencespathpage.cpp</text>
</a>
</g>
</g>
<!-- Node3&#45;&gt;Node10 -->
<g id="edge9" class="edge">
<title>Node3&#45;&gt;Node10</title>
<path fill="none" stroke="midnightblue" d="M2077.26,-74.97C2177.15,-65.97 2360.95,-48.82 2517.5,-31 2520.62,-30.65 2523.78,-30.28 2526.98,-29.9"/>
<polygon fill="midnightblue" stroke="midnightblue" points="2076.92,-71.49 2067.27,-75.87 2077.54,-78.46 2076.92,-71.49"/>
</g>
<!-- Node11 -->
<g id="node11" class="node">
<title>Node11</title>
<g id="a_node11"><a xlink:href="../../dd/dc2/decimalchart__dialog_8cpp.html" target="_top" xlink:title=" ">
<polygon fill="white" stroke="black" points="2750,-0.5 2750,-30.5 2891,-30.5 2891,-0.5 2750,-0.5"/>
<text text-anchor="start" x="2758" y="-18.5" font-family="Helvetica,sans-Serif" font-size="10.00">src/app/seamly2d/dialogs</text>
<text text-anchor="middle" x="2820.5" y="-7.5" font-family="Helvetica,sans-Serif" font-size="10.00">/decimalchart_dialog.cpp</text>
</a>
</g>
</g>
<!-- Node3&#45;&gt;Node11 -->
<g id="edge10" class="edge">
<title>Node3&#45;&gt;Node11</title>
<path fill="none" stroke="midnightblue" d="M2077.39,-79.15C2210.44,-74.31 2498.94,-61.07 2740.5,-31 2743.58,-30.62 2746.72,-30.19 2749.89,-29.74"/>
<polygon fill="midnightblue" stroke="midnightblue" points="2077.18,-75.65 2067.31,-79.51 2077.43,-82.65 2077.18,-75.65"/>
</g>
<!-- Node12 -->
<g id="node12" class="node">
<title>Node12</title>
<g id="a_node12"><a xlink:href="../../dc/d63/preferencespatternpage_8cpp.html" target="_top" xlink:title=" ">
<polygon fill="white" stroke="black" points="2909.5,-0.5 2909.5,-30.5 3127.5,-30.5 3127.5,-0.5 2909.5,-0.5"/>
<text text-anchor="start" x="2917.5" y="-18.5" font-family="Helvetica,sans-Serif" font-size="10.00">src/app/seamly2d/dialogs</text>
<text text-anchor="middle" x="3018.5" y="-7.5" font-family="Helvetica,sans-Serif" font-size="10.00">/configpages/preferencespatternpage.cpp</text>
</a>
</g>
</g>
<!-- Node3&#45;&gt;Node12 -->
<g id="edge11" class="edge">
<title>Node3&#45;&gt;Node12</title>
<path fill="none" stroke="midnightblue" d="M2077.48,-78.99C2231.07,-73.41 2595.63,-58.28 2900.5,-31 2903.38,-30.74 2906.29,-30.47 2909.24,-30.18"/>
<polygon fill="midnightblue" stroke="midnightblue" points="2077.1,-75.5 2067.23,-79.36 2077.35,-82.5 2077.1,-75.5"/>
</g>
<!-- Node13 -->
<g id="node13" class="node">
<title>Node13</title>
<g id="a_node13"><a xlink:href="../../dd/d64/dialogaboutapp_8cpp.html" target="_top" xlink:title=" ">
<polygon fill="white" stroke="black" points="3146,-0.5 3146,-30.5 3287,-30.5 3287,-0.5 3146,-0.5"/>
<text text-anchor="start" x="3154" y="-18.5" font-family="Helvetica,sans-Serif" font-size="10.00">src/app/seamly2d/dialogs</text>
<text text-anchor="middle" x="3216.5" y="-7.5" font-family="Helvetica,sans-Serif" font-size="10.00">/dialogaboutapp.cpp</text>
</a>
</g>
</g>
<!-- Node3&#45;&gt;Node13 -->
<g id="edge12" class="edge">
<title>Node3&#45;&gt;Node13</title>
<path fill="none" stroke="midnightblue" d="M2077.38,-79.51C2294.83,-73.45 2930.17,-54.19 3136.5,-31 3139.59,-30.65 3142.73,-30.26 3145.91,-29.83"/>
<polygon fill="midnightblue" stroke="midnightblue" points="2077.25,-76.01 2067.35,-79.79 2077.44,-83.01 2077.25,-76.01"/>
</g>
<!-- Node14 -->
<g id="node14" class="node">
<title>Node14</title>
<g id="a_node14"><a xlink:href="../../d6/d89/dialoglayoutprogress_8cpp.html" target="_top" xlink:title=" ">
<polygon fill="white" stroke="black" points="3305,-0.5 3305,-30.5 3448,-30.5 3448,-0.5 3305,-0.5"/>
<text text-anchor="start" x="3313" y="-18.5" font-family="Helvetica,sans-Serif" font-size="10.00">src/app/seamly2d/dialogs</text>
<text text-anchor="middle" x="3376.5" y="-7.5" font-family="Helvetica,sans-Serif" font-size="10.00">/dialoglayoutprogress.cpp</text>
</a>
</g>
</g>
<!-- Node3&#45;&gt;Node14 -->
<g id="edge13" class="edge">
<title>Node3&#45;&gt;Node14</title>
<path fill="none" stroke="midnightblue" d="M2077.72,-79.21C2334.44,-71.21 3175.63,-44.25 3296.5,-31 3299.17,-30.71 3301.88,-30.38 3304.61,-30.02"/>
<polygon fill="midnightblue" stroke="midnightblue" points="2077.27,-75.72 2067.39,-79.53 2077.49,-82.72 2077.27,-75.72"/>
</g>
<!-- Node15 -->
<g id="node15" class="node">
<title>Node15</title>
<g id="a_node15"><a xlink:href="../../d5/dc5/dialogpreferences_8cpp.html" target="_top" xlink:title=" ">
<polygon fill="white" stroke="black" points="3466,-0.5 3466,-30.5 3607,-30.5 3607,-0.5 3466,-0.5"/>
<text text-anchor="start" x="3474" y="-18.5" font-family="Helvetica,sans-Serif" font-size="10.00">src/app/seamly2d/dialogs</text>
<text text-anchor="middle" x="3536.5" y="-7.5" font-family="Helvetica,sans-Serif" font-size="10.00">/dialogpreferences.cpp</text>
</a>
</g>
</g>
<!-- Node3&#45;&gt;Node15 -->
<g id="edge14" class="edge">
<title>Node3&#45;&gt;Node15</title>
<path fill="none" stroke="midnightblue" d="M2077.47,-79.57C2354.26,-72.26 3320.06,-45.92 3457.5,-31 3460.27,-30.7 3463.09,-30.36 3465.94,-29.98"/>
<polygon fill="midnightblue" stroke="midnightblue" points="2077.04,-76.08 2067.14,-79.84 2077.23,-83.08 2077.04,-76.08"/>
</g>
<!-- Node16 -->
<g id="node16" class="node">
<title>Node16</title>
<g id="a_node16"><a xlink:href="../../dd/d54/export__layout__dialog_8cpp.html" target="_top" xlink:title=" ">
<polygon fill="white" stroke="black" points="3625,-0.5 3625,-30.5 3768,-30.5 3768,-0.5 3625,-0.5"/>
<text text-anchor="start" x="3633" y="-18.5" font-family="Helvetica,sans-Serif" font-size="10.00">src/app/seamly2d/dialogs</text>
<text text-anchor="middle" x="3696.5" y="-7.5" font-family="Helvetica,sans-Serif" font-size="10.00">/export_layout_dialog.cpp</text>
</a>
</g>
</g>
<!-- Node3&#45;&gt;Node16 -->
<g id="edge15" class="edge">
<title>Node3&#45;&gt;Node16</title>
<path fill="none" stroke="midnightblue" d="M2077.29,-79.49C2383.19,-71.14 3539.19,-39.17 3616.5,-31 3619.17,-30.72 3621.88,-30.4 3624.61,-30.05"/>
<polygon fill="midnightblue" stroke="midnightblue" points="2077.1,-76 2067.2,-79.77 2077.3,-83 2077.1,-76"/>
</g>
<!-- Node17 -->
<g id="node17" class="node">
<title>Node17</title>
<g id="a_node17"><a xlink:href="../../d5/d18/dialogpatternproperties_8cpp.html" target="_top" xlink:title=" ">
<polygon fill="white" stroke="black" points="521,-0.5 521,-30.5 676,-30.5 676,-0.5 521,-0.5"/>
<text text-anchor="start" x="529" y="-18.5" font-family="Helvetica,sans-Serif" font-size="10.00">src/app/seamly2d/dialogs</text>
<text text-anchor="middle" x="598.5" y="-7.5" font-family="Helvetica,sans-Serif" font-size="10.00">/dialogpatternproperties.cpp</text>
</a>
</g>
</g>
<!-- Node3&#45;&gt;Node17 -->
<g id="edge16" class="edge">
<title>Node3&#45;&gt;Node17</title>
<path fill="none" stroke="midnightblue" d="M1929.68,-82C1729.03,-82.63 1156.98,-79.67 684.5,-31 681.79,-30.72 679.03,-30.41 676.25,-30.07"/>
<polygon fill="midnightblue" stroke="midnightblue" points="1929.82,-85.5 1939.81,-81.96 1929.8,-78.5 1929.82,-85.5"/>
</g>
<!-- Node18 -->
<g id="node18" class="node">
<title>Node18</title>
<g id="a_node18"><a xlink:href="../../db/d5c/groups__widget_8cpp.html" target="_top" xlink:title=" ">
<polygon fill="white" stroke="black" points="694,-0.5 694,-30.5 835,-30.5 835,-0.5 694,-0.5"/>
<text text-anchor="start" x="702" y="-18.5" font-family="Helvetica,sans-Serif" font-size="10.00">src/app/seamly2d/dialogs</text>
<text text-anchor="middle" x="764.5" y="-7.5" font-family="Helvetica,sans-Serif" font-size="10.00">/groups_widget.cpp</text>
</a>
</g>
</g>
<!-- Node3&#45;&gt;Node18 -->
<g id="edge17" class="edge">
<title>Node3&#45;&gt;Node18</title>
<path fill="none" stroke="midnightblue" d="M1929.66,-81.81C1745.61,-81.82 1251.91,-77.15 843.5,-31 840.73,-30.69 837.91,-30.33 835.06,-29.95"/>
<polygon fill="midnightblue" stroke="midnightblue" points="1929.76,-85.31 1939.76,-81.81 1929.76,-78.31 1929.76,-85.31"/>
</g>
<!-- Node3&#45;&gt;Node19 -->
<g id="edge18" class="edge">
<title>Node3&#45;&gt;Node19</title>
<path fill="none" stroke="midnightblue" d="M2077.42,-79.55C2407.76,-70.79 3734.58,-35.43 3777.5,-31 3780.2,-30.72 3782.95,-30.4 3785.71,-30.06"/>
<polygon fill="midnightblue" stroke="midnightblue" points="2076.92,-76.06 2067.01,-79.82 2077.1,-83.05 2076.92,-76.06"/>
</g>
<!-- Node20 -->
<g id="node20" class="node">
<title>Node20</title>
<g id="a_node20"><a xlink:href="../../d2/df4/show__info__dialog_8cpp.html" target="_top" xlink:title=" ">
<polygon fill="white" stroke="black" points="853,-0.5 853,-30.5 994,-30.5 994,-0.5 853,-0.5"/>
<text text-anchor="start" x="861" y="-18.5" font-family="Helvetica,sans-Serif" font-size="10.00">src/app/seamly2d/dialogs</text>
<text text-anchor="middle" x="923.5" y="-7.5" font-family="Helvetica,sans-Serif" font-size="10.00">/show_info_dialog.cpp</text>
</a>
</g>
</g>
<!-- Node3&#45;&gt;Node20 -->
<g id="edge19" class="edge">
<title>Node3&#45;&gt;Node20</title>
<path fill="none" stroke="midnightblue" d="M1929.62,-81.08C1763.42,-79.41 1347.65,-71.21 1002.5,-31 999.73,-30.68 996.91,-30.32 994.07,-29.93"/>
<polygon fill="midnightblue" stroke="midnightblue" points="1929.69,-84.58 1939.73,-81.18 1929.76,-77.58 1929.69,-84.58"/>
</g>
<!-- Node21 -->
<g id="node21" class="node">
<title>Node21</title>
<g id="a_node21"><a xlink:href="../../dd/d84/shortcuts__dialog_8cpp.html" target="_top" xlink:title=" ">
<polygon fill="white" stroke="black" points="1012,-0.5 1012,-30.5 1153,-30.5 1153,-0.5 1012,-0.5"/>
<text text-anchor="start" x="1020" y="-18.5" font-family="Helvetica,sans-Serif" font-size="10.00">src/app/seamly2d/dialogs</text>
<text text-anchor="middle" x="1082.5" y="-7.5" font-family="Helvetica,sans-Serif" font-size="10.00">/shortcuts_dialog.cpp</text>
</a>
</g>
</g>
<!-- Node3&#45;&gt;Node21 -->
<g id="edge20" class="edge">
<title>Node3&#45;&gt;Node21</title>
<path fill="none" stroke="midnightblue" d="M1929.65,-80.09C1782.82,-76.61 1444.02,-65.27 1161.5,-31 1158.73,-30.66 1155.91,-30.29 1153.07,-29.89"/>
<polygon fill="midnightblue" stroke="midnightblue" points="1929.81,-83.59 1939.89,-80.32 1929.97,-76.59 1929.81,-83.59"/>
</g>
<!-- Node22 -->
<g id="node22" class="node">
<title>Node22</title>
<g id="a_node22"><a xlink:href="../../dc/d14/app_2seamly2d_2main_8cpp.html" target="_top" xlink:title=" ">
<polygon fill="white" stroke="black" points="145,-6 145,-25 296,-25 296,-6 145,-6"/>
<text text-anchor="middle" x="220.5" y="-13" font-family="Helvetica,sans-Serif" font-size="10.00">src/app/seamly2d/main.cpp</text>
</a>
</g>
</g>
<!-- Node3&#45;&gt;Node22 -->
<g id="edge21" class="edge">
<title>Node3&#45;&gt;Node22</title>
<path fill="none" stroke="midnightblue" d="M1929.58,-80.67C1646.01,-77.29 627.64,-63.11 305.5,-31 291.8,-29.63 276.96,-27.38 263.58,-25.05"/>
<polygon fill="midnightblue" stroke="midnightblue" points="1929.71,-84.17 1939.75,-80.79 1929.79,-77.17 1929.71,-84.17"/>
</g>
<!-- Node23 -->
<g id="node23" class="node">
<title>Node23</title>
<g id="a_node23"><a xlink:href="../../df/d69/welcome__dialog_8cpp.html" target="_top" xlink:title=" ">
<polygon fill="white" stroke="black" points="1171,-0.5 1171,-30.5 1312,-30.5 1312,-0.5 1171,-0.5"/>
<text text-anchor="start" x="1179" y="-18.5" font-family="Helvetica,sans-Serif" font-size="10.00">src/app/seamly2d/dialogs</text>
<text text-anchor="middle" x="1241.5" y="-7.5" font-family="Helvetica,sans-Serif" font-size="10.00">/welcome_dialog.cpp</text>
</a>
</g>
</g>
<!-- Node3&#45;&gt;Node23 -->
<g id="edge22" class="edge">
<title>Node3&#45;&gt;Node23</title>
<path fill="none" stroke="midnightblue" d="M1929.44,-78.64C1803.8,-73.2 1541.03,-59.31 1320.5,-31 1317.73,-30.64 1314.92,-30.26 1312.08,-29.84"/>
<polygon fill="midnightblue" stroke="midnightblue" points="1929.57,-82.15 1939.71,-79.08 1929.87,-75.16 1929.57,-82.15"/>
</g>
<!-- Node3&#45;&gt;Node24 -->
<g id="edge23" class="edge">
<title>Node3&#45;&gt;Node24</title>
<path fill="none" stroke="midnightblue" d="M2077.56,-79.52C2182.55,-76.71 2380.7,-71.43 2549.5,-67 3167.72,-50.79 3323.74,-76.45 3940.5,-31 3959.49,-29.6 3980.11,-27.35 3998.77,-25.03"/>
<polygon fill="midnightblue" stroke="midnightblue" points="2077.29,-76.02 2067.38,-79.79 2077.47,-83.02 2077.29,-76.02"/>
</g>
<!-- Node25 -->
<g id="node25" class="node">
<title>Node25</title>
<g id="a_node25"><a xlink:href="../../d3/d49/vpattern_8cpp.html" target="_top" xlink:title=" ">
<polygon fill="white" stroke="black" points="1330,-0.5 1330,-30.5 1455,-30.5 1455,-0.5 1330,-0.5"/>
<text text-anchor="start" x="1338" y="-18.5" font-family="Helvetica,sans-Serif" font-size="10.00">src/app/seamly2d/xml</text>
<text text-anchor="middle" x="1392.5" y="-7.5" font-family="Helvetica,sans-Serif" font-size="10.00">/vpattern.cpp</text>
</a>
</g>
</g>
<!-- Node3&#45;&gt;Node25 -->
<g id="edge24" class="edge">
<title>Node3&#45;&gt;Node25</title>
<path fill="none" stroke="midnightblue" d="M1929.67,-77.05C1825.57,-70.22 1629.85,-55.33 1464.5,-31 1461.47,-30.55 1458.38,-30.07 1455.26,-29.54"/>
<polygon fill="midnightblue" stroke="midnightblue" points="1929.56,-80.55 1939.76,-77.71 1930.01,-73.57 1929.56,-80.55"/>
</g>
<!-- Node26 -->
<g id="node26" class="node">
<title>Node26</title>
<g id="a_node26"><a xlink:href="../../d8/dd9/mainwindow_8cpp.html" target="_top" xlink:title=" ">
<polygon fill="white" stroke="black" points="314.5,-6 314.5,-25 502.5,-25 502.5,-6 314.5,-6"/>
<text text-anchor="middle" x="408.5" y="-13" font-family="Helvetica,sans-Serif" font-size="10.00">src/app/seamly2d/mainwindow.cpp</text>
</a>
</g>
</g>
<!-- Node3&#45;&gt;Node26 -->
<g id="edge25" class="edge">
<title>Node3&#45;&gt;Node26</title>
<path fill="none" stroke="midnightblue" d="M1929.71,-81.77C1712.14,-81.96 1054.46,-78.27 511.5,-31 495.13,-29.57 477.38,-27.33 461.31,-25.03"/>
<polygon fill="midnightblue" stroke="midnightblue" points="1929.74,-85.27 1939.73,-81.75 1929.73,-78.27 1929.74,-85.27"/>
</g>
<!-- Node28&#45;&gt;Node6 -->
<g id="edge28" class="edge">
<title>Node28&#45;&gt;Node6</title>
<path fill="none" stroke="midnightblue" d="M271.67,-70.41C229.17,-59.4 163.9,-42.5 117.79,-30.56"/>
<polygon fill="midnightblue" stroke="midnightblue" points="270.87,-73.82 281.43,-72.94 272.62,-67.04 270.87,-73.82"/>
</g>
<!-- Node28&#45;&gt;Node22 -->
<g id="edge29" class="edge">
<title>Node28&#45;&gt;Node22</title>
<path fill="none" stroke="midnightblue" d="M293.41,-66.92C274.83,-54.07 248.38,-35.78 232.98,-25.13"/>
<polygon fill="midnightblue" stroke="midnightblue" points="291.61,-69.93 301.82,-72.73 295.59,-64.17 291.61,-69.93"/>
</g>
<!-- Node28&#45;&gt;Node26 -->
<g id="edge30" class="edge">
<title>Node28&#45;&gt;Node26</title>
<path fill="none" stroke="midnightblue" d="M335.59,-66.92C354.17,-54.07 380.62,-35.78 396.02,-25.13"/>
<polygon fill="midnightblue" stroke="midnightblue" points="333.41,-64.17 327.18,-72.73 337.39,-69.93 333.41,-64.17"/>
</g>
</g>
</svg>
