<?xml version="1.0" encoding="UTF-8" standalone="no"?>
<!DOCTYPE svg PUBLIC "-//W3C//DTD SVG 1.1//EN"
 "http://www.w3.org/Graphics/SVG/1.1/DTD/svg11.dtd">
<!-- Generated by graphviz version 2.43.0 (0)
 -->
<!-- Title: src/libs/ifc/exception/vexceptionbadid.h Pages: 1 -->
<svg width="6412pt" height="318pt"
 viewBox="0.00 0.00 6412.00 318.00" xmlns="http://www.w3.org/2000/svg" xmlns:xlink="http://www.w3.org/1999/xlink">
<g id="graph0" class="graph" transform="scale(1 1) rotate(0) translate(4 314)">
<title>src/libs/ifc/exception/vexceptionbadid.h</title>
<polygon fill="white" stroke="transparent" points="-4,4 -4,-314 6408,-314 6408,4 -4,4"/>
<!-- Node1 -->
<g id="node1" class="node">
<title>Node1</title>
<g id="a_node1"><a xlink:title=" ">
<polygon fill="#bfbfbf" stroke="black" points="5240.5,-279.5 5240.5,-309.5 5357.5,-309.5 5357.5,-279.5 5240.5,-279.5"/>
<text text-anchor="start" x="5248.5" y="-297.5" font-family="Helvetica,sans-Serif" font-size="10.00">src/libs/ifc/exception</text>
<text text-anchor="middle" x="5299" y="-286.5" font-family="Helvetica,sans-Serif" font-size="10.00">/vexceptionbadid.h</text>
</a>
</g>
</g>
<!-- Node2 -->
<g id="node2" class="node">
<title>Node2</title>
<g id="a_node2"><a xlink:href="../../d5/d85/vexceptionbadid_8cpp.html" target="_top" xlink:title=" ">
<polygon fill="white" stroke="black" points="5065.5,-212.5 5065.5,-242.5 5186.5,-242.5 5186.5,-212.5 5065.5,-212.5"/>
<text text-anchor="start" x="5073.5" y="-230.5" font-family="Helvetica,sans-Serif" font-size="10.00">src/libs/ifc/exception</text>
<text text-anchor="middle" x="5126" y="-219.5" font-family="Helvetica,sans-Serif" font-size="10.00">/vexceptionbadid.cpp</text>
</a>
</g>
</g>
<!-- Node1&#45;&gt;Node2 -->
<g id="edge1" class="edge">
<title>Node1&#45;&gt;Node2</title>
<path fill="none" stroke="midnightblue" d="M5251.94,-275.82C5224.13,-265.37 5189.41,-252.32 5163.47,-242.58"/>
<polygon fill="midnightblue" stroke="midnightblue" points="5250.87,-279.16 5261.46,-279.4 5253.33,-272.6 5250.87,-279.16"/>
</g>
<!-- Node3 -->
<g id="node3" class="node">
<title>Node3</title>
<g id="a_node3"><a xlink:href="../../d7/d49/vdomdocument_8cpp.html" target="_top" xlink:title=" ">
<polygon fill="white" stroke="black" points="5205,-218 5205,-237 5393,-237 5393,-218 5205,-218"/>
<text text-anchor="middle" x="5299" y="-225" font-family="Helvetica,sans-Serif" font-size="10.00">src/libs/ifc/xml/vdomdocument.cpp</text>
</a>
</g>
</g>
<!-- Node1&#45;&gt;Node3 -->
<g id="edge2" class="edge">
<title>Node1&#45;&gt;Node3</title>
<path fill="none" stroke="midnightblue" d="M5299,-269.25C5299,-258.02 5299,-245.38 5299,-237.19"/>
<polygon fill="midnightblue" stroke="midnightblue" points="5295.5,-269.4 5299,-279.4 5302.5,-269.4 5295.5,-269.4"/>
</g>
<!-- Node4 -->
<g id="node4" class="node">
<title>Node4</title>
<g id="a_node4"><a xlink:href="../../d3/df7/vcontainer_8h.html" target="_top" xlink:title=" ">
<polygon fill="white" stroke="black" points="5411.5,-212.5 5411.5,-242.5 5518.5,-242.5 5518.5,-212.5 5411.5,-212.5"/>
<text text-anchor="start" x="5419.5" y="-230.5" font-family="Helvetica,sans-Serif" font-size="10.00">src/libs/vpatterndb</text>
<text text-anchor="middle" x="5465" y="-219.5" font-family="Helvetica,sans-Serif" font-size="10.00">/vcontainer.h</text>
</a>
</g>
</g>
<!-- Node1&#45;&gt;Node4 -->
<g id="edge3" class="edge">
<title>Node1&#45;&gt;Node4</title>
<path fill="none" stroke="midnightblue" d="M5344.51,-275.68C5371.13,-265.26 5404.27,-252.28 5429.05,-242.58"/>
<polygon fill="midnightblue" stroke="midnightblue" points="5343.05,-272.49 5335.02,-279.4 5345.61,-279.01 5343.05,-272.49"/>
</g>
<!-- Node5 -->
<g id="node5" class="node">
<title>Node5</title>
<g id="a_node5"><a xlink:href="../../dc/db7/measurements_8h.html" target="_top" xlink:title=" ">
<polygon fill="white" stroke="black" points="138.5,-145.5 138.5,-164.5 317.5,-164.5 317.5,-145.5 138.5,-145.5"/>
<text text-anchor="middle" x="228" y="-152.5" font-family="Helvetica,sans-Serif" font-size="10.00">src/libs/vformat/measurements.h</text>
</a>
</g>
</g>
<!-- Node4&#45;&gt;Node5 -->
<g id="edge4" class="edge">
<title>Node4&#45;&gt;Node5</title>
<path fill="none" stroke="midnightblue" d="M5400.95,-212.15C4826.19,-150.27 1127.39,-192.35 597,-176 501.61,-173.06 392.49,-166.78 317.8,-162.04"/>
<polygon fill="midnightblue" stroke="midnightblue" points="5400.85,-215.66 5411.18,-213.3 5401.63,-208.7 5400.85,-215.66"/>
</g>
<!-- Node6 -->
<g id="node6" class="node">
<title>Node6</title>
<g id="a_node6"><a xlink:href="../../d9/de3/measurements_8cpp.html" target="_top" xlink:title=" ">
<polygon fill="white" stroke="black" points="0,-73 0,-92 190,-92 190,-73 0,-73"/>
<text text-anchor="middle" x="95" y="-80" font-family="Helvetica,sans-Serif" font-size="10.00">src/libs/vformat/measurements.cpp</text>
</a>
</g>
</g>
<!-- Node4&#45;&gt;Node6 -->
<g id="edge6" class="edge">
<title>Node4&#45;&gt;Node6</title>
<path fill="none" stroke="midnightblue" d="M5400.88,-212.14C4844.2,-152.6 1272.94,-213.22 762,-176 527.35,-158.91 249.42,-111.52 141.28,-92.04"/>
<polygon fill="midnightblue" stroke="midnightblue" points="5400.85,-215.66 5411.18,-213.3 5401.63,-208.71 5400.85,-215.66"/>
</g>
<!-- Node7 -->
<g id="node7" class="node">
<title>Node7</title>
<g id="a_node7"><a xlink:href="../../d6/de0/vlayoutpiece_8h.html" target="_top" xlink:title=" ">
<polygon fill="white" stroke="black" points="771,-145.5 771,-164.5 937,-164.5 937,-145.5 771,-145.5"/>
<text text-anchor="middle" x="854" y="-152.5" font-family="Helvetica,sans-Serif" font-size="10.00">src/libs/vlayout/vlayoutpiece.h</text>
</a>
</g>
</g>
<!-- Node4&#45;&gt;Node7 -->
<g id="edge7" class="edge">
<title>Node4&#45;&gt;Node7</title>
<path fill="none" stroke="midnightblue" d="M5401.15,-212.18C5035.34,-173.38 2793.57,-179.98 2471,-176 1883.57,-168.76 1176.11,-159.99 937.31,-157.03"/>
<polygon fill="midnightblue" stroke="midnightblue" points="5400.85,-215.67 5411.18,-213.32 5401.63,-208.72 5400.85,-215.67"/>
</g>
<!-- Node17 -->
<g id="node16" class="node">
<title>Node17</title>
<g id="a_node16"><a xlink:href="../../d8/d70/vtextmanager_8cpp.html" target="_top" xlink:title=" ">
<polygon fill="white" stroke="black" points="1529,-73 1529,-92 1711,-92 1711,-73 1529,-73"/>
<text text-anchor="middle" x="1620" y="-80" font-family="Helvetica,sans-Serif" font-size="10.00">src/libs/vlayout/vtextmanager.cpp</text>
</a>
</g>
</g>
<!-- Node4&#45;&gt;Node17 -->
<g id="edge18" class="edge">
<title>Node4&#45;&gt;Node17</title>
<path fill="none" stroke="midnightblue" d="M5401.01,-212.11C4936.72,-157.49 3816.52,-190.58 3368,-176 2635.12,-152.18 2449.91,-168.03 1720,-98 1704.37,-96.5 1687.45,-94.28 1672.04,-92.02"/>
<polygon fill="midnightblue" stroke="midnightblue" points="5400.83,-215.62 5411.18,-213.33 5401.66,-208.67 5400.83,-215.62"/>
</g>
<!-- Node18 -->
<g id="node17" class="node">
<title>Node18</title>
<g id="a_node17"><a xlink:href="../../d5/d74/vabstractapplication_8h.html" target="_top" xlink:title=" ">
<polygon fill="white" stroke="red" points="3377.5,-145.5 3377.5,-164.5 3572.5,-164.5 3572.5,-145.5 3377.5,-145.5"/>
<text text-anchor="middle" x="3475" y="-152.5" font-family="Helvetica,sans-Serif" font-size="10.00">src/libs/vmisc/vabstractapplication.h</text>
</a>
</g>
</g>
<!-- Node4&#45;&gt;Node18 -->
<g id="edge19" class="edge">
<title>Node4&#45;&gt;Node18</title>
<path fill="none" stroke="midnightblue" d="M5400.99,-212.1C5022.19,-165.72 3909.17,-157.7 3572.51,-156.29"/>
<polygon fill="midnightblue" stroke="midnightblue" points="5400.81,-215.6 5411.17,-213.38 5401.68,-208.66 5400.81,-215.6"/>
</g>
<!-- Node36 -->
<g id="node31" class="node">
<title>Node36</title>
<g id="a_node31"><a xlink:href="../../db/d11/vformula_8cpp.html" target="_top" xlink:title=" ">
<polygon fill="white" stroke="black" points="5270.5,-67.5 5270.5,-97.5 5377.5,-97.5 5377.5,-67.5 5270.5,-67.5"/>
<text text-anchor="start" x="5278.5" y="-85.5" font-family="Helvetica,sans-Serif" font-size="10.00">src/libs/vpatterndb</text>
<text text-anchor="middle" x="5324" y="-74.5" font-family="Helvetica,sans-Serif" font-size="10.00">/vformula.cpp</text>
</a>
</g>
</g>
<!-- Node4&#45;&gt;Node36 -->
<g id="edge52" class="edge">
<title>Node4&#45;&gt;Node36</title>
<path fill="none" stroke="midnightblue" d="M5443.7,-204.9C5414.48,-175.26 5362.75,-122.8 5337.98,-97.68"/>
<polygon fill="midnightblue" stroke="midnightblue" points="5441.45,-207.6 5450.96,-212.27 5446.44,-202.69 5441.45,-207.6"/>
</g>
<!-- Node37 -->
<g id="node32" class="node">
<title>Node37</title>
<g id="a_node32"><a xlink:href="../../d6/d46/vcontainer_8cpp.html" target="_top" xlink:title=" ">
<polygon fill="white" stroke="black" points="5395.5,-67.5 5395.5,-97.5 5502.5,-97.5 5502.5,-67.5 5395.5,-67.5"/>
<text text-anchor="start" x="5403.5" y="-85.5" font-family="Helvetica,sans-Serif" font-size="10.00">src/libs/vpatterndb</text>
<text text-anchor="middle" x="5449" y="-74.5" font-family="Helvetica,sans-Serif" font-size="10.00">/vcontainer.cpp</text>
</a>
</g>
</g>
<!-- Node4&#45;&gt;Node37 -->
<g id="edge53" class="edge">
<title>Node4&#45;&gt;Node37</title>
<path fill="none" stroke="midnightblue" d="M5457,-202.37C5454.61,-194.1 5452.28,-184.73 5451,-176 5446.96,-148.51 5447.46,-115.93 5448.22,-97.7"/>
<polygon fill="midnightblue" stroke="midnightblue" points="5453.71,-203.58 5459.98,-212.12 5460.4,-201.53 5453.71,-203.58"/>
</g>
<!-- Node38 -->
<g id="node33" class="node">
<title>Node38</title>
<g id="a_node33"><a xlink:href="../../df/d7a/vpiece_8cpp.html" target="_top" xlink:title=" ">
<polygon fill="white" stroke="black" points="5520.5,-67.5 5520.5,-97.5 5627.5,-97.5 5627.5,-67.5 5520.5,-67.5"/>
<text text-anchor="start" x="5528.5" y="-85.5" font-family="Helvetica,sans-Serif" font-size="10.00">src/libs/vpatterndb</text>
<text text-anchor="middle" x="5574" y="-74.5" font-family="Helvetica,sans-Serif" font-size="10.00">/vpiece.cpp</text>
</a>
</g>
</g>
<!-- Node4&#45;&gt;Node38 -->
<g id="edge56" class="edge">
<title>Node4&#45;&gt;Node38</title>
<path fill="none" stroke="midnightblue" d="M5466.28,-202.03C5468.43,-181.99 5474.12,-153.81 5489,-134 5501.17,-117.81 5520.18,-105.81 5537.14,-97.59"/>
<polygon fill="midnightblue" stroke="midnightblue" points="5462.77,-201.96 5465.41,-212.22 5469.74,-202.55 5462.77,-201.96"/>
</g>
<!-- Node40 -->
<g id="node35" class="node">
<title>Node40</title>
<g id="a_node35"><a xlink:href="../../d8/dba/vpiecenode_8cpp.html" target="_top" xlink:title=" ">
<polygon fill="white" stroke="black" points="4230.5,-0.5 4230.5,-30.5 4337.5,-30.5 4337.5,-0.5 4230.5,-0.5"/>
<text text-anchor="start" x="4238.5" y="-18.5" font-family="Helvetica,sans-Serif" font-size="10.00">src/libs/vpatterndb</text>
<text text-anchor="middle" x="4284" y="-7.5" font-family="Helvetica,sans-Serif" font-size="10.00">/vpiecenode.cpp</text>
</a>
</g>
</g>
<!-- Node4&#45;&gt;Node40 -->
<g id="edge55" class="edge">
<title>Node4&#45;&gt;Node40</title>
<path fill="none" stroke="midnightblue" d="M5476.81,-203.4C5489.57,-179.26 5509.71,-143.56 5522,-134 5564.28,-101.12 5605.29,-141.16 5637,-98 5645.16,-86.9 5646.56,-76.92 5637,-67 5591.18,-19.44 4582.98,-16.47 4337.51,-16.45"/>
<polygon fill="midnightblue" stroke="midnightblue" points="5473.68,-201.84 5472.16,-212.32 5479.89,-205.08 5473.68,-201.84"/>
</g>
<!-- Node57 -->
<g id="node45" class="node">
<title>Node57</title>
<g id="a_node45"><a xlink:href="../../d7/d8a/measurement__variable__p_8h.html" target="_top" xlink:title=" ">
<polygon fill="white" stroke="red" points="5531,-134.5 5531,-175.5 5667,-175.5 5667,-134.5 5531,-134.5"/>
<text text-anchor="start" x="5539" y="-163.5" font-family="Helvetica,sans-Serif" font-size="10.00">src/libs/vpatterndb</text>
<text text-anchor="start" x="5539" y="-152.5" font-family="Helvetica,sans-Serif" font-size="10.00">/variables/measurement</text>
<text text-anchor="middle" x="5599" y="-141.5" font-family="Helvetica,sans-Serif" font-size="10.00">_variable_p.h</text>
</a>
</g>
</g>
<!-- Node4&#45;&gt;Node57 -->
<g id="edge50" class="edge">
<title>Node4&#45;&gt;Node57</title>
<path fill="none" stroke="midnightblue" d="M5500.69,-207.72C5519.57,-197.79 5542.75,-185.6 5561.85,-175.55"/>
<polygon fill="midnightblue" stroke="midnightblue" points="5499.02,-204.65 5491.79,-212.4 5502.27,-210.84 5499.02,-204.65"/>
</g>
<!-- Node59 -->
<g id="node46" class="node">
<title>Node59</title>
<g id="a_node46"><a xlink:href="../../d1/de1/vincrement__p_8h.html" target="_top" xlink:title=" ">
<polygon fill="white" stroke="red" points="5685.5,-140 5685.5,-170 5828.5,-170 5828.5,-140 5685.5,-140"/>
<text text-anchor="start" x="5693.5" y="-158" font-family="Helvetica,sans-Serif" font-size="10.00">src/libs/vpatterndb</text>
<text text-anchor="middle" x="5757" y="-147" font-family="Helvetica,sans-Serif" font-size="10.00">/variables/vincrement_p.h</text>
</a>
</g>
</g>
<!-- Node4&#45;&gt;Node59 -->
<g id="edge51" class="edge">
<title>Node4&#45;&gt;Node59</title>
<path fill="none" stroke="midnightblue" d="M5528.59,-211.41C5570.48,-201.43 5626.53,-188.03 5676,-176 5683.88,-174.08 5692.19,-172.05 5700.36,-170.04"/>
<polygon fill="midnightblue" stroke="midnightblue" points="5527.71,-208.02 5518.79,-213.74 5529.33,-214.83 5527.71,-208.02"/>
</g>
<!-- Node61 -->
<g id="node47" class="node">
<title>Node61</title>
<g id="a_node47"><a xlink:href="../../d6/d91/vnodedetail_8cpp.html" target="_top" xlink:title=" ">
<polygon fill="white" stroke="black" points="5846.5,-140 5846.5,-170 5953.5,-170 5953.5,-140 5846.5,-140"/>
<text text-anchor="start" x="5854.5" y="-158" font-family="Helvetica,sans-Serif" font-size="10.00">src/libs/vpatterndb</text>
<text text-anchor="middle" x="5900" y="-147" font-family="Helvetica,sans-Serif" font-size="10.00">/vnodedetail.cpp</text>
</a>
</g>
</g>
<!-- Node4&#45;&gt;Node61 -->
<g id="edge54" class="edge">
<title>Node4&#45;&gt;Node61</title>
<path fill="none" stroke="midnightblue" d="M5528.85,-221.33C5603.62,-214.48 5730.88,-200.33 5838,-176 5845.17,-174.37 5852.69,-172.28 5859.93,-170.07"/>
<polygon fill="midnightblue" stroke="midnightblue" points="5528.3,-217.87 5518.65,-222.25 5528.93,-224.84 5528.3,-217.87"/>
</g>
<!-- Node62 -->
<g id="node48" class="node">
<title>Node62</title>
<g id="a_node48"><a xlink:href="../../da/de1/vpiecepath_8cpp.html" target="_top" xlink:title=" ">
<polygon fill="white" stroke="black" points="5971.5,-140 5971.5,-170 6078.5,-170 6078.5,-140 5971.5,-140"/>
<text text-anchor="start" x="5979.5" y="-158" font-family="Helvetica,sans-Serif" font-size="10.00">src/libs/vpatterndb</text>
<text text-anchor="middle" x="6025" y="-147" font-family="Helvetica,sans-Serif" font-size="10.00">/vpiecepath.cpp</text>
</a>
</g>
</g>
<!-- Node4&#45;&gt;Node62 -->
<g id="edge57" class="edge">
<title>Node4&#45;&gt;Node62</title>
<path fill="none" stroke="midnightblue" d="M5528.69,-224.34C5624.04,-220.13 5809.13,-208.24 5963,-176 5970.42,-174.45 5978.2,-172.34 5985.65,-170.07"/>
<polygon fill="midnightblue" stroke="midnightblue" points="5528.47,-220.84 5518.63,-224.77 5528.77,-227.84 5528.47,-220.84"/>
</g>
<!-- Node63 -->
<g id="node49" class="node">
<title>Node63</title>
<g id="a_node49"><a xlink:href="../../d1/d3a/abstracttest_8cpp.html" target="_top" xlink:title=" ">
<polygon fill="white" stroke="black" points="6096.5,-145.5 6096.5,-164.5 6257.5,-164.5 6257.5,-145.5 6096.5,-145.5"/>
<text text-anchor="middle" x="6177" y="-152.5" font-family="Helvetica,sans-Serif" font-size="10.00">src/libs/vtest/abstracttest.cpp</text>
</a>
</g>
</g>
<!-- Node4&#45;&gt;Node63 -->
<g id="edge58" class="edge">
<title>Node4&#45;&gt;Node63</title>
<path fill="none" stroke="midnightblue" d="M5528.84,-224.28C5642.05,-219.68 5885.14,-206.86 6088,-176 6106.79,-173.14 6127.52,-168.57 6144.24,-164.52"/>
<polygon fill="midnightblue" stroke="midnightblue" points="5528.48,-220.79 5518.63,-224.69 5528.76,-227.78 5528.48,-220.79"/>
</g>
<!-- Node64 -->
<g id="node50" class="node">
<title>Node64</title>
<g id="a_node50"><a xlink:href="../../da/db4/piece__tablewidgetitem_8cpp.html" target="_top" xlink:title=" ">
<polygon fill="white" stroke="black" points="6276,-140 6276,-170 6404,-170 6404,-140 6276,-140"/>
<text text-anchor="start" x="6284" y="-158" font-family="Helvetica,sans-Serif" font-size="10.00">src/libs/vwidgets/piece</text>
<text text-anchor="middle" x="6340" y="-147" font-family="Helvetica,sans-Serif" font-size="10.00">_tablewidgetitem.cpp</text>
</a>
</g>
</g>
<!-- Node4&#45;&gt;Node64 -->
<g id="edge59" class="edge">
<title>Node4&#45;&gt;Node64</title>
<path fill="none" stroke="midnightblue" d="M5529.22,-226.89C5665.92,-226.75 5995.41,-221.27 6267,-176 6275.94,-174.51 6285.37,-172.37 6294.37,-170.04"/>
<polygon fill="midnightblue" stroke="midnightblue" points="5528.93,-223.39 5518.93,-226.89 5528.93,-230.39 5528.93,-223.39"/>
</g>
<!-- Node5&#45;&gt;Node6 -->
<g id="edge5" class="edge">
<title>Node5&#45;&gt;Node6</title>
<path fill="none" stroke="midnightblue" d="M203.12,-140.81C176.18,-126.53 134,-104.17 111.1,-92.03"/>
<polygon fill="midnightblue" stroke="midnightblue" points="201.48,-143.9 211.96,-145.5 204.76,-137.72 201.48,-143.9"/>
</g>
<!-- Node8 -->
<g id="node8" class="node">
<title>Node8</title>
<g id="a_node8"><a xlink:href="../../dd/d66/vdxfengine_8cpp.html" target="_top" xlink:title=" ">
<polygon fill="white" stroke="black" points="610,-73 610,-92 764,-92 764,-73 610,-73"/>
<text text-anchor="middle" x="687" y="-80" font-family="Helvetica,sans-Serif" font-size="10.00">src/libs/vdxf/vdxfengine.cpp</text>
</a>
</g>
</g>
<!-- Node7&#45;&gt;Node8 -->
<g id="edge8" class="edge">
<title>Node7&#45;&gt;Node8</title>
<path fill="none" stroke="midnightblue" d="M824.51,-141.55C790.79,-127.32 736.47,-104.38 707.22,-92.03"/>
<polygon fill="midnightblue" stroke="midnightblue" points="823.28,-144.83 833.86,-145.5 826,-138.38 823.28,-144.83"/>
</g>
<!-- Node9 -->
<g id="node9" class="node">
<title>Node9</title>
<g id="a_node9"><a xlink:href="../../de/da8/vbank_8cpp.html" target="_top" xlink:title=" ">
<polygon fill="white" stroke="black" points="782,-73 782,-92 926,-92 926,-73 782,-73"/>
<text text-anchor="middle" x="854" y="-80" font-family="Helvetica,sans-Serif" font-size="10.00">src/libs/vlayout/vbank.cpp</text>
</a>
</g>
</g>
<!-- Node7&#45;&gt;Node9 -->
<g id="edge9" class="edge">
<title>Node7&#45;&gt;Node9</title>
<path fill="none" stroke="midnightblue" d="M854,-134.94C854,-121.03 854,-102.82 854,-92.22"/>
<polygon fill="midnightblue" stroke="midnightblue" points="850.5,-135.36 854,-145.36 857.5,-135.36 850.5,-135.36"/>
</g>
<!-- Node10 -->
<g id="node10" class="node">
<title>Node10</title>
<g id="a_node10"><a xlink:href="../../df/d5d/vcontour_8cpp.html" target="_top" xlink:title=" ">
<polygon fill="white" stroke="black" points="944,-73 944,-92 1100,-92 1100,-73 944,-73"/>
<text text-anchor="middle" x="1022" y="-80" font-family="Helvetica,sans-Serif" font-size="10.00">src/libs/vlayout/vcontour.cpp</text>
</a>
</g>
</g>
<!-- Node7&#45;&gt;Node10 -->
<g id="edge10" class="edge">
<title>Node7&#45;&gt;Node10</title>
<path fill="none" stroke="midnightblue" d="M883.66,-141.55C917.59,-127.32 972.23,-104.38 1001.66,-92.03"/>
<polygon fill="midnightblue" stroke="midnightblue" points="882.13,-138.4 874.26,-145.5 884.84,-144.85 882.13,-138.4"/>
</g>
<!-- Node11 -->
<g id="node11" class="node">
<title>Node11</title>
<g id="a_node11"><a xlink:href="../../d3/d39/vlayoutgenerator_8cpp.html" target="_top" xlink:title=" ">
<polygon fill="white" stroke="black" points="1118.5,-73 1118.5,-92 1315.5,-92 1315.5,-73 1118.5,-73"/>
<text text-anchor="middle" x="1217" y="-80" font-family="Helvetica,sans-Serif" font-size="10.00">src/libs/vlayout/vlayoutgenerator.cpp</text>
</a>
</g>
</g>
<!-- Node7&#45;&gt;Node11 -->
<g id="edge11" class="edge">
<title>Node7&#45;&gt;Node11</title>
<path fill="none" stroke="midnightblue" d="M908.02,-143.51C980.13,-129.5 1106.47,-104.97 1173.06,-92.03"/>
<polygon fill="midnightblue" stroke="midnightblue" points="906.94,-140.15 897.79,-145.5 908.27,-147.03 906.94,-140.15"/>
</g>
<!-- Node12 -->
<g id="node12" class="node">
<title>Node12</title>
<g id="a_node12"><a xlink:href="../../d2/d2d/vlayoutpaper__p_8h.html" target="_top" xlink:title=" ">
<polygon fill="white" stroke="black" points="208.5,-73 208.5,-92 387.5,-92 387.5,-73 208.5,-73"/>
<text text-anchor="middle" x="298" y="-80" font-family="Helvetica,sans-Serif" font-size="10.00">src/libs/vlayout/vlayoutpaper_p.h</text>
</a>
</g>
</g>
<!-- Node7&#45;&gt;Node12 -->
<g id="edge12" class="edge">
<title>Node7&#45;&gt;Node12</title>
<path fill="none" stroke="midnightblue" d="M769.86,-144.29C678.12,-133.56 527,-115.48 397,-98 383.23,-96.15 368.39,-94.04 354.51,-92.01"/>
<polygon fill="midnightblue" stroke="midnightblue" points="769.58,-147.78 779.92,-145.47 770.4,-140.83 769.58,-147.78"/>
</g>
<!-- Node13 -->
<g id="node13" class="node">
<title>Node13</title>
<g id="a_node13"><a xlink:href="../../d1/dd1/vlayoutpaper_8cpp.html" target="_top" xlink:title=" ">
<polygon fill="white" stroke="black" points="391,-6 391,-25 569,-25 569,-6 391,-6"/>
<text text-anchor="middle" x="480" y="-13" font-family="Helvetica,sans-Serif" font-size="10.00">src/libs/vlayout/vlayoutpaper.cpp</text>
</a>
</g>
</g>
<!-- Node7&#45;&gt;Node13 -->
<g id="edge14" class="edge">
<title>Node7&#45;&gt;Node13</title>
<path fill="none" stroke="midnightblue" d="M760.73,-143.94C711.4,-136.05 650.9,-122.17 601,-98 581.38,-88.5 580.8,-79.58 563,-67 540.28,-50.93 512.36,-34.6 495.39,-25.02"/>
<polygon fill="midnightblue" stroke="midnightblue" points="760.34,-147.42 770.75,-145.49 761.41,-140.5 760.34,-147.42"/>
</g>
<!-- Node14 -->
<g id="node14" class="node">
<title>Node14</title>
<g id="a_node14"><a xlink:href="../../dd/d70/vlayoutpiece_8cpp.html" target="_top" xlink:title=" ">
<polygon fill="white" stroke="black" points="1333.5,-73 1333.5,-92 1510.5,-92 1510.5,-73 1333.5,-73"/>
<text text-anchor="middle" x="1422" y="-80" font-family="Helvetica,sans-Serif" font-size="10.00">src/libs/vlayout/vlayoutpiece.cpp</text>
</a>
</g>
</g>
<!-- Node7&#45;&gt;Node14 -->
<g id="edge15" class="edge">
<title>Node7&#45;&gt;Node14</title>
<path fill="none" stroke="midnightblue" d="M941.51,-144.32C1035.97,-133.7 1190.79,-115.79 1324,-98 1337.72,-96.17 1352.51,-94.05 1366.33,-92.02"/>
<polygon fill="midnightblue" stroke="midnightblue" points="940.98,-140.86 931.43,-145.45 941.76,-147.82 940.98,-140.86"/>
</g>
<!-- Node15 -->
<g id="node15" class="node">
<title>Node15</title>
<g id="a_node15"><a xlink:href="../../db/d5c/vposition_8h.html" target="_top" xlink:title=" ">
<polygon fill="white" stroke="red" points="406,-73 406,-92 554,-92 554,-73 406,-73"/>
<text text-anchor="middle" x="480" y="-80" font-family="Helvetica,sans-Serif" font-size="10.00">src/libs/vlayout/vposition.h</text>
</a>
</g>
</g>
<!-- Node7&#45;&gt;Node15 -->
<g id="edge16" class="edge">
<title>Node7&#45;&gt;Node15</title>
<path fill="none" stroke="midnightblue" d="M798.8,-143.59C724.58,-129.6 594.02,-104.99 525.27,-92.03"/>
<polygon fill="midnightblue" stroke="midnightblue" points="798.41,-147.08 808.89,-145.5 799.71,-140.2 798.41,-147.08"/>
</g>
<!-- Node12&#45;&gt;Node13 -->
<g id="edge13" class="edge">
<title>Node12&#45;&gt;Node13</title>
<path fill="none" stroke="midnightblue" d="M331.78,-69.44C367.88,-56.54 424.21,-36.42 456.02,-25.06"/>
<polygon fill="midnightblue" stroke="midnightblue" points="330.41,-66.21 322.17,-72.87 332.76,-72.8 330.41,-66.21"/>
</g>
<!-- Node15&#45;&gt;Node13 -->
<g id="edge17" class="edge">
<title>Node15&#45;&gt;Node13</title>
<path fill="none" stroke="midnightblue" d="M480,-62.54C480,-50.17 480,-34.62 480,-25.13"/>
<polygon fill="midnightblue" stroke="midnightblue" points="476.5,-62.73 480,-72.73 483.5,-62.73 476.5,-62.73"/>
</g>
<!-- Node18&#45;&gt;Node14 -->
<g id="edge30" class="edge">
<title>Node18&#45;&gt;Node14</title>
<path fill="none" stroke="midnightblue" d="M3367.36,-152.6C3012.75,-147.71 1883.18,-129.96 1520,-98 1504.24,-96.61 1487.15,-94.35 1471.72,-92.02"/>
<polygon fill="midnightblue" stroke="midnightblue" points="3367.32,-156.1 3377.37,-152.73 3367.42,-149.1 3367.32,-156.1"/>
</g>
<!-- Node18&#45;&gt;Node17 -->
<g id="edge31" class="edge">
<title>Node18&#45;&gt;Node17</title>
<path fill="none" stroke="midnightblue" d="M3367.22,-152.15C3037.03,-146.22 2042.34,-126.42 1720,-98 1704.01,-96.59 1686.68,-94.34 1671,-92.02"/>
<polygon fill="midnightblue" stroke="midnightblue" points="3367.21,-155.65 3377.27,-152.33 3367.33,-148.65 3367.21,-155.65"/>
</g>
<!-- Node19 -->
<g id="node18" class="node">
<title>Node19</title>
<g id="a_node18"><a xlink:href="../../d4/d90/fvupdater_8cpp.html" target="_top" xlink:title=" ">
<polygon fill="white" stroke="black" points="4571.5,-73 4571.5,-92 4724.5,-92 4724.5,-73 4571.5,-73"/>
<text text-anchor="middle" x="4648" y="-80" font-family="Helvetica,sans-Serif" font-size="10.00">src/libs/fervor/fvupdater.cpp</text>
</a>
</g>
</g>
<!-- Node18&#45;&gt;Node19 -->
<g id="edge20" class="edge">
<title>Node18&#45;&gt;Node19</title>
<path fill="none" stroke="midnightblue" d="M3583.03,-152.56C3778.77,-149.04 4204.92,-137.17 4562,-98 4575.55,-96.51 4590.2,-94.28 4603.5,-92.01"/>
<polygon fill="midnightblue" stroke="midnightblue" points="3582.68,-149.07 3572.74,-152.75 3582.8,-156.07 3582.68,-149.07"/>
</g>
<!-- Node20 -->
<g id="node19" class="node">
<title>Node20</title>
<g id="a_node19"><a xlink:href="../../d9/dc8/dxiface_8cpp.html" target="_top" xlink:title=" ">
<polygon fill="white" stroke="black" points="4742.5,-73 4742.5,-92 4877.5,-92 4877.5,-73 4742.5,-73"/>
<text text-anchor="middle" x="4810" y="-80" font-family="Helvetica,sans-Serif" font-size="10.00">src/libs/vdxf/dxiface.cpp</text>
</a>
</g>
</g>
<!-- Node18&#45;&gt;Node20 -->
<g id="edge21" class="edge">
<title>Node18&#45;&gt;Node20</title>
<path fill="none" stroke="midnightblue" d="M3583.01,-154.33C3801.12,-153.87 4309.46,-147.06 4733,-98 4745.3,-96.58 4758.58,-94.33 4770.6,-92.03"/>
<polygon fill="midnightblue" stroke="midnightblue" points="3582.84,-150.83 3572.84,-154.35 3582.85,-157.83 3582.84,-150.83"/>
</g>
<!-- Node21 -->
<g id="node20" class="node">
<title>Node21</title>
<g id="a_node20"><a xlink:href="../../da/d75/vabstractarc__p_8h.html" target="_top" xlink:title=" ">
<polygon fill="white" stroke="red" points="4895.5,-67.5 4895.5,-97.5 5002.5,-97.5 5002.5,-67.5 4895.5,-67.5"/>
<text text-anchor="start" x="4903.5" y="-85.5" font-family="Helvetica,sans-Serif" font-size="10.00">src/libs/vgeometry</text>
<text text-anchor="middle" x="4949" y="-74.5" font-family="Helvetica,sans-Serif" font-size="10.00">/vabstractarc_p.h</text>
</a>
</g>
</g>
<!-- Node18&#45;&gt;Node21 -->
<g id="edge22" class="edge">
<title>Node18&#45;&gt;Node21</title>
<path fill="none" stroke="midnightblue" d="M3582.89,-152.32C3867.6,-147.48 4634.57,-131.62 4886,-98 4889,-97.6 4892.07,-97.12 4895.16,-96.59"/>
<polygon fill="midnightblue" stroke="midnightblue" points="3582.49,-148.83 3572.55,-152.5 3582.61,-155.83 3582.49,-148.83"/>
</g>
<!-- Node23 -->
<g id="node21" class="node">
<title>Node23</title>
<g id="a_node21"><a xlink:href="../../dc/da3/varc__p_8h.html" target="_top" xlink:title=" ">
<polygon fill="white" stroke="red" points="5020.5,-67.5 5020.5,-97.5 5127.5,-97.5 5127.5,-67.5 5020.5,-67.5"/>
<text text-anchor="start" x="5028.5" y="-85.5" font-family="Helvetica,sans-Serif" font-size="10.00">src/libs/vgeometry</text>
<text text-anchor="middle" x="5074" y="-74.5" font-family="Helvetica,sans-Serif" font-size="10.00">/varc_p.h</text>
</a>
</g>
</g>
<!-- Node18&#45;&gt;Node23 -->
<g id="edge23" class="edge">
<title>Node18&#45;&gt;Node23</title>
<path fill="none" stroke="midnightblue" d="M3582.81,-152.73C3884.7,-148.75 4734.38,-134.54 5011,-98 5014,-97.6 5017.08,-97.13 5020.17,-96.6"/>
<polygon fill="midnightblue" stroke="midnightblue" points="3582.69,-149.23 3572.74,-152.86 3582.79,-156.23 3582.69,-149.23"/>
</g>
<!-- Node25 -->
<g id="node22" class="node">
<title>Node25</title>
<g id="a_node22"><a xlink:href="../../d5/d8e/vcubicbezier__p_8h.html" target="_top" xlink:title=" ">
<polygon fill="white" stroke="red" points="5145.5,-67.5 5145.5,-97.5 5252.5,-97.5 5252.5,-67.5 5145.5,-67.5"/>
<text text-anchor="start" x="5153.5" y="-85.5" font-family="Helvetica,sans-Serif" font-size="10.00">src/libs/vgeometry</text>
<text text-anchor="middle" x="5199" y="-74.5" font-family="Helvetica,sans-Serif" font-size="10.00">/vcubicbezier_p.h</text>
</a>
</g>
</g>
<!-- Node18&#45;&gt;Node25 -->
<g id="edge24" class="edge">
<title>Node18&#45;&gt;Node25</title>
<path fill="none" stroke="midnightblue" d="M3582.85,-153.08C3901.32,-149.91 4834.14,-137.45 5136,-98 5139,-97.61 5142.08,-97.14 5145.17,-96.61"/>
<polygon fill="midnightblue" stroke="midnightblue" points="3582.66,-149.58 3572.7,-153.17 3582.73,-156.58 3582.66,-149.58"/>
</g>
<!-- Node27 -->
<g id="node23" class="node">
<title>Node27</title>
<g id="a_node23"><a xlink:href="../../df/dde/vellipticalarc__p_8h.html" target="_top" xlink:title=" ">
<polygon fill="white" stroke="black" points="1729.5,-67.5 1729.5,-97.5 1836.5,-97.5 1836.5,-67.5 1729.5,-67.5"/>
<text text-anchor="start" x="1737.5" y="-85.5" font-family="Helvetica,sans-Serif" font-size="10.00">src/libs/vgeometry</text>
<text text-anchor="middle" x="1783" y="-74.5" font-family="Helvetica,sans-Serif" font-size="10.00">/vellipticalarc_p.h</text>
</a>
</g>
</g>
<!-- Node18&#45;&gt;Node27 -->
<g id="edge25" class="edge">
<title>Node18&#45;&gt;Node27</title>
<path fill="none" stroke="midnightblue" d="M3367.19,-151.38C3028.65,-143.01 2000.34,-116.35 1851,-98 1846.33,-97.43 1841.5,-96.69 1836.67,-95.86"/>
<polygon fill="midnightblue" stroke="midnightblue" points="3367.17,-154.88 3377.25,-151.63 3367.34,-147.88 3367.17,-154.88"/>
</g>
<!-- Node28 -->
<g id="node24" class="node">
<title>Node28</title>
<g id="a_node24"><a xlink:href="../../d6/dfb/vellipticalarc_8cpp.html" target="_top" xlink:title=" ">
<polygon fill="white" stroke="black" points="1770.5,-0.5 1770.5,-30.5 1877.5,-30.5 1877.5,-0.5 1770.5,-0.5"/>
<text text-anchor="start" x="1778.5" y="-18.5" font-family="Helvetica,sans-Serif" font-size="10.00">src/libs/vgeometry</text>
<text text-anchor="middle" x="1824" y="-7.5" font-family="Helvetica,sans-Serif" font-size="10.00">/vellipticalarc.cpp</text>
</a>
</g>
</g>
<!-- Node18&#45;&gt;Node28 -->
<g id="edge27" class="edge">
<title>Node18&#45;&gt;Node28</title>
<path fill="none" stroke="midnightblue" d="M3367.28,-151.46C3014.86,-143.01 1916.82,-115.32 1884,-98 1856.34,-83.4 1838.14,-49.7 1829.61,-30.52"/>
<polygon fill="midnightblue" stroke="midnightblue" points="3367.41,-154.97 3377.49,-151.71 3367.58,-147.97 3367.41,-154.97"/>
</g>
<!-- Node29 -->
<g id="node25" class="node">
<title>Node29</title>
<g id="a_node25"><a xlink:href="../../d1/d76/vspline__p_8h.html" target="_top" xlink:title=" ">
<polygon fill="white" stroke="red" points="1893.5,-67.5 1893.5,-97.5 2000.5,-97.5 2000.5,-67.5 1893.5,-67.5"/>
<text text-anchor="start" x="1901.5" y="-85.5" font-family="Helvetica,sans-Serif" font-size="10.00">src/libs/vgeometry</text>
<text text-anchor="middle" x="1947" y="-74.5" font-family="Helvetica,sans-Serif" font-size="10.00">/vspline_p.h</text>
</a>
</g>
</g>
<!-- Node18&#45;&gt;Node29 -->
<g id="edge28" class="edge">
<title>Node18&#45;&gt;Node29</title>
<path fill="none" stroke="midnightblue" d="M3367.1,-152.51C3074.83,-148.04 2272.28,-132.88 2010,-98 2007,-97.6 2003.93,-97.12 2000.83,-96.59"/>
<polygon fill="midnightblue" stroke="midnightblue" points="3367.22,-156.01 3377.28,-152.66 3367.33,-149.01 3367.22,-156.01"/>
</g>
<!-- Node31 -->
<g id="node26" class="node">
<title>Node31</title>
<g id="a_node26"><a xlink:href="../../d9/d15/vabstractpiece_8cpp.html" target="_top" xlink:title=" ">
<polygon fill="white" stroke="black" points="2019,-73 2019,-92 2205,-92 2205,-73 2019,-73"/>
<text text-anchor="middle" x="2112" y="-80" font-family="Helvetica,sans-Serif" font-size="10.00">src/libs/vlayout/vabstractpiece.cpp</text>
</a>
</g>
</g>
<!-- Node18&#45;&gt;Node31 -->
<g id="edge29" class="edge">
<title>Node18&#45;&gt;Node31</title>
<path fill="none" stroke="midnightblue" d="M3367.31,-152.73C3149.22,-149.38 2639.82,-137.63 2214,-98 2197.97,-96.51 2180.61,-94.27 2164.83,-92"/>
<polygon fill="midnightblue" stroke="midnightblue" points="3367.43,-156.23 3377.48,-152.88 3367.53,-149.23 3367.43,-156.23"/>
</g>
<!-- Node32 -->
<g id="node27" class="node">
<title>Node32</title>
<g id="a_node27"><a xlink:href="../../db/d65/dialogexporttocsv_8cpp.html" target="_top" xlink:title=" ">
<polygon fill="white" stroke="black" points="2223.5,-67.5 2223.5,-97.5 2350.5,-97.5 2350.5,-67.5 2223.5,-67.5"/>
<text text-anchor="start" x="2231.5" y="-85.5" font-family="Helvetica,sans-Serif" font-size="10.00">src/libs/vmisc/dialogs</text>
<text text-anchor="middle" x="2287" y="-74.5" font-family="Helvetica,sans-Serif" font-size="10.00">/dialogexporttocsv.cpp</text>
</a>
</g>
</g>
<!-- Node18&#45;&gt;Node32 -->
<g id="edge32" class="edge">
<title>Node18&#45;&gt;Node32</title>
<path fill="none" stroke="midnightblue" d="M3367.08,-153.8C3167.48,-152.27 2727.5,-143.48 2360,-98 2356.92,-97.62 2353.78,-97.18 2350.61,-96.7"/>
<polygon fill="midnightblue" stroke="midnightblue" points="3367.24,-157.3 3377.27,-153.87 3367.3,-150.3 3367.24,-157.3"/>
</g>
<!-- Node33 -->
<g id="node28" class="node">
<title>Node33</title>
<g id="a_node28"><a xlink:href="../../d6/d0b/def_8cpp.html" target="_top" xlink:title=" ">
<polygon fill="white" stroke="black" points="2369,-73 2369,-92 2491,-92 2491,-73 2369,-73"/>
<text text-anchor="middle" x="2430" y="-80" font-family="Helvetica,sans-Serif" font-size="10.00">src/libs/vmisc/def.cpp</text>
</a>
</g>
</g>
<!-- Node18&#45;&gt;Node33 -->
<g id="edge33" class="edge">
<title>Node18&#45;&gt;Node33</title>
<path fill="none" stroke="midnightblue" d="M3367.33,-152.97C3187.1,-150.1 2813.26,-139.21 2500,-98 2488.93,-96.54 2476.99,-94.32 2466.16,-92.05"/>
<polygon fill="midnightblue" stroke="midnightblue" points="3367.29,-156.47 3377.34,-153.13 3367.39,-149.47 3367.29,-156.47"/>
</g>
<!-- Node34 -->
<g id="node29" class="node">
<title>Node34</title>
<g id="a_node29"><a xlink:href="../../d0/df6/vabstractapplication_8cpp.html" target="_top" xlink:title=" ">
<polygon fill="white" stroke="black" points="2509,-73 2509,-92 2715,-92 2715,-73 2509,-73"/>
<text text-anchor="middle" x="2612" y="-80" font-family="Helvetica,sans-Serif" font-size="10.00">src/libs/vmisc/vabstractapplication.cpp</text>
</a>
</g>
</g>
<!-- Node18&#45;&gt;Node34 -->
<g id="edge34" class="edge">
<title>Node18&#45;&gt;Node34</title>
<path fill="none" stroke="midnightblue" d="M3367.04,-147.8C3221,-138.99 2952.48,-121.29 2724,-98 2707.42,-96.31 2689.5,-94.14 2672.96,-92"/>
<polygon fill="midnightblue" stroke="midnightblue" points="3367.15,-151.31 3377.34,-148.42 3367.57,-144.32 3367.15,-151.31"/>
</g>
<!-- Node35 -->
<g id="node30" class="node">
<title>Node35</title>
<g id="a_node30"><a xlink:href="../../d4/d4f/pmsystems_8cpp.html" target="_top" xlink:title=" ">
<polygon fill="white" stroke="black" points="2733.5,-67.5 2733.5,-97.5 2840.5,-97.5 2840.5,-67.5 2733.5,-67.5"/>
<text text-anchor="start" x="2741.5" y="-85.5" font-family="Helvetica,sans-Serif" font-size="10.00">src/libs/vpatterndb</text>
<text text-anchor="middle" x="2787" y="-74.5" font-family="Helvetica,sans-Serif" font-size="10.00">/pmsystems.cpp</text>
</a>
</g>
</g>
<!-- Node18&#45;&gt;Node35 -->
<g id="edge35" class="edge">
<title>Node18&#45;&gt;Node35</title>
<path fill="none" stroke="midnightblue" d="M3367.07,-148.96C3241.86,-142.05 3029.49,-127.03 2849,-98 2846.27,-97.56 2843.48,-97.07 2840.68,-96.54"/>
<polygon fill="midnightblue" stroke="midnightblue" points="3367.25,-152.48 3377.42,-149.52 3367.63,-145.49 3367.25,-152.48"/>
</g>
<!-- Node18&#45;&gt;Node36 -->
<g id="edge36" class="edge">
<title>Node18&#45;&gt;Node36</title>
<path fill="none" stroke="midnightblue" d="M3582.76,-153.37C3917.07,-150.99 4933.76,-140.38 5261,-98 5264.01,-97.61 5267.08,-97.14 5270.17,-96.62"/>
<polygon fill="midnightblue" stroke="midnightblue" points="3582.57,-149.87 3572.59,-153.44 3582.62,-156.87 3582.57,-149.87"/>
</g>
<!-- Node18&#45;&gt;Node37 -->
<g id="edge37" class="edge">
<title>Node18&#45;&gt;Node37</title>
<path fill="none" stroke="midnightblue" d="M3582.77,-153.68C3932.6,-152.21 5034.21,-143.95 5387,-98 5389.74,-97.64 5392.54,-97.22 5395.35,-96.74"/>
<polygon fill="midnightblue" stroke="midnightblue" points="3582.62,-150.18 3572.64,-153.73 3582.65,-157.18 3582.62,-150.18"/>
</g>
<!-- Node18&#45;&gt;Node38 -->
<g id="edge38" class="edge">
<title>Node18&#45;&gt;Node38</title>
<path fill="none" stroke="midnightblue" d="M3582.58,-153.91C3947.07,-153.16 5133.66,-146.93 5512,-98 5514.74,-97.65 5517.54,-97.22 5520.35,-96.75"/>
<polygon fill="midnightblue" stroke="midnightblue" points="3582.55,-150.41 3572.56,-153.93 3582.56,-157.41 3582.55,-150.41"/>
</g>
<!-- Node39 -->
<g id="node34" class="node">
<title>Node39</title>
<g id="a_node34"><a xlink:href="../../df/dba/vpiecenode__p_8h.html" target="_top" xlink:title=" ">
<polygon fill="white" stroke="black" points="2858.5,-67.5 2858.5,-97.5 2965.5,-97.5 2965.5,-67.5 2858.5,-67.5"/>
<text text-anchor="start" x="2866.5" y="-85.5" font-family="Helvetica,sans-Serif" font-size="10.00">src/libs/vpatterndb</text>
<text text-anchor="middle" x="2912" y="-74.5" font-family="Helvetica,sans-Serif" font-size="10.00">/vpiecenode_p.h</text>
</a>
</g>
</g>
<!-- Node18&#45;&gt;Node39 -->
<g id="edge39" class="edge">
<title>Node18&#45;&gt;Node39</title>
<path fill="none" stroke="midnightblue" d="M3367.32,-145.53C3265.72,-136.7 3109.37,-120.91 2975,-98 2971.9,-97.47 2968.73,-96.89 2965.53,-96.26"/>
<polygon fill="midnightblue" stroke="midnightblue" points="3367.02,-149.02 3377.28,-146.39 3367.62,-142.05 3367.02,-149.02"/>
</g>
<!-- Node41 -->
<g id="node36" class="node">
<title>Node41</title>
<g id="a_node36"><a xlink:href="../../de/d3e/vtranslatevars_8cpp.html" target="_top" xlink:title=" ">
<polygon fill="white" stroke="black" points="2984,-67.5 2984,-97.5 3094,-97.5 3094,-67.5 2984,-67.5"/>
<text text-anchor="start" x="2992" y="-85.5" font-family="Helvetica,sans-Serif" font-size="10.00">src/libs/vpatterndb</text>
<text text-anchor="middle" x="3039" y="-74.5" font-family="Helvetica,sans-Serif" font-size="10.00">/vtranslatevars.cpp</text>
</a>
</g>
</g>
<!-- Node18&#45;&gt;Node41 -->
<g id="edge41" class="edge">
<title>Node18&#45;&gt;Node41</title>
<path fill="none" stroke="midnightblue" d="M3398.21,-144.12C3322.8,-134.02 3204.6,-117.13 3103,-98 3100.09,-97.45 3097.11,-96.87 3094.1,-96.25"/>
<polygon fill="midnightblue" stroke="midnightblue" points="3398.19,-147.64 3408.56,-145.5 3399.11,-140.71 3398.19,-147.64"/>
</g>
<!-- Node42 -->
<g id="node37" class="node">
<title>Node42</title>
<g id="a_node37"><a xlink:href="../../d3/d4f/mouse__coordinates_8cpp.html" target="_top" xlink:title=" ">
<polygon fill="white" stroke="black" points="3112,-67.5 3112,-97.5 3246,-97.5 3246,-67.5 3112,-67.5"/>
<text text-anchor="start" x="3120" y="-85.5" font-family="Helvetica,sans-Serif" font-size="10.00">src/libs/vwidgets/mouse</text>
<text text-anchor="middle" x="3179" y="-74.5" font-family="Helvetica,sans-Serif" font-size="10.00">_coordinates.cpp</text>
</a>
</g>
</g>
<!-- Node18&#45;&gt;Node42 -->
<g id="edge42" class="edge">
<title>Node18&#45;&gt;Node42</title>
<path fill="none" stroke="midnightblue" d="M3429.46,-143.15C3378.02,-130.9 3294.15,-110.93 3237.8,-97.51"/>
<polygon fill="midnightblue" stroke="midnightblue" points="3428.76,-146.58 3439.3,-145.5 3430.38,-139.77 3428.76,-146.58"/>
</g>
<!-- Node43 -->
<g id="node38" class="node">
<title>Node43</title>
<g id="a_node38"><a xlink:href="../../df/d40/export__format__combobox_8cpp.html" target="_top" xlink:title=" ">
<polygon fill="white" stroke="black" points="3264.5,-67.5 3264.5,-97.5 3397.5,-97.5 3397.5,-67.5 3264.5,-67.5"/>
<text text-anchor="start" x="3272.5" y="-85.5" font-family="Helvetica,sans-Serif" font-size="10.00">src/libs/vwidgets/export</text>
<text text-anchor="middle" x="3331" y="-74.5" font-family="Helvetica,sans-Serif" font-size="10.00">_format_combobox.cpp</text>
</a>
</g>
</g>
<!-- Node18&#45;&gt;Node43 -->
<g id="edge43" class="edge">
<title>Node18&#45;&gt;Node43</title>
<path fill="none" stroke="midnightblue" d="M3448.64,-141.1C3423.44,-128.76 3385.54,-110.2 3359.61,-97.51"/>
<polygon fill="midnightblue" stroke="midnightblue" points="3447.11,-144.24 3457.63,-145.5 3450.19,-137.96 3447.11,-144.24"/>
</g>
<!-- Node44 -->
<g id="node39" class="node">
<title>Node44</title>
<g id="a_node39"><a xlink:href="../../d7/d1b/pen__toolbar_8cpp.html" target="_top" xlink:title=" ">
<polygon fill="white" stroke="black" points="3415.5,-67.5 3415.5,-97.5 3534.5,-97.5 3534.5,-67.5 3415.5,-67.5"/>
<text text-anchor="start" x="3423.5" y="-85.5" font-family="Helvetica,sans-Serif" font-size="10.00">src/libs/vwidgets/pen</text>
<text text-anchor="middle" x="3475" y="-74.5" font-family="Helvetica,sans-Serif" font-size="10.00">_toolbar.cpp</text>
</a>
</g>
</g>
<!-- Node18&#45;&gt;Node44 -->
<g id="edge44" class="edge">
<title>Node18&#45;&gt;Node44</title>
<path fill="none" stroke="midnightblue" d="M3475,-135.24C3475,-123.41 3475,-108.38 3475,-97.58"/>
<polygon fill="midnightblue" stroke="midnightblue" points="3471.5,-135.36 3475,-145.36 3478.5,-135.36 3471.5,-135.36"/>
</g>
<!-- Node45 -->
<g id="node40" class="node">
<title>Node45</title>
<g id="a_node40"><a xlink:href="../../d2/d28/page__format__combobox_8cpp.html" target="_top" xlink:title=" ">
<polygon fill="white" stroke="black" points="3552.5,-67.5 3552.5,-97.5 3683.5,-97.5 3683.5,-67.5 3552.5,-67.5"/>
<text text-anchor="start" x="3560.5" y="-85.5" font-family="Helvetica,sans-Serif" font-size="10.00">src/libs/vwidgets/page</text>
<text text-anchor="middle" x="3618" y="-74.5" font-family="Helvetica,sans-Serif" font-size="10.00">_format_combobox.cpp</text>
</a>
</g>
</g>
<!-- Node18&#45;&gt;Node45 -->
<g id="edge45" class="edge">
<title>Node18&#45;&gt;Node45</title>
<path fill="none" stroke="midnightblue" d="M3501.5,-140.93C3526.53,-128.59 3563.96,-110.14 3589.59,-97.51"/>
<polygon fill="midnightblue" stroke="midnightblue" points="3499.67,-137.93 3492.25,-145.5 3502.77,-144.21 3499.67,-137.93"/>
</g>
<!-- Node46 -->
<g id="node41" class="node">
<title>Node46</title>
<g id="a_node41"><a xlink:href="../../dd/df6/vabstractmainwindow_8cpp.html" target="_top" xlink:title=" ">
<polygon fill="white" stroke="black" points="3701.5,-73 3701.5,-92 3930.5,-92 3930.5,-73 3701.5,-73"/>
<text text-anchor="middle" x="3816" y="-80" font-family="Helvetica,sans-Serif" font-size="10.00">src/libs/vwidgets/vabstractmainwindow.cpp</text>
</a>
</g>
</g>
<!-- Node18&#45;&gt;Node46 -->
<g id="edge46" class="edge">
<title>Node18&#45;&gt;Node46</title>
<path fill="none" stroke="midnightblue" d="M3526.16,-143.42C3593.97,-129.4 3712.29,-104.94 3774.72,-92.03"/>
<polygon fill="midnightblue" stroke="midnightblue" points="3525.22,-140.04 3516.13,-145.5 3526.63,-146.9 3525.22,-140.04"/>
</g>
<!-- Node47 -->
<g id="node42" class="node">
<title>Node47</title>
<g id="a_node42"><a xlink:href="../../d8/d76/scene__rect_8cpp.html" target="_top" xlink:title=" ">
<polygon fill="white" stroke="black" points="3949,-67.5 3949,-97.5 4079,-97.5 4079,-67.5 3949,-67.5"/>
<text text-anchor="start" x="3957" y="-85.5" font-family="Helvetica,sans-Serif" font-size="10.00">src/libs/vwidgets/scene</text>
<text text-anchor="middle" x="4014" y="-74.5" font-family="Helvetica,sans-Serif" font-size="10.00">_rect.cpp</text>
</a>
</g>
</g>
<!-- Node18&#45;&gt;Node47 -->
<g id="edge47" class="edge">
<title>Node18&#45;&gt;Node47</title>
<path fill="none" stroke="midnightblue" d="M3570.83,-144.44C3664.85,-134.59 3812.16,-117.89 3939,-98 3942.14,-97.51 3945.36,-96.98 3948.6,-96.43"/>
<polygon fill="midnightblue" stroke="midnightblue" points="3570.35,-140.97 3560.77,-145.49 3571.08,-147.93 3570.35,-140.97"/>
</g>
<!-- Node48 -->
<g id="node43" class="node">
<title>Node48</title>
<g id="a_node43"><a xlink:href="../../d1/d90/vgrainlineitem_8cpp.html" target="_top" xlink:title=" ">
<polygon fill="white" stroke="black" points="4097.5,-73 4097.5,-92 4290.5,-92 4290.5,-73 4097.5,-73"/>
<text text-anchor="middle" x="4194" y="-80" font-family="Helvetica,sans-Serif" font-size="10.00">src/libs/vwidgets/vgrainlineitem.cpp</text>
</a>
</g>
</g>
<!-- Node18&#45;&gt;Node48 -->
<g id="edge48" class="edge">
<title>Node18&#45;&gt;Node48</title>
<path fill="none" stroke="midnightblue" d="M3582.68,-145.63C3705.22,-135.77 3911.27,-118.15 4088,-98 4103.32,-96.25 4119.84,-94.12 4135.19,-92.02"/>
<polygon fill="midnightblue" stroke="midnightblue" points="3582.24,-142.16 3572.55,-146.45 3582.8,-149.14 3582.24,-142.16"/>
</g>
<!-- Node49 -->
<g id="node44" class="node">
<title>Node49</title>
<g id="a_node44"><a xlink:href="../../de/dec/vgraphicssimpletextitem_8cpp.html" target="_top" xlink:title=" ">
<polygon fill="white" stroke="black" points="4309,-73 4309,-92 4553,-92 4553,-73 4309,-73"/>
<text text-anchor="middle" x="4431" y="-80" font-family="Helvetica,sans-Serif" font-size="10.00">src/libs/vwidgets/vgraphicssimpletextitem.cpp</text>
</a>
</g>
</g>
<!-- Node18&#45;&gt;Node49 -->
<g id="edge49" class="edge">
<title>Node18&#45;&gt;Node49</title>
<path fill="none" stroke="midnightblue" d="M3582.94,-148.1C3740.47,-139.16 4042.55,-120.79 4299,-98 4318.29,-96.29 4339.13,-94.14 4358.43,-92.02"/>
<polygon fill="midnightblue" stroke="midnightblue" points="3582.56,-144.61 3572.77,-148.67 3582.95,-151.6 3582.56,-144.61"/>
</g>
<!-- Node27&#45;&gt;Node28 -->
<g id="edge26" class="edge">
<title>Node27&#45;&gt;Node28</title>
<path fill="none" stroke="midnightblue" d="M1797.28,-58.87C1803.21,-49.46 1809.91,-38.83 1815.12,-30.58"/>
<polygon fill="midnightblue" stroke="midnightblue" points="1794.27,-57.07 1791.9,-67.4 1800.19,-60.81 1794.27,-57.07"/>
</g>
<!-- Node39&#45;&gt;Node40 -->
<g id="edge40" class="edge">
<title>Node39&#45;&gt;Node40</title>
<path fill="none" stroke="midnightblue" d="M2975.91,-67.11C3243.71,-33.54 4018.68,-20.3 4230.17,-17.23"/>
<polygon fill="midnightblue" stroke="midnightblue" points="2975.3,-63.65 2965.83,-68.41 2976.2,-70.6 2975.3,-63.65"/>
</g>
</g>
</svg>
