<?xml version="1.0" encoding="UTF-8" standalone="no"?>
<!DOCTYPE svg PUBLIC "-//W3C//DTD SVG 1.1//EN"
 "http://www.w3.org/Graphics/SVG/1.1/DTD/svg11.dtd">
<!-- Generated by graphviz version 2.43.0 (0)
 -->
<!-- Title: src/libs/ifc/xml/vdomdocument.h Pages: 1 -->
<svg width="3088pt" height="296pt"
 viewBox="0.00 0.00 3088.00 296.00" xmlns="http://www.w3.org/2000/svg" xmlns:xlink="http://www.w3.org/1999/xlink">
<g id="graph0" class="graph" transform="scale(1 1) rotate(0) translate(4 292)">
<title>src/libs/ifc/xml/vdomdocument.h</title>
<polygon fill="white" stroke="transparent" points="-4,4 -4,-292 3084,-292 3084,4 -4,4"/>
<!-- Node1 -->
<g id="node1" class="node">
<title>Node1</title>
<g id="a_node1"><a xlink:title=" ">
<polygon fill="#bfbfbf" stroke="black" points="2068.5,-268.5 2068.5,-287.5 2244.5,-287.5 2244.5,-268.5 2068.5,-268.5"/>
<text text-anchor="middle" x="2156.5" y="-275.5" font-family="Helvetica,sans-Serif" font-size="10.00">src/libs/ifc/xml/vdomdocument.h</text>
</a>
</g>
</g>
<!-- Node2 -->
<g id="node2" class="node">
<title>Node2</title>
<g id="a_node2"><a xlink:href="../../d0/d08/abstract__converter_8cpp.html" target="_top" xlink:title=" ">
<polygon fill="white" stroke="black" points="1602,-134.5 1602,-164.5 1733,-164.5 1733,-134.5 1602,-134.5"/>
<text text-anchor="start" x="1610" y="-152.5" font-family="Helvetica,sans-Serif" font-size="10.00">src/libs/ifc/xml/abstract</text>
<text text-anchor="middle" x="1667.5" y="-141.5" font-family="Helvetica,sans-Serif" font-size="10.00">_converter.cpp</text>
</a>
</g>
</g>
<!-- Node1&#45;&gt;Node2 -->
<g id="edge1" class="edge">
<title>Node1&#45;&gt;Node2</title>
<path fill="none" stroke="midnightblue" d="M2113.5,-265.88C2024.36,-242.82 1819.61,-189.85 1721.65,-164.51"/>
<polygon fill="midnightblue" stroke="midnightblue" points="2112.72,-269.29 2123.27,-268.4 2114.47,-262.51 2112.72,-269.29"/>
</g>
<!-- Node3 -->
<g id="node3" class="node">
<title>Node3</title>
<g id="a_node3"><a xlink:href="../../d0/d89/vabstractpattern_8h.html" target="_top" xlink:title=" ">
<polygon fill="white" stroke="black" points="900,-207 900,-226 1081,-226 1081,-207 900,-207"/>
<text text-anchor="middle" x="990.5" y="-214" font-family="Helvetica,sans-Serif" font-size="10.00">src/libs/ifc/xml/vabstractpattern.h</text>
</a>
</g>
</g>
<!-- Node1&#45;&gt;Node3 -->
<g id="edge2" class="edge">
<title>Node1&#45;&gt;Node3</title>
<path fill="none" stroke="midnightblue" d="M2058.35,-271.99C1835.92,-260.64 1296.08,-233.09 1081.06,-222.12"/>
<polygon fill="midnightblue" stroke="midnightblue" points="2058.22,-275.49 2068.38,-272.5 2058.57,-268.5 2058.22,-275.49"/>
</g>
<!-- Node4 -->
<g id="node4" class="node">
<title>Node4</title>
<g id="a_node4"><a xlink:href="../../de/d7d/vabstractpattern_8cpp.html" target="_top" xlink:title=" ">
<polygon fill="white" stroke="black" points="1620.5,-73 1620.5,-92 1812.5,-92 1812.5,-73 1620.5,-73"/>
<text text-anchor="middle" x="1716.5" y="-80" font-family="Helvetica,sans-Serif" font-size="10.00">src/libs/ifc/xml/vabstractpattern.cpp</text>
</a>
</g>
</g>
<!-- Node1&#45;&gt;Node4 -->
<g id="edge47" class="edge">
<title>Node1&#45;&gt;Node4</title>
<path fill="none" stroke="midnightblue" d="M2058.06,-272.34C1912.13,-263.08 1649.56,-236.68 1593.5,-165 1565.8,-129.59 1633.89,-104.43 1679.45,-92.1"/>
<polygon fill="midnightblue" stroke="midnightblue" points="2058.16,-275.85 2068.36,-272.97 2058.59,-268.86 2058.16,-275.85"/>
</g>
<!-- Node22 -->
<g id="node22" class="node">
<title>Node22</title>
<g id="a_node22"><a xlink:href="../../d0/da1/abstract__converter_8h.html" target="_top" xlink:title=" ">
<polygon fill="white" stroke="black" points="2091,-201.5 2091,-231.5 2222,-231.5 2222,-201.5 2091,-201.5"/>
<text text-anchor="start" x="2099" y="-219.5" font-family="Helvetica,sans-Serif" font-size="10.00">src/libs/ifc/xml/abstract</text>
<text text-anchor="middle" x="2156.5" y="-208.5" font-family="Helvetica,sans-Serif" font-size="10.00">_converter.h</text>
</a>
</g>
</g>
<!-- Node1&#45;&gt;Node22 -->
<g id="edge23" class="edge">
<title>Node1&#45;&gt;Node22</title>
<path fill="none" stroke="midnightblue" d="M2156.5,-258.23C2156.5,-249.59 2156.5,-239.5 2156.5,-231.52"/>
<polygon fill="midnightblue" stroke="midnightblue" points="2153,-258.48 2156.5,-268.48 2160,-258.48 2153,-258.48"/>
</g>
<!-- Node36 -->
<g id="node36" class="node">
<title>Node36</title>
<g id="a_node36"><a xlink:href="../../d7/d49/vdomdocument_8cpp.html" target="_top" xlink:title=" ">
<polygon fill="white" stroke="black" points="2240.5,-207 2240.5,-226 2428.5,-226 2428.5,-207 2240.5,-207"/>
<text text-anchor="middle" x="2334.5" y="-214" font-family="Helvetica,sans-Serif" font-size="10.00">src/libs/ifc/xml/vdomdocument.cpp</text>
</a>
</g>
</g>
<!-- Node1&#45;&gt;Node36 -->
<g id="edge46" class="edge">
<title>Node1&#45;&gt;Node36</title>
<path fill="none" stroke="midnightblue" d="M2191.71,-265.23C2226.31,-253.67 2278.27,-236.3 2309.04,-226.01"/>
<polygon fill="midnightblue" stroke="midnightblue" points="2190.38,-261.99 2182,-268.48 2192.6,-268.62 2190.38,-261.99"/>
</g>
<!-- Node37 -->
<g id="node37" class="node">
<title>Node37</title>
<g id="a_node37"><a xlink:href="../../dc/db7/measurements_8h.html" target="_top" xlink:title=" ">
<polygon fill="white" stroke="black" points="2901,-207 2901,-226 3080,-226 3080,-207 2901,-207"/>
<text text-anchor="middle" x="2990.5" y="-214" font-family="Helvetica,sans-Serif" font-size="10.00">src/libs/vformat/measurements.h</text>
</a>
</g>
</g>
<!-- Node1&#45;&gt;Node37 -->
<g id="edge48" class="edge">
<title>Node1&#45;&gt;Node37</title>
<path fill="none" stroke="midnightblue" d="M2254.69,-270.49C2381.98,-261.99 2610.86,-246.48 2806.5,-232 2837.18,-229.73 2870.72,-227.12 2900.67,-224.75"/>
<polygon fill="midnightblue" stroke="midnightblue" points="2254.31,-267.01 2244.57,-271.17 2254.78,-274 2254.31,-267.01"/>
</g>
<!-- Node38 -->
<g id="node38" class="node">
<title>Node38</title>
<g id="a_node38"><a xlink:href="../../d2/d8a/vlabeltemplate_8h.html" target="_top" xlink:title=" ">
<polygon fill="white" stroke="black" points="2618,-207 2618,-226 2797,-226 2797,-207 2618,-207"/>
<text text-anchor="middle" x="2707.5" y="-214" font-family="Helvetica,sans-Serif" font-size="10.00">src/libs/vformat/vlabeltemplate.h</text>
</a>
</g>
</g>
<!-- Node1&#45;&gt;Node38 -->
<g id="edge50" class="edge">
<title>Node1&#45;&gt;Node38</title>
<path fill="none" stroke="midnightblue" d="M2245.49,-267.39C2351.6,-255.93 2527.3,-236.96 2628.7,-226.01"/>
<polygon fill="midnightblue" stroke="midnightblue" points="2245.01,-263.92 2235.44,-268.48 2245.76,-270.88 2245.01,-263.92"/>
</g>
<!-- Node3&#45;&gt;Node4 -->
<g id="edge3" class="edge">
<title>Node3&#45;&gt;Node4</title>
<path fill="none" stroke="midnightblue" d="M1073.59,-205.75C1146.75,-196.72 1256.05,-182.11 1350.5,-165 1473.49,-142.72 1617.87,-108.01 1682.37,-92.06"/>
<polygon fill="midnightblue" stroke="midnightblue" points="1073.01,-202.3 1063.52,-206.99 1073.87,-209.25 1073.01,-202.3"/>
</g>
<!-- Node5 -->
<g id="node5" class="node">
<title>Node5</title>
<g id="a_node5"><a xlink:href="../../d6/de0/vlayoutpiece_8h.html" target="_top" xlink:title=" ">
<polygon fill="white" stroke="black" points="823.5,-140 823.5,-159 989.5,-159 989.5,-140 823.5,-140"/>
<text text-anchor="middle" x="906.5" y="-147" font-family="Helvetica,sans-Serif" font-size="10.00">src/libs/vlayout/vlayoutpiece.h</text>
</a>
</g>
</g>
<!-- Node3&#45;&gt;Node5 -->
<g id="edge4" class="edge">
<title>Node3&#45;&gt;Node5</title>
<path fill="none" stroke="midnightblue" d="M971.2,-200.57C954.62,-187.74 931.29,-169.69 917.65,-159.13"/>
<polygon fill="midnightblue" stroke="midnightblue" points="969.12,-203.38 979.17,-206.73 973.4,-197.85 969.12,-203.38"/>
</g>
<!-- Node15 -->
<g id="node15" class="node">
<title>Node15</title>
<g id="a_node15"><a xlink:href="../../d8/d70/vtextmanager_8cpp.html" target="_top" xlink:title=" ">
<polygon fill="white" stroke="black" points="1159.5,-140 1159.5,-159 1341.5,-159 1341.5,-140 1159.5,-140"/>
<text text-anchor="middle" x="1250.5" y="-147" font-family="Helvetica,sans-Serif" font-size="10.00">src/libs/vlayout/vtextmanager.cpp</text>
</a>
</g>
</g>
<!-- Node3&#45;&gt;Node15 -->
<g id="edge16" class="edge">
<title>Node3&#45;&gt;Node15</title>
<path fill="none" stroke="midnightblue" d="M1034.56,-204.48C1085.85,-191.66 1169.46,-170.76 1216.17,-159.08"/>
<polygon fill="midnightblue" stroke="midnightblue" points="1033.61,-201.11 1024.76,-206.94 1035.31,-207.91 1033.61,-201.11"/>
</g>
<!-- Node16 -->
<g id="node16" class="node">
<title>Node16</title>
<g id="a_node16"><a xlink:href="../../d0/da5/export__format__combobox_8h.html" target="_top" xlink:title=" ">
<polygon fill="white" stroke="black" points="1008,-134.5 1008,-164.5 1141,-164.5 1141,-134.5 1008,-134.5"/>
<text text-anchor="start" x="1016" y="-152.5" font-family="Helvetica,sans-Serif" font-size="10.00">src/libs/vwidgets/export</text>
<text text-anchor="middle" x="1074.5" y="-141.5" font-family="Helvetica,sans-Serif" font-size="10.00">_format_combobox.h</text>
</a>
</g>
</g>
<!-- Node3&#45;&gt;Node16 -->
<g id="edge17" class="edge">
<title>Node3&#45;&gt;Node16</title>
<path fill="none" stroke="midnightblue" d="M1009.83,-200.54C1023.81,-189.73 1042.58,-175.2 1056.29,-164.59"/>
<polygon fill="midnightblue" stroke="midnightblue" points="1007.6,-197.85 1001.83,-206.73 1011.88,-203.38 1007.6,-197.85"/>
</g>
<!-- Node18 -->
<g id="node18" class="node">
<title>Node18</title>
<g id="a_node18"><a xlink:href="../../d7/df4/group__tablewidgetitem_8cpp.html" target="_top" xlink:title=" ">
<polygon fill="white" stroke="black" points="327,-134.5 327,-164.5 456,-164.5 456,-134.5 327,-134.5"/>
<text text-anchor="start" x="335" y="-152.5" font-family="Helvetica,sans-Serif" font-size="10.00">src/libs/vwidgets/group</text>
<text text-anchor="middle" x="391.5" y="-141.5" font-family="Helvetica,sans-Serif" font-size="10.00">_tablewidgetitem.cpp</text>
</a>
</g>
</g>
<!-- Node3&#45;&gt;Node18 -->
<g id="edge19" class="edge">
<title>Node3&#45;&gt;Node18</title>
<path fill="none" stroke="midnightblue" d="M889.55,-208.73C783.58,-200.93 612.31,-186.39 465.5,-165 462.39,-164.55 459.21,-164.05 456.01,-163.53"/>
<polygon fill="midnightblue" stroke="midnightblue" points="889.37,-212.22 899.6,-209.46 889.88,-205.24 889.37,-212.22"/>
</g>
<!-- Node19 -->
<g id="node19" class="node">
<title>Node19</title>
<g id="a_node19"><a xlink:href="../../d3/d86/page__format__combobox_8h.html" target="_top" xlink:title=" ">
<polygon fill="white" stroke="black" points="474,-134.5 474,-164.5 599,-164.5 599,-134.5 474,-134.5"/>
<text text-anchor="start" x="482" y="-152.5" font-family="Helvetica,sans-Serif" font-size="10.00">src/libs/vwidgets/page</text>
<text text-anchor="middle" x="536.5" y="-141.5" font-family="Helvetica,sans-Serif" font-size="10.00">_format_combobox.h</text>
</a>
</g>
</g>
<!-- Node3&#45;&gt;Node19 -->
<g id="edge20" class="edge">
<title>Node3&#45;&gt;Node19</title>
<path fill="none" stroke="midnightblue" d="M904.33,-205.79C826.74,-196.64 709.7,-181.86 608.5,-165 605.48,-164.5 602.4,-163.96 599.28,-163.4"/>
<polygon fill="midnightblue" stroke="midnightblue" points="904.2,-209.3 914.54,-206.98 905.01,-202.34 904.2,-209.3"/>
</g>
<!-- Node21 -->
<g id="node21" class="node">
<title>Node21</title>
<g id="a_node21"><a xlink:href="../../de/d22/vsimplecurve_8cpp.html" target="_top" xlink:title=" ">
<polygon fill="white" stroke="black" points="617.5,-140 617.5,-159 805.5,-159 805.5,-140 617.5,-140"/>
<text text-anchor="middle" x="711.5" y="-147" font-family="Helvetica,sans-Serif" font-size="10.00">src/libs/vwidgets/vsimplecurve.cpp</text>
</a>
</g>
</g>
<!-- Node3&#45;&gt;Node21 -->
<g id="edge22" class="edge">
<title>Node3&#45;&gt;Node21</title>
<path fill="none" stroke="midnightblue" d="M943.9,-204.64C888.93,-191.84 798.67,-170.81 748.34,-159.08"/>
<polygon fill="midnightblue" stroke="midnightblue" points="943.21,-208.08 953.74,-206.94 944.79,-201.26 943.21,-208.08"/>
</g>
<!-- Node6 -->
<g id="node6" class="node">
<title>Node6</title>
<g id="a_node6"><a xlink:href="../../dd/d66/vdxfengine_8cpp.html" target="_top" xlink:title=" ">
<polygon fill="white" stroke="black" points="745.5,-73 745.5,-92 899.5,-92 899.5,-73 745.5,-73"/>
<text text-anchor="middle" x="822.5" y="-80" font-family="Helvetica,sans-Serif" font-size="10.00">src/libs/vdxf/vdxfengine.cpp</text>
</a>
</g>
</g>
<!-- Node5&#45;&gt;Node6 -->
<g id="edge5" class="edge">
<title>Node5&#45;&gt;Node6</title>
<path fill="none" stroke="midnightblue" d="M887.2,-133.57C870.62,-120.74 847.29,-102.69 833.65,-92.13"/>
<polygon fill="midnightblue" stroke="midnightblue" points="885.12,-136.38 895.17,-139.73 889.4,-130.85 885.12,-136.38"/>
</g>
<!-- Node7 -->
<g id="node7" class="node">
<title>Node7</title>
<g id="a_node7"><a xlink:href="../../de/da8/vbank_8cpp.html" target="_top" xlink:title=" ">
<polygon fill="white" stroke="black" points="917.5,-73 917.5,-92 1061.5,-92 1061.5,-73 917.5,-73"/>
<text text-anchor="middle" x="989.5" y="-80" font-family="Helvetica,sans-Serif" font-size="10.00">src/libs/vlayout/vbank.cpp</text>
</a>
</g>
</g>
<!-- Node5&#45;&gt;Node7 -->
<g id="edge6" class="edge">
<title>Node5&#45;&gt;Node7</title>
<path fill="none" stroke="midnightblue" d="M925.57,-133.57C941.95,-120.74 965,-102.69 978.48,-92.13"/>
<polygon fill="midnightblue" stroke="midnightblue" points="923.41,-130.81 917.69,-139.73 927.72,-136.32 923.41,-130.81"/>
</g>
<!-- Node8 -->
<g id="node8" class="node">
<title>Node8</title>
<g id="a_node8"><a xlink:href="../../df/d5d/vcontour_8cpp.html" target="_top" xlink:title=" ">
<polygon fill="white" stroke="black" points="1079.5,-73 1079.5,-92 1235.5,-92 1235.5,-73 1079.5,-73"/>
<text text-anchor="middle" x="1157.5" y="-80" font-family="Helvetica,sans-Serif" font-size="10.00">src/libs/vlayout/vcontour.cpp</text>
</a>
</g>
</g>
<!-- Node5&#45;&gt;Node8 -->
<g id="edge7" class="edge">
<title>Node5&#45;&gt;Node8</title>
<path fill="none" stroke="midnightblue" d="M949.35,-137.4C998.88,-124.58 1079.36,-103.74 1124.35,-92.08"/>
<polygon fill="midnightblue" stroke="midnightblue" points="948.38,-134.04 939.57,-139.94 950.13,-140.82 948.38,-134.04"/>
</g>
<!-- Node9 -->
<g id="node9" class="node">
<title>Node9</title>
<g id="a_node9"><a xlink:href="../../d3/d39/vlayoutgenerator_8cpp.html" target="_top" xlink:title=" ">
<polygon fill="white" stroke="black" points="1254,-73 1254,-92 1451,-92 1451,-73 1254,-73"/>
<text text-anchor="middle" x="1352.5" y="-80" font-family="Helvetica,sans-Serif" font-size="10.00">src/libs/vlayout/vlayoutgenerator.cpp</text>
</a>
</g>
</g>
<!-- Node5&#45;&gt;Node9 -->
<g id="edge8" class="edge">
<title>Node5&#45;&gt;Node9</title>
<path fill="none" stroke="midnightblue" d="M970.57,-138.4C980.26,-136.91 990.14,-135.4 999.5,-134 1101.75,-118.72 1220.82,-101.88 1291.25,-92.02"/>
<polygon fill="midnightblue" stroke="midnightblue" points="969.92,-134.96 960.58,-139.95 971,-141.88 969.92,-134.96"/>
</g>
<!-- Node10 -->
<g id="node10" class="node">
<title>Node10</title>
<g id="a_node10"><a xlink:href="../../d2/d2d/vlayoutpaper__p_8h.html" target="_top" xlink:title=" ">
<polygon fill="white" stroke="black" points="149,-73 149,-92 328,-92 328,-73 149,-73"/>
<text text-anchor="middle" x="238.5" y="-80" font-family="Helvetica,sans-Serif" font-size="10.00">src/libs/vlayout/vlayoutpaper_p.h</text>
</a>
</g>
</g>
<!-- Node5&#45;&gt;Node10 -->
<g id="edge9" class="edge">
<title>Node5&#45;&gt;Node10</title>
<path fill="none" stroke="midnightblue" d="M846.8,-138.38C836.07,-136.76 824.97,-135.22 814.5,-134 605.53,-109.6 551.68,-120.54 342.5,-98 327,-96.33 310.26,-94.16 294.82,-92.01"/>
<polygon fill="midnightblue" stroke="midnightblue" points="846.53,-141.88 856.94,-139.94 847.59,-134.96 846.53,-141.88"/>
</g>
<!-- Node11 -->
<g id="node11" class="node">
<title>Node11</title>
<g id="a_node11"><a xlink:href="../../d1/dd1/vlayoutpaper_8cpp.html" target="_top" xlink:title=" ">
<polygon fill="white" stroke="black" points="267.5,-6 267.5,-25 445.5,-25 445.5,-6 267.5,-6"/>
<text text-anchor="middle" x="356.5" y="-13" font-family="Helvetica,sans-Serif" font-size="10.00">src/libs/vlayout/vlayoutpaper.cpp</text>
</a>
</g>
</g>
<!-- Node5&#45;&gt;Node11 -->
<g id="edge11" class="edge">
<title>Node5&#45;&gt;Node11</title>
<path fill="none" stroke="midnightblue" d="M846.79,-138.43C836.06,-136.81 824.96,-135.25 814.5,-134 765.91,-128.19 412.56,-129.97 375.5,-98 354.05,-79.49 354.25,-41.89 355.57,-25.02"/>
<polygon fill="midnightblue" stroke="midnightblue" points="846.52,-141.93 856.94,-140 847.59,-135.01 846.52,-141.93"/>
</g>
<!-- Node12 -->
<g id="node12" class="node">
<title>Node12</title>
<g id="a_node12"><a xlink:href="../../dd/d70/vlayoutpiece_8cpp.html" target="_top" xlink:title=" ">
<polygon fill="white" stroke="black" points="384,-73 384,-92 561,-92 561,-73 384,-73"/>
<text text-anchor="middle" x="472.5" y="-80" font-family="Helvetica,sans-Serif" font-size="10.00">src/libs/vlayout/vlayoutpiece.cpp</text>
</a>
</g>
</g>
<!-- Node5&#45;&gt;Node12 -->
<g id="edge12" class="edge">
<title>Node5&#45;&gt;Node12</title>
<path fill="none" stroke="midnightblue" d="M843.11,-138.43C833.53,-136.93 823.75,-135.41 814.5,-134 706.14,-117.47 678.94,-114.02 570.5,-98 557.4,-96.06 543.31,-93.98 530.02,-92.01"/>
<polygon fill="midnightblue" stroke="midnightblue" points="842.58,-141.88 853,-139.98 843.66,-134.97 842.58,-141.88"/>
</g>
<!-- Node13 -->
<g id="node13" class="node">
<title>Node13</title>
<g id="a_node13"><a xlink:href="../../db/d5c/vposition_8h.html" target="_top" xlink:title=" ">
<polygon fill="white" stroke="black" points="579.5,-73 579.5,-92 727.5,-92 727.5,-73 579.5,-73"/>
<text text-anchor="middle" x="653.5" y="-80" font-family="Helvetica,sans-Serif" font-size="10.00">src/libs/vlayout/vposition.h</text>
</a>
</g>
</g>
<!-- Node5&#45;&gt;Node13 -->
<g id="edge13" class="edge">
<title>Node5&#45;&gt;Node13</title>
<path fill="none" stroke="midnightblue" d="M863.31,-137.4C813.38,-124.58 732.27,-103.74 686.91,-92.08"/>
<polygon fill="midnightblue" stroke="midnightblue" points="862.61,-140.84 873.16,-139.94 864.35,-134.06 862.61,-140.84"/>
</g>
<!-- Node10&#45;&gt;Node11 -->
<g id="edge10" class="edge">
<title>Node10&#45;&gt;Node11</title>
<path fill="none" stroke="midnightblue" d="M263.39,-67.79C286.78,-54.9 321.06,-36.02 340.84,-25.13"/>
<polygon fill="midnightblue" stroke="midnightblue" points="261.48,-64.84 254.41,-72.73 264.86,-70.97 261.48,-64.84"/>
</g>
<!-- Node13&#45;&gt;Node11 -->
<g id="edge14" class="edge">
<title>Node13&#45;&gt;Node11</title>
<path fill="none" stroke="midnightblue" d="M604.26,-70.72C545.78,-57.92 449.41,-36.83 395.72,-25.08"/>
<polygon fill="midnightblue" stroke="midnightblue" points="603.85,-74.22 614.37,-72.94 605.35,-67.38 603.85,-74.22"/>
</g>
<!-- Node14 -->
<g id="node14" class="node">
<title>Node14</title>
<g id="a_node14"><a xlink:href="../../df/d76/vposition_8cpp.html" target="_top" xlink:title=" ">
<polygon fill="white" stroke="black" points="574,-6 574,-25 733,-25 733,-6 574,-6"/>
<text text-anchor="middle" x="653.5" y="-13" font-family="Helvetica,sans-Serif" font-size="10.00">src/libs/vlayout/vposition.cpp</text>
</a>
</g>
</g>
<!-- Node13&#45;&gt;Node14 -->
<g id="edge15" class="edge">
<title>Node13&#45;&gt;Node14</title>
<path fill="none" stroke="midnightblue" d="M653.5,-62.54C653.5,-50.17 653.5,-34.62 653.5,-25.13"/>
<polygon fill="midnightblue" stroke="midnightblue" points="650,-62.73 653.5,-72.73 657,-62.73 650,-62.73"/>
</g>
<!-- Node17 -->
<g id="node17" class="node">
<title>Node17</title>
<g id="a_node17"><a xlink:href="../../df/d40/export__format__combobox_8cpp.html" target="_top" xlink:title=" ">
<polygon fill="white" stroke="black" points="1469,-67.5 1469,-97.5 1602,-97.5 1602,-67.5 1469,-67.5"/>
<text text-anchor="start" x="1477" y="-85.5" font-family="Helvetica,sans-Serif" font-size="10.00">src/libs/vwidgets/export</text>
<text text-anchor="middle" x="1535.5" y="-74.5" font-family="Helvetica,sans-Serif" font-size="10.00">_format_combobox.cpp</text>
</a>
</g>
</g>
<!-- Node16&#45;&gt;Node17 -->
<g id="edge18" class="edge">
<title>Node16&#45;&gt;Node17</title>
<path fill="none" stroke="midnightblue" d="M1151.3,-133.96C1289.34,-113.26 1326.64,-118.68 1460.5,-98 1463.25,-97.57 1466.06,-97.12 1468.89,-96.65"/>
<polygon fill="midnightblue" stroke="midnightblue" points="1150.54,-130.53 1141.18,-135.49 1151.59,-137.45 1150.54,-130.53"/>
</g>
<!-- Node20 -->
<g id="node20" class="node">
<title>Node20</title>
<g id="a_node20"><a xlink:href="../../d2/d28/page__format__combobox_8cpp.html" target="_top" xlink:title=" ">
<polygon fill="white" stroke="black" points="0,-67.5 0,-97.5 131,-97.5 131,-67.5 0,-67.5"/>
<text text-anchor="start" x="8" y="-85.5" font-family="Helvetica,sans-Serif" font-size="10.00">src/libs/vwidgets/page</text>
<text text-anchor="middle" x="65.5" y="-74.5" font-family="Helvetica,sans-Serif" font-size="10.00">_format_combobox.cpp</text>
</a>
</g>
</g>
<!-- Node19&#45;&gt;Node20 -->
<g id="edge21" class="edge">
<title>Node19&#45;&gt;Node20</title>
<path fill="none" stroke="midnightblue" d="M463.74,-133.81C319.74,-111.77 280.36,-119.54 139.5,-98 136.78,-97.58 134.01,-97.14 131.22,-96.67"/>
<polygon fill="midnightblue" stroke="midnightblue" points="463.42,-137.3 473.84,-135.38 464.49,-130.39 463.42,-137.3"/>
</g>
<!-- Node22&#45;&gt;Node2 -->
<g id="edge38" class="edge">
<title>Node22&#45;&gt;Node2</title>
<path fill="none" stroke="midnightblue" d="M2080.57,-207.84C1997.37,-199.08 1860.08,-183.52 1742.5,-165 1739.49,-164.53 1736.41,-164.02 1733.3,-163.49"/>
<polygon fill="midnightblue" stroke="midnightblue" points="2080.39,-211.34 2090.7,-208.9 2081.12,-204.38 2080.39,-211.34"/>
</g>
<!-- Node23 -->
<g id="node23" class="node">
<title>Node23</title>
<g id="a_node23"><a xlink:href="../../de/dec/abstract__m__converter_8cpp.html" target="_top" xlink:title=" ">
<polygon fill="white" stroke="black" points="2047,-67.5 2047,-97.5 2178,-97.5 2178,-67.5 2047,-67.5"/>
<text text-anchor="start" x="2055" y="-85.5" font-family="Helvetica,sans-Serif" font-size="10.00">src/libs/ifc/xml/abstract</text>
<text text-anchor="middle" x="2112.5" y="-74.5" font-family="Helvetica,sans-Serif" font-size="10.00">_m_converter.cpp</text>
</a>
</g>
</g>
<!-- Node22&#45;&gt;Node23 -->
<g id="edge24" class="edge">
<title>Node22&#45;&gt;Node23</title>
<path fill="none" stroke="midnightblue" d="M2158.67,-191.42C2159.3,-174.77 2158.41,-152.4 2151.5,-134 2146.28,-120.1 2135.84,-106.92 2127.07,-97.51"/>
<polygon fill="midnightblue" stroke="midnightblue" points="2155.17,-191.24 2158.08,-201.43 2162.16,-191.65 2155.17,-191.24"/>
</g>
<!-- Node24 -->
<g id="node24" class="node">
<title>Node24</title>
<g id="a_node24"><a xlink:href="../../da/d2c/abstract__m__converter_8h.html" target="_top" xlink:title=" ">
<polygon fill="white" stroke="black" points="2204,-134.5 2204,-164.5 2335,-164.5 2335,-134.5 2204,-134.5"/>
<text text-anchor="start" x="2212" y="-152.5" font-family="Helvetica,sans-Serif" font-size="10.00">src/libs/ifc/xml/abstract</text>
<text text-anchor="middle" x="2269.5" y="-141.5" font-family="Helvetica,sans-Serif" font-size="10.00">_m_converter.h</text>
</a>
</g>
</g>
<!-- Node22&#45;&gt;Node24 -->
<g id="edge25" class="edge">
<title>Node22&#45;&gt;Node24</title>
<path fill="none" stroke="midnightblue" d="M2189.89,-196.3C2207.57,-186.12 2228.9,-173.85 2245.03,-164.58"/>
<polygon fill="midnightblue" stroke="midnightblue" points="2187.94,-193.38 2181.02,-201.4 2191.43,-199.44 2187.94,-193.38"/>
</g>
<!-- Node26 -->
<g id="node26" class="node">
<title>Node26</title>
<g id="a_node26"><a xlink:href="../../d0/d93/individual__size__converter_8h.html" target="_top" xlink:title=" ">
<polygon fill="white" stroke="black" points="2407,-67.5 2407,-97.5 2546,-97.5 2546,-67.5 2407,-67.5"/>
<text text-anchor="start" x="2415" y="-85.5" font-family="Helvetica,sans-Serif" font-size="10.00">src/libs/ifc/xml/individual</text>
<text text-anchor="middle" x="2476.5" y="-74.5" font-family="Helvetica,sans-Serif" font-size="10.00">_size_converter.h</text>
</a>
</g>
</g>
<!-- Node22&#45;&gt;Node26 -->
<g id="edge36" class="edge">
<title>Node22&#45;&gt;Node26</title>
<path fill="none" stroke="midnightblue" d="M2231.87,-200.01C2280.34,-189.47 2338.42,-175.56 2361.5,-165 2400.22,-147.29 2439.43,-116 2460.58,-97.78"/>
<polygon fill="midnightblue" stroke="midnightblue" points="2231.04,-196.61 2222,-202.14 2232.52,-203.46 2231.04,-196.61"/>
</g>
<!-- Node28 -->
<g id="node28" class="node">
<title>Node28</title>
<g id="a_node28"><a xlink:href="../../d5/d4c/multi__size__converter_8h.html" target="_top" xlink:title=" ">
<polygon fill="white" stroke="black" points="2272.5,-67.5 2272.5,-97.5 2388.5,-97.5 2388.5,-67.5 2272.5,-67.5"/>
<text text-anchor="start" x="2280.5" y="-85.5" font-family="Helvetica,sans-Serif" font-size="10.00">src/libs/ifc/xml/multi</text>
<text text-anchor="middle" x="2330.5" y="-74.5" font-family="Helvetica,sans-Serif" font-size="10.00">_size_converter.h</text>
</a>
</g>
</g>
<!-- Node22&#45;&gt;Node28 -->
<g id="edge37" class="edge">
<title>Node22&#45;&gt;Node28</title>
<path fill="none" stroke="midnightblue" d="M2232.05,-199.76C2281.12,-188.77 2337.26,-174.44 2344.5,-165 2359.53,-145.4 2348.04,-115.35 2338.89,-97.74"/>
<polygon fill="midnightblue" stroke="midnightblue" points="2231.03,-196.4 2222.03,-201.98 2232.55,-203.23 2231.03,-196.4"/>
</g>
<!-- Node30 -->
<g id="node30" class="node">
<title>Node30</title>
<g id="a_node30"><a xlink:href="../../d4/d90/fvupdater_8cpp.html" target="_top" xlink:title=" ">
<polygon fill="white" stroke="black" points="1956,-140 1956,-159 2109,-159 2109,-140 1956,-140"/>
<text text-anchor="middle" x="2032.5" y="-147" font-family="Helvetica,sans-Serif" font-size="10.00">src/libs/fervor/fvupdater.cpp</text>
</a>
</g>
</g>
<!-- Node22&#45;&gt;Node30 -->
<g id="edge35" class="edge">
<title>Node22&#45;&gt;Node30</title>
<path fill="none" stroke="midnightblue" d="M2120.52,-196.64C2096.79,-184.2 2066.86,-168.51 2048.73,-159.01"/>
<polygon fill="midnightblue" stroke="midnightblue" points="2119.11,-199.85 2129.59,-201.4 2122.36,-193.65 2119.11,-199.85"/>
</g>
<!-- Node31 -->
<g id="node31" class="node">
<title>Node31</title>
<g id="a_node31"><a xlink:href="../../d5/d35/vlabeltemplateconverter_8h.html" target="_top" xlink:title=" ">
<polygon fill="white" stroke="black" points="2569.5,-140 2569.5,-159 2789.5,-159 2789.5,-140 2569.5,-140"/>
<text text-anchor="middle" x="2679.5" y="-147" font-family="Helvetica,sans-Serif" font-size="10.00">src/libs/ifc/xml/vlabeltemplateconverter.h</text>
</a>
</g>
</g>
<!-- Node22&#45;&gt;Node31 -->
<g id="edge39" class="edge">
<title>Node22&#45;&gt;Node31</title>
<path fill="none" stroke="midnightblue" d="M2232.26,-200.96C2359.9,-181.72 2495.81,-167.48 2584.39,-159.03"/>
<polygon fill="midnightblue" stroke="midnightblue" points="2231.66,-197.51 2222.3,-202.47 2232.71,-204.43 2231.66,-197.51"/>
</g>
<!-- Node34 -->
<g id="node34" class="node">
<title>Node34</title>
<g id="a_node34"><a xlink:href="../../df/d2f/vpatternconverter_8h.html" target="_top" xlink:title=" ">
<polygon fill="white" stroke="black" points="1751,-140 1751,-159 1938,-159 1938,-140 1751,-140"/>
<text text-anchor="middle" x="1844.5" y="-147" font-family="Helvetica,sans-Serif" font-size="10.00">src/libs/ifc/xml/vpatternconverter.h</text>
</a>
</g>
</g>
<!-- Node22&#45;&gt;Node34 -->
<g id="edge42" class="edge">
<title>Node22&#45;&gt;Node34</title>
<path fill="none" stroke="midnightblue" d="M2080.67,-199.7C2019.18,-186.89 1934.88,-169.33 1885.4,-159.02"/>
<polygon fill="midnightblue" stroke="midnightblue" points="2080.21,-203.18 2090.71,-201.79 2081.64,-196.33 2080.21,-203.18"/>
</g>
<!-- Node35 -->
<g id="node35" class="node">
<title>Node35</title>
<g id="a_node35"><a xlink:href="../../d5/d2c/vpatternconverter_8cpp.html" target="_top" xlink:title=" ">
<polygon fill="white" stroke="black" points="1830.5,-73 1830.5,-92 2028.5,-92 2028.5,-73 1830.5,-73"/>
<text text-anchor="middle" x="1929.5" y="-80" font-family="Helvetica,sans-Serif" font-size="10.00">src/libs/ifc/xml/vpatternconverter.cpp</text>
</a>
</g>
</g>
<!-- Node22&#45;&gt;Node35 -->
<g id="edge45" class="edge">
<title>Node22&#45;&gt;Node35</title>
<path fill="none" stroke="midnightblue" d="M2151.26,-191.77C2146,-173.42 2136.08,-148.74 2118.5,-134 2097.62,-116.49 2028.63,-101.08 1980.06,-92.03"/>
<polygon fill="midnightblue" stroke="midnightblue" points="2147.88,-192.66 2153.78,-201.46 2154.65,-190.9 2147.88,-192.66"/>
</g>
<!-- Node24&#45;&gt;Node23 -->
<g id="edge26" class="edge">
<title>Node24&#45;&gt;Node23</title>
<path fill="none" stroke="midnightblue" d="M2226.13,-130.54C2201.01,-120.14 2169.84,-107.24 2146.5,-97.58"/>
<polygon fill="midnightblue" stroke="midnightblue" points="2224.86,-133.8 2235.43,-134.4 2227.53,-127.34 2224.86,-133.8"/>
</g>
<!-- Node25 -->
<g id="node25" class="node">
<title>Node25</title>
<g id="a_node25"><a xlink:href="../../d5/d6e/individual__size__converter_8cpp.html" target="_top" xlink:title=" ">
<polygon fill="white" stroke="black" points="2283,-0.5 2283,-30.5 2422,-30.5 2422,-0.5 2283,-0.5"/>
<text text-anchor="start" x="2291" y="-18.5" font-family="Helvetica,sans-Serif" font-size="10.00">src/libs/ifc/xml/individual</text>
<text text-anchor="middle" x="2352.5" y="-7.5" font-family="Helvetica,sans-Serif" font-size="10.00">_size_converter.cpp</text>
</a>
</g>
</g>
<!-- Node24&#45;&gt;Node25 -->
<g id="edge27" class="edge">
<title>Node24&#45;&gt;Node25</title>
<path fill="none" stroke="midnightblue" d="M2260.92,-124.62C2256.3,-107.45 2253.39,-84.36 2263.5,-67 2273.33,-50.11 2291.15,-38.41 2308.27,-30.56"/>
<polygon fill="midnightblue" stroke="midnightblue" points="2257.65,-125.9 2263.92,-134.45 2264.35,-123.86 2257.65,-125.9"/>
</g>
<!-- Node24&#45;&gt;Node26 -->
<g id="edge28" class="edge">
<title>Node24&#45;&gt;Node26</title>
<path fill="none" stroke="midnightblue" d="M2323.82,-131.44C2357.37,-120.91 2399.91,-107.55 2431.56,-97.61"/>
<polygon fill="midnightblue" stroke="midnightblue" points="2322.65,-128.14 2314.16,-134.48 2324.75,-134.82 2322.65,-128.14"/>
</g>
<!-- Node24&#45;&gt;Node28 -->
<g id="edge31" class="edge">
<title>Node24&#45;&gt;Node28</title>
<path fill="none" stroke="midnightblue" d="M2289.65,-127.02C2298.74,-117.34 2309.22,-106.17 2317.29,-97.58"/>
<polygon fill="midnightblue" stroke="midnightblue" points="2287.03,-124.71 2282.74,-134.4 2292.13,-129.5 2287.03,-124.71"/>
</g>
<!-- Node29 -->
<g id="node29" class="node">
<title>Node29</title>
<g id="a_node29"><a xlink:href="../../d9/d94/multi__size__converter_8cpp.html" target="_top" xlink:title=" ">
<polygon fill="white" stroke="black" points="2148.5,-0.5 2148.5,-30.5 2264.5,-30.5 2264.5,-0.5 2148.5,-0.5"/>
<text text-anchor="start" x="2156.5" y="-18.5" font-family="Helvetica,sans-Serif" font-size="10.00">src/libs/ifc/xml/multi</text>
<text text-anchor="middle" x="2206.5" y="-7.5" font-family="Helvetica,sans-Serif" font-size="10.00">_size_converter.cpp</text>
</a>
</g>
</g>
<!-- Node24&#45;&gt;Node29 -->
<g id="edge34" class="edge">
<title>Node24&#45;&gt;Node29</title>
<path fill="none" stroke="midnightblue" d="M2249.72,-126.59C2242.87,-118.12 2235.64,-108.06 2230.5,-98 2219.17,-75.8 2212.34,-47.39 2209,-30.65"/>
<polygon fill="midnightblue" stroke="midnightblue" points="2247.22,-129.06 2256.34,-134.46 2252.58,-124.55 2247.22,-129.06"/>
</g>
<!-- Node26&#45;&gt;Node25 -->
<g id="edge29" class="edge">
<title>Node26&#45;&gt;Node25</title>
<path fill="none" stroke="midnightblue" d="M2440.66,-62.71C2421.11,-52.46 2397.3,-39.98 2379.35,-30.58"/>
<polygon fill="midnightblue" stroke="midnightblue" points="2439.11,-65.85 2449.59,-67.4 2442.36,-59.65 2439.11,-65.85"/>
</g>
<!-- Node27 -->
<g id="node27" class="node">
<title>Node27</title>
<g id="a_node27"><a xlink:href="../../d9/de3/measurements_8cpp.html" target="_top" xlink:title=" ">
<polygon fill="white" stroke="black" points="2440.5,-6 2440.5,-25 2630.5,-25 2630.5,-6 2440.5,-6"/>
<text text-anchor="middle" x="2535.5" y="-13" font-family="Helvetica,sans-Serif" font-size="10.00">src/libs/vformat/measurements.cpp</text>
</a>
</g>
</g>
<!-- Node26&#45;&gt;Node27 -->
<g id="edge30" class="edge">
<title>Node26&#45;&gt;Node27</title>
<path fill="none" stroke="midnightblue" d="M2496.33,-59.66C2507.03,-47.86 2519.65,-33.97 2527.61,-25.19"/>
<polygon fill="midnightblue" stroke="midnightblue" points="2493.43,-57.64 2489.3,-67.4 2498.61,-62.34 2493.43,-57.64"/>
</g>
<!-- Node28&#45;&gt;Node27 -->
<g id="edge33" class="edge">
<title>Node28&#45;&gt;Node27</title>
<path fill="none" stroke="midnightblue" d="M2384.34,-64.43C2424.31,-51.75 2477.15,-35 2508.6,-25.03"/>
<polygon fill="midnightblue" stroke="midnightblue" points="2383.2,-61.12 2374.73,-67.48 2385.32,-67.79 2383.2,-61.12"/>
</g>
<!-- Node28&#45;&gt;Node29 -->
<g id="edge32" class="edge">
<title>Node28&#45;&gt;Node29</title>
<path fill="none" stroke="midnightblue" d="M2294.66,-62.71C2275.11,-52.46 2251.3,-39.98 2233.35,-30.58"/>
<polygon fill="midnightblue" stroke="midnightblue" points="2293.11,-65.85 2303.59,-67.4 2296.36,-59.65 2293.11,-65.85"/>
</g>
<!-- Node32 -->
<g id="node32" class="node">
<title>Node32</title>
<g id="a_node32"><a xlink:href="../../d7/d63/vlabeltemplateconverter_8cpp.html" target="_top" xlink:title=" ">
<polygon fill="white" stroke="black" points="2564,-73 2564,-92 2795,-92 2795,-73 2564,-73"/>
<text text-anchor="middle" x="2679.5" y="-80" font-family="Helvetica,sans-Serif" font-size="10.00">src/libs/ifc/xml/vlabeltemplateconverter.cpp</text>
</a>
</g>
</g>
<!-- Node31&#45;&gt;Node32 -->
<g id="edge40" class="edge">
<title>Node31&#45;&gt;Node32</title>
<path fill="none" stroke="midnightblue" d="M2679.5,-129.54C2679.5,-117.17 2679.5,-101.62 2679.5,-92.13"/>
<polygon fill="midnightblue" stroke="midnightblue" points="2676,-129.73 2679.5,-139.73 2683,-129.73 2676,-129.73"/>
</g>
<!-- Node33 -->
<g id="node33" class="node">
<title>Node33</title>
<g id="a_node33"><a xlink:href="../../d9/daf/vlabeltemplate_8cpp.html" target="_top" xlink:title=" ">
<polygon fill="white" stroke="black" points="2813,-73 2813,-92 3004,-92 3004,-73 2813,-73"/>
<text text-anchor="middle" x="2908.5" y="-80" font-family="Helvetica,sans-Serif" font-size="10.00">src/libs/vformat/vlabeltemplate.cpp</text>
</a>
</g>
</g>
<!-- Node31&#45;&gt;Node33 -->
<g id="edge41" class="edge">
<title>Node31&#45;&gt;Node33</title>
<path fill="none" stroke="midnightblue" d="M2719.69,-137.09C2765,-124.23 2837.62,-103.62 2878.33,-92.06"/>
<polygon fill="midnightblue" stroke="midnightblue" points="2718.57,-133.77 2709.91,-139.87 2720.49,-140.5 2718.57,-133.77"/>
</g>
<!-- Node34&#45;&gt;Node4 -->
<g id="edge44" class="edge">
<title>Node34&#45;&gt;Node4</title>
<path fill="none" stroke="midnightblue" d="M1818.45,-135.27C1793.1,-122.4 1755.31,-103.21 1733.57,-92.17"/>
<polygon fill="midnightblue" stroke="midnightblue" points="1817,-138.46 1827.5,-139.87 1820.17,-132.22 1817,-138.46"/>
</g>
<!-- Node34&#45;&gt;Node35 -->
<g id="edge43" class="edge">
<title>Node34&#45;&gt;Node35</title>
<path fill="none" stroke="midnightblue" d="M1864.03,-133.57C1880.8,-120.74 1904.41,-102.69 1918.22,-92.13"/>
<polygon fill="midnightblue" stroke="midnightblue" points="1861.78,-130.88 1855.96,-139.73 1866.03,-136.44 1861.78,-130.88"/>
</g>
<!-- Node37&#45;&gt;Node27 -->
<g id="edge49" class="edge">
<title>Node37&#45;&gt;Node27</title>
<path fill="none" stroke="midnightblue" d="M3001.05,-198.08C3018.08,-167.46 3046.57,-103.75 3013.5,-67 2988.4,-39.11 2762.58,-25.48 2630.51,-19.84"/>
<polygon fill="midnightblue" stroke="midnightblue" points="2997.99,-196.38 2996.01,-206.78 3004.05,-199.88 2997.99,-196.38"/>
</g>
<!-- Node38&#45;&gt;Node33 -->
<g id="edge51" class="edge">
<title>Node38&#45;&gt;Node33</title>
<path fill="none" stroke="midnightblue" d="M2733.66,-202.16C2752.13,-192.45 2777.29,-178.66 2798.5,-165 2836.47,-140.55 2878.67,-107.5 2897.91,-92.08"/>
<polygon fill="midnightblue" stroke="midnightblue" points="2731.91,-199.12 2724.66,-206.84 2735.14,-205.33 2731.91,-199.12"/>
</g>
</g>
</svg>
