<?xml version="1.0" encoding="UTF-8" standalone="no"?>
<!DOCTYPE svg PUBLIC "-//W3C//DTD SVG 1.1//EN"
 "http://www.w3.org/Graphics/SVG/1.1/DTD/svg11.dtd">
<!-- Generated by graphviz version 2.43.0 (0)
 -->
<!-- Title: src/libs/ifc/xml/abstract_converter.h Pages: 1 -->
<svg width="1396pt" height="240pt"
 viewBox="0.00 0.00 1395.50 240.00" xmlns="http://www.w3.org/2000/svg" xmlns:xlink="http://www.w3.org/1999/xlink">
<g id="graph0" class="graph" transform="scale(1 1) rotate(0) translate(4 236)">
<title>src/libs/ifc/xml/abstract_converter.h</title>
<polygon fill="white" stroke="transparent" points="-4,4 -4,-236 1391.5,-236 1391.5,4 -4,4"/>
<!-- Node1 -->
<g id="node1" class="node">
<title>Node1</title>
<g id="a_node1"><a xlink:title=" ">
<polygon fill="#bfbfbf" stroke="black" points="426,-201.5 426,-231.5 557,-231.5 557,-201.5 426,-201.5"/>
<text text-anchor="start" x="434" y="-219.5" font-family="Helvetica,sans-Serif" font-size="10.00">src/libs/ifc/xml/abstract</text>
<text text-anchor="middle" x="491.5" y="-208.5" font-family="Helvetica,sans-Serif" font-size="10.00">_converter.h</text>
</a>
</g>
</g>
<!-- Node2 -->
<g id="node2" class="node">
<title>Node2</title>
<g id="a_node2"><a xlink:href="../../de/dec/abstract__m__converter_8cpp.html" target="_top" xlink:title=" ">
<polygon fill="white" stroke="black" points="0,-67.5 0,-97.5 131,-97.5 131,-67.5 0,-67.5"/>
<text text-anchor="start" x="8" y="-85.5" font-family="Helvetica,sans-Serif" font-size="10.00">src/libs/ifc/xml/abstract</text>
<text text-anchor="middle" x="65.5" y="-74.5" font-family="Helvetica,sans-Serif" font-size="10.00">_m_converter.cpp</text>
</a>
</g>
</g>
<!-- Node1&#45;&gt;Node2 -->
<g id="edge1" class="edge">
<title>Node1&#45;&gt;Node2</title>
<path fill="none" stroke="midnightblue" d="M415.67,-212.9C350.81,-208.43 256.08,-196.53 179.5,-165 139.91,-148.7 100.87,-116.29 80.34,-97.63"/>
<polygon fill="midnightblue" stroke="midnightblue" points="415.61,-216.4 425.81,-213.55 416.06,-209.41 415.61,-216.4"/>
</g>
<!-- Node3 -->
<g id="node3" class="node">
<title>Node3</title>
<g id="a_node3"><a xlink:href="../../da/d2c/abstract__m__converter_8h.html" target="_top" xlink:title=" ">
<polygon fill="white" stroke="black" points="189,-134.5 189,-164.5 320,-164.5 320,-134.5 189,-134.5"/>
<text text-anchor="start" x="197" y="-152.5" font-family="Helvetica,sans-Serif" font-size="10.00">src/libs/ifc/xml/abstract</text>
<text text-anchor="middle" x="254.5" y="-141.5" font-family="Helvetica,sans-Serif" font-size="10.00">_m_converter.h</text>
</a>
</g>
</g>
<!-- Node1&#45;&gt;Node3 -->
<g id="edge2" class="edge">
<title>Node1&#45;&gt;Node3</title>
<path fill="none" stroke="midnightblue" d="M430.3,-198.71C391.73,-188.14 342.5,-174.63 305.95,-164.61"/>
<polygon fill="midnightblue" stroke="midnightblue" points="429.8,-202.21 440.37,-201.48 431.65,-195.46 429.8,-202.21"/>
</g>
<!-- Node5 -->
<g id="node5" class="node">
<title>Node5</title>
<g id="a_node5"><a xlink:href="../../d0/d93/individual__size__converter_8h.html" target="_top" xlink:title=" ">
<polygon fill="white" stroke="black" points="188,-67.5 188,-97.5 327,-97.5 327,-67.5 188,-67.5"/>
<text text-anchor="start" x="196" y="-85.5" font-family="Helvetica,sans-Serif" font-size="10.00">src/libs/ifc/xml/individual</text>
<text text-anchor="middle" x="257.5" y="-74.5" font-family="Helvetica,sans-Serif" font-size="10.00">_size_converter.h</text>
</a>
</g>
</g>
<!-- Node1&#45;&gt;Node5 -->
<g id="edge13" class="edge">
<title>Node1&#45;&gt;Node5</title>
<path fill="none" stroke="midnightblue" d="M455.31,-196.43C437.78,-187.1 416.46,-175.61 397.5,-165 356.27,-141.93 308.86,-114.04 281.14,-97.59"/>
<polygon fill="midnightblue" stroke="midnightblue" points="454.15,-199.78 464.63,-201.38 457.43,-193.59 454.15,-199.78"/>
</g>
<!-- Node7 -->
<g id="node7" class="node">
<title>Node7</title>
<g id="a_node7"><a xlink:href="../../d5/d4c/multi__size__converter_8h.html" target="_top" xlink:title=" ">
<polygon fill="white" stroke="black" points="383.5,-67.5 383.5,-97.5 499.5,-97.5 499.5,-67.5 383.5,-67.5"/>
<text text-anchor="start" x="391.5" y="-85.5" font-family="Helvetica,sans-Serif" font-size="10.00">src/libs/ifc/xml/multi</text>
<text text-anchor="middle" x="441.5" y="-74.5" font-family="Helvetica,sans-Serif" font-size="10.00">_size_converter.h</text>
</a>
</g>
</g>
<!-- Node1&#45;&gt;Node7 -->
<g id="edge14" class="edge">
<title>Node1&#45;&gt;Node7</title>
<path fill="none" stroke="midnightblue" d="M440.15,-196.66C426.47,-189.02 413.33,-178.68 405.5,-165 392.59,-142.45 412.13,-114.4 427.09,-97.78"/>
<polygon fill="midnightblue" stroke="midnightblue" points="438.68,-199.84 449.17,-201.3 441.88,-193.61 438.68,-199.84"/>
</g>
<!-- Node9 -->
<g id="node9" class="node">
<title>Node9</title>
<g id="a_node9"><a xlink:href="../../d4/d90/fvupdater_8cpp.html" target="_top" xlink:title=" ">
<polygon fill="white" stroke="black" points="415,-140 415,-159 568,-159 568,-140 415,-140"/>
<text text-anchor="middle" x="491.5" y="-147" font-family="Helvetica,sans-Serif" font-size="10.00">src/libs/fervor/fvupdater.cpp</text>
</a>
</g>
</g>
<!-- Node1&#45;&gt;Node9 -->
<g id="edge12" class="edge">
<title>Node1&#45;&gt;Node9</title>
<path fill="none" stroke="midnightblue" d="M491.5,-191.25C491.5,-180.02 491.5,-167.38 491.5,-159.19"/>
<polygon fill="midnightblue" stroke="midnightblue" points="488,-191.4 491.5,-201.4 495,-191.4 488,-191.4"/>
</g>
<!-- Node10 -->
<g id="node10" class="node">
<title>Node10</title>
<g id="a_node10"><a xlink:href="../../d0/d08/abstract__converter_8cpp.html" target="_top" xlink:title=" ">
<polygon fill="white" stroke="black" points="586,-134.5 586,-164.5 717,-164.5 717,-134.5 586,-134.5"/>
<text text-anchor="start" x="594" y="-152.5" font-family="Helvetica,sans-Serif" font-size="10.00">src/libs/ifc/xml/abstract</text>
<text text-anchor="middle" x="651.5" y="-141.5" font-family="Helvetica,sans-Serif" font-size="10.00">_converter.cpp</text>
</a>
</g>
</g>
<!-- Node1&#45;&gt;Node10 -->
<g id="edge15" class="edge">
<title>Node1&#45;&gt;Node10</title>
<path fill="none" stroke="midnightblue" d="M535.7,-197.54C561.3,-187.14 593.07,-174.24 616.85,-164.58"/>
<polygon fill="midnightblue" stroke="midnightblue" points="534.16,-194.39 526.22,-201.4 536.8,-200.87 534.16,-194.39"/>
</g>
<!-- Node11 -->
<g id="node11" class="node">
<title>Node11</title>
<g id="a_node11"><a xlink:href="../../d5/d35/vlabeltemplateconverter_8h.html" target="_top" xlink:title=" ">
<polygon fill="white" stroke="black" points="735.5,-140 735.5,-159 955.5,-159 955.5,-140 735.5,-140"/>
<text text-anchor="middle" x="845.5" y="-147" font-family="Helvetica,sans-Serif" font-size="10.00">src/libs/ifc/xml/vlabeltemplateconverter.h</text>
</a>
</g>
</g>
<!-- Node1&#45;&gt;Node11 -->
<g id="edge16" class="edge">
<title>Node1&#45;&gt;Node11</title>
<path fill="none" stroke="midnightblue" d="M567.39,-201.57C637.71,-188.65 740.07,-169.86 799,-159.04"/>
<polygon fill="midnightblue" stroke="midnightblue" points="566.46,-198.18 557.26,-203.43 567.72,-205.06 566.46,-198.18"/>
</g>
<!-- Node14 -->
<g id="node14" class="node">
<title>Node14</title>
<g id="a_node14"><a xlink:href="../../df/d2f/vpatternconverter_8h.html" target="_top" xlink:title=" ">
<polygon fill="white" stroke="black" points="1011,-140 1011,-159 1198,-159 1198,-140 1011,-140"/>
<text text-anchor="middle" x="1104.5" y="-147" font-family="Helvetica,sans-Serif" font-size="10.00">src/libs/ifc/xml/vpatternconverter.h</text>
</a>
</g>
</g>
<!-- Node1&#45;&gt;Node14 -->
<g id="edge19" class="edge">
<title>Node1&#45;&gt;Node14</title>
<path fill="none" stroke="midnightblue" d="M567.29,-208.78C666.32,-199.8 845.07,-182.93 997.5,-165 1012.77,-163.2 1029.23,-161.07 1044.56,-159"/>
<polygon fill="midnightblue" stroke="midnightblue" points="566.72,-205.31 557.08,-209.7 567.36,-212.28 566.72,-205.31"/>
</g>
<!-- Node15 -->
<g id="node15" class="node">
<title>Node15</title>
<g id="a_node15"><a xlink:href="../../d5/d2c/vpatternconverter_8cpp.html" target="_top" xlink:title=" ">
<polygon fill="white" stroke="black" points="979.5,-73 979.5,-92 1177.5,-92 1177.5,-73 979.5,-73"/>
<text text-anchor="middle" x="1078.5" y="-80" font-family="Helvetica,sans-Serif" font-size="10.00">src/libs/ifc/xml/vpatternconverter.cpp</text>
</a>
</g>
</g>
<!-- Node1&#45;&gt;Node15 -->
<g id="edge22" class="edge">
<title>Node1&#45;&gt;Node15</title>
<path fill="none" stroke="midnightblue" d="M567.52,-212.64C682.51,-207.43 894.68,-194.14 964.5,-165 984.61,-156.61 984.96,-146.94 1002.5,-134 1023.67,-118.39 1049.34,-101.79 1064.77,-92.05"/>
<polygon fill="midnightblue" stroke="midnightblue" points="567.22,-209.15 557.38,-213.09 567.53,-216.14 567.22,-209.15"/>
</g>
<!-- Node3&#45;&gt;Node2 -->
<g id="edge3" class="edge">
<title>Node3&#45;&gt;Node2</title>
<path fill="none" stroke="midnightblue" d="M203.88,-131.09C173.37,-120.6 135.02,-107.41 106.43,-97.58"/>
<polygon fill="midnightblue" stroke="midnightblue" points="202.9,-134.45 213.49,-134.4 205.17,-127.83 202.9,-134.45"/>
</g>
<!-- Node4 -->
<g id="node4" class="node">
<title>Node4</title>
<g id="a_node4"><a xlink:href="../../d5/d6e/individual__size__converter_8cpp.html" target="_top" xlink:title=" ">
<polygon fill="white" stroke="black" points="54,-0.5 54,-30.5 193,-30.5 193,-0.5 54,-0.5"/>
<text text-anchor="start" x="62" y="-18.5" font-family="Helvetica,sans-Serif" font-size="10.00">src/libs/ifc/xml/individual</text>
<text text-anchor="middle" x="123.5" y="-7.5" font-family="Helvetica,sans-Serif" font-size="10.00">_size_converter.cpp</text>
</a>
</g>
</g>
<!-- Node3&#45;&gt;Node4 -->
<g id="edge4" class="edge">
<title>Node3&#45;&gt;Node4</title>
<path fill="none" stroke="midnightblue" d="M219.32,-129.14C205.68,-120.65 190.49,-109.9 178.5,-98 157.79,-77.43 140.2,-47.98 130.81,-30.69"/>
<polygon fill="midnightblue" stroke="midnightblue" points="217.64,-132.22 228.01,-134.39 221.26,-126.22 217.64,-132.22"/>
</g>
<!-- Node3&#45;&gt;Node5 -->
<g id="edge5" class="edge">
<title>Node3&#45;&gt;Node5</title>
<path fill="none" stroke="midnightblue" d="M255.61,-124.4C256.03,-115.37 256.49,-105.41 256.85,-97.58"/>
<polygon fill="midnightblue" stroke="midnightblue" points="252.12,-124.25 255.15,-134.4 259.11,-124.57 252.12,-124.25"/>
</g>
<!-- Node3&#45;&gt;Node7 -->
<g id="edge8" class="edge">
<title>Node3&#45;&gt;Node7</title>
<path fill="none" stroke="midnightblue" d="M304.58,-131.09C334.77,-120.6 372.72,-107.41 401,-97.58"/>
<polygon fill="midnightblue" stroke="midnightblue" points="303.37,-127.81 295.08,-134.4 305.67,-134.42 303.37,-127.81"/>
</g>
<!-- Node8 -->
<g id="node8" class="node">
<title>Node8</title>
<g id="a_node8"><a xlink:href="../../d9/d94/multi__size__converter_8cpp.html" target="_top" xlink:title=" ">
<polygon fill="white" stroke="black" points="419.5,-0.5 419.5,-30.5 535.5,-30.5 535.5,-0.5 419.5,-0.5"/>
<text text-anchor="start" x="427.5" y="-18.5" font-family="Helvetica,sans-Serif" font-size="10.00">src/libs/ifc/xml/multi</text>
<text text-anchor="middle" x="477.5" y="-7.5" font-family="Helvetica,sans-Serif" font-size="10.00">_size_converter.cpp</text>
</a>
</g>
</g>
<!-- Node3&#45;&gt;Node8 -->
<g id="edge11" class="edge">
<title>Node3&#45;&gt;Node8</title>
<path fill="none" stroke="midnightblue" d="M287.59,-129.05C302.48,-119.99 320.14,-108.84 335.5,-98 353.59,-85.23 355.78,-78.83 374.5,-67 396.72,-52.95 423.41,-39.97 444.05,-30.68"/>
<polygon fill="midnightblue" stroke="midnightblue" points="285.47,-126.24 278.71,-134.39 289.08,-132.23 285.47,-126.24"/>
</g>
<!-- Node5&#45;&gt;Node4 -->
<g id="edge6" class="edge">
<title>Node5&#45;&gt;Node4</title>
<path fill="none" stroke="midnightblue" d="M219.35,-62.99C198.11,-52.69 172.09,-40.07 152.52,-30.58"/>
<polygon fill="midnightblue" stroke="midnightblue" points="217.9,-66.18 228.42,-67.4 220.95,-59.88 217.9,-66.18"/>
</g>
<!-- Node6 -->
<g id="node6" class="node">
<title>Node6</title>
<g id="a_node6"><a xlink:href="../../d9/de3/measurements_8cpp.html" target="_top" xlink:title=" ">
<polygon fill="white" stroke="black" points="211.5,-6 211.5,-25 401.5,-25 401.5,-6 211.5,-6"/>
<text text-anchor="middle" x="306.5" y="-13" font-family="Helvetica,sans-Serif" font-size="10.00">src/libs/vformat/measurements.cpp</text>
</a>
</g>
</g>
<!-- Node5&#45;&gt;Node6 -->
<g id="edge7" class="edge">
<title>Node5&#45;&gt;Node6</title>
<path fill="none" stroke="midnightblue" d="M274.22,-59.32C283.06,-47.6 293.4,-33.88 299.95,-25.19"/>
<polygon fill="midnightblue" stroke="midnightblue" points="271.36,-57.3 268.13,-67.4 276.95,-61.52 271.36,-57.3"/>
</g>
<!-- Node7&#45;&gt;Node6 -->
<g id="edge10" class="edge">
<title>Node7&#45;&gt;Node6</title>
<path fill="none" stroke="midnightblue" d="M403.01,-62.97C377.08,-50.48 344.09,-34.6 324.17,-25.01"/>
<polygon fill="midnightblue" stroke="midnightblue" points="401.68,-66.21 412.21,-67.4 404.72,-59.9 401.68,-66.21"/>
</g>
<!-- Node7&#45;&gt;Node8 -->
<g id="edge9" class="edge">
<title>Node7&#45;&gt;Node8</title>
<path fill="none" stroke="midnightblue" d="M454.2,-58.58C459.37,-49.24 465.18,-38.75 469.7,-30.58"/>
<polygon fill="midnightblue" stroke="midnightblue" points="451.09,-56.95 449.31,-67.4 457.22,-60.34 451.09,-56.95"/>
</g>
<!-- Node12 -->
<g id="node12" class="node">
<title>Node12</title>
<g id="a_node12"><a xlink:href="../../d7/d63/vlabeltemplateconverter_8cpp.html" target="_top" xlink:title=" ">
<polygon fill="white" stroke="black" points="730,-73 730,-92 961,-92 961,-73 730,-73"/>
<text text-anchor="middle" x="845.5" y="-80" font-family="Helvetica,sans-Serif" font-size="10.00">src/libs/ifc/xml/vlabeltemplateconverter.cpp</text>
</a>
</g>
</g>
<!-- Node11&#45;&gt;Node12 -->
<g id="edge17" class="edge">
<title>Node11&#45;&gt;Node12</title>
<path fill="none" stroke="midnightblue" d="M845.5,-129.54C845.5,-117.17 845.5,-101.62 845.5,-92.13"/>
<polygon fill="midnightblue" stroke="midnightblue" points="842,-129.73 845.5,-139.73 849,-129.73 842,-129.73"/>
</g>
<!-- Node13 -->
<g id="node13" class="node">
<title>Node13</title>
<g id="a_node13"><a xlink:href="../../d9/daf/vlabeltemplate_8cpp.html" target="_top" xlink:title=" ">
<polygon fill="white" stroke="black" points="521,-73 521,-92 712,-92 712,-73 521,-73"/>
<text text-anchor="middle" x="616.5" y="-80" font-family="Helvetica,sans-Serif" font-size="10.00">src/libs/vformat/vlabeltemplate.cpp</text>
</a>
</g>
</g>
<!-- Node11&#45;&gt;Node13 -->
<g id="edge18" class="edge">
<title>Node11&#45;&gt;Node13</title>
<path fill="none" stroke="midnightblue" d="M805.31,-137.09C760,-124.23 687.38,-103.62 646.67,-92.06"/>
<polygon fill="midnightblue" stroke="midnightblue" points="804.51,-140.5 815.09,-139.87 806.43,-133.77 804.51,-140.5"/>
</g>
<!-- Node14&#45;&gt;Node15 -->
<g id="edge20" class="edge">
<title>Node14&#45;&gt;Node15</title>
<path fill="none" stroke="midnightblue" d="M1097.22,-130.29C1092.22,-117.81 1085.83,-101.81 1081.95,-92.13"/>
<polygon fill="midnightblue" stroke="midnightblue" points="1094.03,-131.75 1100.99,-139.73 1100.53,-129.15 1094.03,-131.75"/>
</g>
<!-- Node16 -->
<g id="node16" class="node">
<title>Node16</title>
<g id="a_node16"><a xlink:href="../../de/d7d/vabstractpattern_8cpp.html" target="_top" xlink:title=" ">
<polygon fill="white" stroke="black" points="1195.5,-73 1195.5,-92 1387.5,-92 1387.5,-73 1195.5,-73"/>
<text text-anchor="middle" x="1291.5" y="-80" font-family="Helvetica,sans-Serif" font-size="10.00">src/libs/ifc/xml/vabstractpattern.cpp</text>
</a>
</g>
</g>
<!-- Node14&#45;&gt;Node16 -->
<g id="edge21" class="edge">
<title>Node14&#45;&gt;Node16</title>
<path fill="none" stroke="midnightblue" d="M1139.21,-136.44C1176.3,-123.54 1234.18,-103.42 1266.86,-92.06"/>
<polygon fill="midnightblue" stroke="midnightblue" points="1137.63,-133.28 1129.33,-139.87 1139.93,-139.89 1137.63,-133.28"/>
</g>
</g>
</svg>
