<?xml version="1.0" encoding="UTF-8" standalone="no"?>
<!DOCTYPE svg PUBLIC "-//W3C//DTD SVG 1.1//EN"
 "http://www.w3.org/Graphics/SVG/1.1/DTD/svg11.dtd">
<!-- Generated by graphviz version 2.43.0 (0)
 -->
<!-- Title: src/libs/vtools/tools/drawTools/toolpoint/toolsinglepoint/toollinepoint/vtoollinepoint.h Pages: 1 -->
<!--zoomable 306 -->
<svg id="main" version="1.1" xmlns="http://www.w3.org/2000/svg" xmlns:xlink="http://www.w3.org/1999/xlink" xml:space="preserve" onload="init(evt)">
<style type="text/css"><![CDATA[
.edge:hover path { stroke: red; }
.edge:hover polygon { stroke: red; fill: red; }
]]></style>
<script type="text/javascript"><![CDATA[
var edges = document.getElementsByTagName('g');
if (edges && edges.length) {
  for (var i=0;i<edges.length;i++) {
    if (edges[i].id.substr(0,4)=='edge') {
      edges[i].setAttribute('class','edge');
    }
  }
}
]]></script>
        <defs>
                <circle id="rim" cx="0" cy="0" r="7"/>
                <circle id="rim2" cx="0" cy="0" r="3.5"/>
                <g id="zoomPlus">
                        <use xlink:href="#rim" fill="#404040">
                                <set attributeName="fill" to="#808080" begin="zoomplus.mouseover" end="zoomplus.mouseout"/>
                        </use>
                        <path d="M-4,0h8M0,-4v8" fill="none" stroke="white" stroke-width="1.5" pointer-events="none"/>
                </g>
                <g id="zoomMin">
                        <use xlink:href="#rim" fill="#404040">
                                <set attributeName="fill" to="#808080" begin="zoomminus.mouseover" end="zoomminus.mouseout"/>
                        </use>
                        <path d="M-4,0h8" fill="none" stroke="white" stroke-width="1.5" pointer-events="none"/>
                </g>
                <g id="dirArrow">
                        <path fill="none" stroke="white" stroke-width="1.5" d="M0,-3.0v7 M-2.5,-0.5L0,-3.0L2.5,-0.5"/>
                </g>
               <g id="resetDef">
                       <use xlink:href="#rim2" fill="#404040">
                               <set attributeName="fill" to="#808080" begin="reset.mouseover" end="reset.mouseout"/>
                       </use>
               </g>
        </defs>

<script type="text/javascript">
var viewWidth = 2613;
var viewHeight = 306;
var sectionId = 'dynsection-1';
</script>
<script xlink:href="../../svgpan.js"/>
<svg id="graph" class="graph">
<g id="viewport">
<title>src/libs/vtools/tools/drawTools/toolpoint/toolsinglepoint/toollinepoint/vtoollinepoint.h</title>
<polygon fill="white" stroke="transparent" points="-4,4 -4,-302 2609,-302 2609,4 -4,4"/>
<!-- Node1 -->
<g id="node1" class="node">
<title>Node1</title>
<g id="a_node1"><a xlink:title=" ">
<polygon fill="#bfbfbf" stroke="black" points="1196,-245.5 1196,-297.5 1353,-297.5 1353,-245.5 1196,-245.5"/>
<text text-anchor="start" x="1204" y="-285.5" font-family="Helvetica,sans-Serif" font-size="10.00">src/libs/vtools/tools</text>
<text text-anchor="start" x="1204" y="-274.5" font-family="Helvetica,sans-Serif" font-size="10.00">/drawTools/toolpoint</text>
<text text-anchor="start" x="1204" y="-263.5" font-family="Helvetica,sans-Serif" font-size="10.00">/toolsinglepoint/toollinepoint</text>
<text text-anchor="middle" x="1274.5" y="-252.5" font-family="Helvetica,sans-Serif" font-size="10.00">/vtoollinepoint.h</text>
</a>
</g>
</g>
<!-- Node2 -->
<g id="node2" class="node">
<title>Node2</title>
<g id="a_node2"><a xlink:href="../../d5/d9f/vtoolalongline_8h.html" target="_top" xlink:title=" ">
<polygon fill="white" stroke="black" points="593,-156.5 593,-208.5 750,-208.5 750,-156.5 593,-156.5"/>
<text text-anchor="start" x="601" y="-196.5" font-family="Helvetica,sans-Serif" font-size="10.00">src/libs/vtools/tools</text>
<text text-anchor="start" x="601" y="-185.5" font-family="Helvetica,sans-Serif" font-size="10.00">/drawTools/toolpoint</text>
<text text-anchor="start" x="601" y="-174.5" font-family="Helvetica,sans-Serif" font-size="10.00">/toolsinglepoint/toollinepoint</text>
<text text-anchor="middle" x="671.5" y="-163.5" font-family="Helvetica,sans-Serif" font-size="10.00">/vtoolalongline.h</text>
</a>
</g>
</g>
<!-- Node1&#45;&gt;Node2 -->
<g id="edge1" class="edge">
<title>Node1&#45;&gt;Node2</title>
<path fill="none" stroke="midnightblue" d="M1185.76,-263.8C1083.53,-255.15 910.81,-237.72 764.5,-209 759.82,-208.08 755.03,-207.05 750.21,-205.94"/>
<polygon fill="midnightblue" stroke="midnightblue" points="1185.48,-267.29 1195.74,-264.63 1186.07,-260.31 1185.48,-267.29"/>
</g>
<!-- Node5 -->
<g id="node5" class="node">
<title>Node5</title>
<g id="a_node5"><a xlink:href="../../d8/d68/vtoolalongline_8cpp.html" target="_top" xlink:title=" ">
<polygon fill="white" stroke="black" points="378,-67.5 378,-119.5 535,-119.5 535,-67.5 378,-67.5"/>
<text text-anchor="start" x="386" y="-107.5" font-family="Helvetica,sans-Serif" font-size="10.00">src/libs/vtools/tools</text>
<text text-anchor="start" x="386" y="-96.5" font-family="Helvetica,sans-Serif" font-size="10.00">/drawTools/toolpoint</text>
<text text-anchor="start" x="386" y="-85.5" font-family="Helvetica,sans-Serif" font-size="10.00">/toolsinglepoint/toollinepoint</text>
<text text-anchor="middle" x="456.5" y="-74.5" font-family="Helvetica,sans-Serif" font-size="10.00">/vtoolalongline.cpp</text>
</a>
</g>
</g>
<!-- Node1&#45;&gt;Node5 -->
<g id="edge5" class="edge">
<title>Node1&#45;&gt;Node5</title>
<path fill="none" stroke="midnightblue" d="M1185.56,-269.54C1024.01,-266.66 689.3,-255.14 583.5,-209 538.33,-189.3 498.34,-147.01 475.8,-119.7"/>
<polygon fill="midnightblue" stroke="midnightblue" points="1185.89,-273.05 1195.95,-269.72 1186.01,-266.05 1185.89,-273.05"/>
</g>
<!-- Node6 -->
<g id="node6" class="node">
<title>Node6</title>
<g id="a_node6"><a xlink:href="../../d6/d07/vtoolbisector_8cpp.html" target="_top" xlink:title=" ">
<polygon fill="white" stroke="black" points="553,-67.5 553,-119.5 710,-119.5 710,-67.5 553,-67.5"/>
<text text-anchor="start" x="561" y="-107.5" font-family="Helvetica,sans-Serif" font-size="10.00">src/libs/vtools/tools</text>
<text text-anchor="start" x="561" y="-96.5" font-family="Helvetica,sans-Serif" font-size="10.00">/drawTools/toolpoint</text>
<text text-anchor="start" x="561" y="-85.5" font-family="Helvetica,sans-Serif" font-size="10.00">/toolsinglepoint/toollinepoint</text>
<text text-anchor="middle" x="631.5" y="-74.5" font-family="Helvetica,sans-Serif" font-size="10.00">/vtoolbisector.cpp</text>
</a>
</g>
</g>
<!-- Node1&#45;&gt;Node6 -->
<g id="edge6" class="edge">
<title>Node1&#45;&gt;Node6</title>
<path fill="none" stroke="midnightblue" d="M1185.61,-267.31C1066.15,-261.64 861.38,-246.63 797.5,-209 772.3,-194.16 780.99,-174.7 758.5,-156 740.79,-141.28 718.97,-129.07 698.43,-119.53"/>
<polygon fill="midnightblue" stroke="midnightblue" points="1185.69,-270.82 1195.84,-267.79 1186.01,-263.83 1185.69,-270.82"/>
</g>
<!-- Node7 -->
<g id="node7" class="node">
<title>Node7</title>
<g id="a_node7"><a xlink:href="../../d7/d6b/vtoolcurveintersectaxis_8h.html" target="_top" xlink:title=" ">
<polygon fill="white" stroke="black" points="275,-156.5 275,-208.5 432,-208.5 432,-156.5 275,-156.5"/>
<text text-anchor="start" x="283" y="-196.5" font-family="Helvetica,sans-Serif" font-size="10.00">src/libs/vtools/tools</text>
<text text-anchor="start" x="283" y="-185.5" font-family="Helvetica,sans-Serif" font-size="10.00">/drawTools/toolpoint</text>
<text text-anchor="start" x="283" y="-174.5" font-family="Helvetica,sans-Serif" font-size="10.00">/toolsinglepoint/toollinepoint</text>
<text text-anchor="middle" x="353.5" y="-163.5" font-family="Helvetica,sans-Serif" font-size="10.00">/vtoolcurveintersectaxis.h</text>
</a>
</g>
</g>
<!-- Node1&#45;&gt;Node7 -->
<g id="edge7" class="edge">
<title>Node1&#45;&gt;Node7</title>
<path fill="none" stroke="midnightblue" d="M1185.47,-266.74C1039.26,-259.85 739.38,-242.7 487.5,-209 469.54,-206.6 450.35,-203.35 432.27,-199.99"/>
<polygon fill="midnightblue" stroke="midnightblue" points="1185.57,-270.25 1195.73,-267.22 1185.9,-263.26 1185.57,-270.25"/>
</g>
<!-- Node8 -->
<g id="node8" class="node">
<title>Node8</title>
<g id="a_node8"><a xlink:href="../../da/d99/vtoolcurveintersectaxis_8cpp.html" target="_top" xlink:title=" ">
<polygon fill="white" stroke="black" points="0,-67.5 0,-119.5 157,-119.5 157,-67.5 0,-67.5"/>
<text text-anchor="start" x="8" y="-107.5" font-family="Helvetica,sans-Serif" font-size="10.00">src/libs/vtools/tools</text>
<text text-anchor="start" x="8" y="-96.5" font-family="Helvetica,sans-Serif" font-size="10.00">/drawTools/toolpoint</text>
<text text-anchor="start" x="8" y="-85.5" font-family="Helvetica,sans-Serif" font-size="10.00">/toolsinglepoint/toollinepoint</text>
<text text-anchor="middle" x="78.5" y="-74.5" font-family="Helvetica,sans-Serif" font-size="10.00">/vtoolcurveintersectaxis.cpp</text>
</a>
</g>
</g>
<!-- Node1&#45;&gt;Node8 -->
<g id="edge15" class="edge">
<title>Node1&#45;&gt;Node8</title>
<path fill="none" stroke="midnightblue" d="M1185.44,-270.57C971.87,-269.85 435.65,-262.59 265.5,-209 205.05,-189.96 144.13,-147.25 108.92,-119.72"/>
<polygon fill="midnightblue" stroke="midnightblue" points="1185.67,-274.07 1195.68,-270.6 1185.69,-267.07 1185.67,-274.07"/>
</g>
<!-- Node10 -->
<g id="node10" class="node">
<title>Node10</title>
<g id="a_node10"><a xlink:href="../../d9/d45/vtoolbisector_8h.html" target="_top" xlink:title=" ">
<polygon fill="white" stroke="black" points="807,-156.5 807,-208.5 964,-208.5 964,-156.5 807,-156.5"/>
<text text-anchor="start" x="815" y="-196.5" font-family="Helvetica,sans-Serif" font-size="10.00">src/libs/vtools/tools</text>
<text text-anchor="start" x="815" y="-185.5" font-family="Helvetica,sans-Serif" font-size="10.00">/drawTools/toolpoint</text>
<text text-anchor="start" x="815" y="-174.5" font-family="Helvetica,sans-Serif" font-size="10.00">/toolsinglepoint/toollinepoint</text>
<text text-anchor="middle" x="885.5" y="-163.5" font-family="Helvetica,sans-Serif" font-size="10.00">/vtoolbisector.h</text>
</a>
</g>
</g>
<!-- Node1&#45;&gt;Node10 -->
<g id="edge11" class="edge">
<title>Node1&#45;&gt;Node10</title>
<path fill="none" stroke="midnightblue" d="M1185.96,-253.61C1126.97,-241.99 1047.84,-225.69 978.5,-209 973.78,-207.86 968.94,-206.66 964.06,-205.41"/>
<polygon fill="midnightblue" stroke="midnightblue" points="1185.5,-257.09 1195.99,-255.58 1186.85,-250.22 1185.5,-257.09"/>
</g>
<!-- Node12 -->
<g id="node12" class="node">
<title>Node12</title>
<g id="a_node12"><a xlink:href="../../d5/de5/vtoolendline_8h.html" target="_top" xlink:title=" ">
<polygon fill="white" stroke="black" points="1021,-156.5 1021,-208.5 1178,-208.5 1178,-156.5 1021,-156.5"/>
<text text-anchor="start" x="1029" y="-196.5" font-family="Helvetica,sans-Serif" font-size="10.00">src/libs/vtools/tools</text>
<text text-anchor="start" x="1029" y="-185.5" font-family="Helvetica,sans-Serif" font-size="10.00">/drawTools/toolpoint</text>
<text text-anchor="start" x="1029" y="-174.5" font-family="Helvetica,sans-Serif" font-size="10.00">/toolsinglepoint/toollinepoint</text>
<text text-anchor="middle" x="1099.5" y="-163.5" font-family="Helvetica,sans-Serif" font-size="10.00">/vtoolendline.h</text>
</a>
</g>
</g>
<!-- Node1&#45;&gt;Node12 -->
<g id="edge16" class="edge">
<title>Node1&#45;&gt;Node12</title>
<path fill="none" stroke="midnightblue" d="M1214.71,-240.78C1193.66,-230.31 1170.22,-218.66 1150,-208.61"/>
<polygon fill="midnightblue" stroke="midnightblue" points="1213.37,-244.02 1223.88,-245.34 1216.49,-237.75 1213.37,-244.02"/>
</g>
<!-- Node13 -->
<g id="node13" class="node">
<title>Node13</title>
<g id="a_node13"><a xlink:href="../../d7/d91/vtoolendline_8cpp.html" target="_top" xlink:title=" ">
<polygon fill="white" stroke="black" points="895,-67.5 895,-119.5 1052,-119.5 1052,-67.5 895,-67.5"/>
<text text-anchor="start" x="903" y="-107.5" font-family="Helvetica,sans-Serif" font-size="10.00">src/libs/vtools/tools</text>
<text text-anchor="start" x="903" y="-96.5" font-family="Helvetica,sans-Serif" font-size="10.00">/drawTools/toolpoint</text>
<text text-anchor="start" x="903" y="-85.5" font-family="Helvetica,sans-Serif" font-size="10.00">/toolsinglepoint/toollinepoint</text>
<text text-anchor="middle" x="973.5" y="-74.5" font-family="Helvetica,sans-Serif" font-size="10.00">/vtoolendline.cpp</text>
</a>
</g>
</g>
<!-- Node1&#45;&gt;Node13 -->
<g id="edge19" class="edge">
<title>Node1&#45;&gt;Node13</title>
<path fill="none" stroke="midnightblue" d="M1185.85,-259.18C1119.84,-249.06 1036.94,-232.23 1011.5,-209 986.29,-185.98 977.78,-145.85 974.92,-119.74"/>
<polygon fill="midnightblue" stroke="midnightblue" points="1185.46,-262.66 1195.87,-260.68 1186.5,-255.74 1185.46,-262.66"/>
</g>
<!-- Node14 -->
<g id="node14" class="node">
<title>Node14</title>
<g id="a_node14"><a xlink:href="../../d8/d3f/vtoolheight_8h.html" target="_top" xlink:title=" ">
<polygon fill="white" stroke="black" points="1196,-156.5 1196,-208.5 1353,-208.5 1353,-156.5 1196,-156.5"/>
<text text-anchor="start" x="1204" y="-196.5" font-family="Helvetica,sans-Serif" font-size="10.00">src/libs/vtools/tools</text>
<text text-anchor="start" x="1204" y="-185.5" font-family="Helvetica,sans-Serif" font-size="10.00">/drawTools/toolpoint</text>
<text text-anchor="start" x="1204" y="-174.5" font-family="Helvetica,sans-Serif" font-size="10.00">/toolsinglepoint/toollinepoint</text>
<text text-anchor="middle" x="1274.5" y="-163.5" font-family="Helvetica,sans-Serif" font-size="10.00">/vtoolheight.h</text>
</a>
</g>
</g>
<!-- Node1&#45;&gt;Node14 -->
<g id="edge20" class="edge">
<title>Node1&#45;&gt;Node14</title>
<path fill="none" stroke="midnightblue" d="M1274.5,-235.19C1274.5,-226.28 1274.5,-216.9 1274.5,-208.61"/>
<polygon fill="midnightblue" stroke="midnightblue" points="1271,-235.34 1274.5,-245.34 1278,-235.34 1271,-235.34"/>
</g>
<!-- Node15 -->
<g id="node15" class="node">
<title>Node15</title>
<g id="a_node15"><a xlink:href="../../d1/d35/vtoolheight_8cpp.html" target="_top" xlink:title=" ">
<polygon fill="white" stroke="black" points="1384,-67.5 1384,-119.5 1541,-119.5 1541,-67.5 1384,-67.5"/>
<text text-anchor="start" x="1392" y="-107.5" font-family="Helvetica,sans-Serif" font-size="10.00">src/libs/vtools/tools</text>
<text text-anchor="start" x="1392" y="-96.5" font-family="Helvetica,sans-Serif" font-size="10.00">/drawTools/toolpoint</text>
<text text-anchor="start" x="1392" y="-85.5" font-family="Helvetica,sans-Serif" font-size="10.00">/toolsinglepoint/toollinepoint</text>
<text text-anchor="middle" x="1462.5" y="-74.5" font-family="Helvetica,sans-Serif" font-size="10.00">/vtoolheight.cpp</text>
</a>
</g>
</g>
<!-- Node1&#45;&gt;Node15 -->
<g id="edge30" class="edge">
<title>Node1&#45;&gt;Node15</title>
<path fill="none" stroke="midnightblue" d="M1323.93,-239.68C1336.82,-230.57 1350.24,-220.05 1361.5,-209 1382.38,-188.52 1381.39,-178.14 1400.5,-156 1411.3,-143.49 1424.14,-130.48 1435.33,-119.67"/>
<polygon fill="midnightblue" stroke="midnightblue" points="1321.81,-236.89 1315.57,-245.45 1325.79,-242.65 1321.81,-236.89"/>
</g>
<!-- Node17 -->
<g id="node17" class="node">
<title>Node17</title>
<g id="a_node17"><a xlink:href="../../d7/df1/vtoollinepoint_8cpp.html" target="_top" xlink:title=" ">
<polygon fill="white" stroke="black" points="1410,-156.5 1410,-208.5 1567,-208.5 1567,-156.5 1410,-156.5"/>
<text text-anchor="start" x="1418" y="-196.5" font-family="Helvetica,sans-Serif" font-size="10.00">src/libs/vtools/tools</text>
<text text-anchor="start" x="1418" y="-185.5" font-family="Helvetica,sans-Serif" font-size="10.00">/drawTools/toolpoint</text>
<text text-anchor="start" x="1418" y="-174.5" font-family="Helvetica,sans-Serif" font-size="10.00">/toolsinglepoint/toollinepoint</text>
<text text-anchor="middle" x="1488.5" y="-163.5" font-family="Helvetica,sans-Serif" font-size="10.00">/vtoollinepoint.cpp</text>
</a>
</g>
</g>
<!-- Node1&#45;&gt;Node17 -->
<g id="edge24" class="edge">
<title>Node1&#45;&gt;Node17</title>
<path fill="none" stroke="midnightblue" d="M1345.65,-241.58C1371.97,-230.88 1401.56,-218.85 1426.95,-208.52"/>
<polygon fill="midnightblue" stroke="midnightblue" points="1344.06,-238.44 1336.11,-245.45 1346.69,-244.93 1344.06,-238.44"/>
</g>
<!-- Node18 -->
<g id="node18" class="node">
<title>Node18</title>
<g id="a_node18"><a xlink:href="../../de/d1f/vtoollineintersectaxis_8h.html" target="_top" xlink:title=" ">
<polygon fill="white" stroke="black" points="1585,-156.5 1585,-208.5 1742,-208.5 1742,-156.5 1585,-156.5"/>
<text text-anchor="start" x="1593" y="-196.5" font-family="Helvetica,sans-Serif" font-size="10.00">src/libs/vtools/tools</text>
<text text-anchor="start" x="1593" y="-185.5" font-family="Helvetica,sans-Serif" font-size="10.00">/drawTools/toolpoint</text>
<text text-anchor="start" x="1593" y="-174.5" font-family="Helvetica,sans-Serif" font-size="10.00">/toolsinglepoint/toollinepoint</text>
<text text-anchor="middle" x="1663.5" y="-163.5" font-family="Helvetica,sans-Serif" font-size="10.00">/vtoollineintersectaxis.h</text>
</a>
</g>
</g>
<!-- Node1&#45;&gt;Node18 -->
<g id="edge25" class="edge">
<title>Node1&#45;&gt;Node18</title>
<path fill="none" stroke="midnightblue" d="M1363.01,-254.36C1423.2,-242.91 1504.49,-226.51 1575.5,-209 1578.59,-208.24 1581.73,-207.44 1584.9,-206.62"/>
<polygon fill="midnightblue" stroke="midnightblue" points="1362.33,-250.92 1353.16,-256.22 1363.64,-257.8 1362.33,-250.92"/>
</g>
<!-- Node19 -->
<g id="node19" class="node">
<title>Node19</title>
<g id="a_node19"><a xlink:href="../../db/d82/vtoollineintersectaxis_8cpp.html" target="_top" xlink:title=" ">
<polygon fill="white" stroke="black" points="1752,-67.5 1752,-119.5 1909,-119.5 1909,-67.5 1752,-67.5"/>
<text text-anchor="start" x="1760" y="-107.5" font-family="Helvetica,sans-Serif" font-size="10.00">src/libs/vtools/tools</text>
<text text-anchor="start" x="1760" y="-96.5" font-family="Helvetica,sans-Serif" font-size="10.00">/drawTools/toolpoint</text>
<text text-anchor="start" x="1760" y="-85.5" font-family="Helvetica,sans-Serif" font-size="10.00">/toolsinglepoint/toollinepoint</text>
<text text-anchor="middle" x="1830.5" y="-74.5" font-family="Helvetica,sans-Serif" font-size="10.00">/vtoollineintersectaxis.cpp</text>
</a>
</g>
</g>
<!-- Node1&#45;&gt;Node19 -->
<g id="edge29" class="edge">
<title>Node1&#45;&gt;Node19</title>
<path fill="none" stroke="midnightblue" d="M1363.33,-267.51C1482.7,-262.08 1687.22,-247.34 1750.5,-209 1784.72,-188.27 1808.06,-146.69 1820.33,-119.76"/>
<polygon fill="midnightblue" stroke="midnightblue" points="1362.95,-264.03 1353.12,-267.97 1363.26,-271.02 1362.95,-264.03"/>
</g>
<!-- Node21 -->
<g id="node21" class="node">
<title>Node21</title>
<g id="a_node21"><a xlink:href="../../da/d73/vtoolnormal_8h.html" target="_top" xlink:title=" ">
<polygon fill="white" stroke="black" points="1888,-156.5 1888,-208.5 2045,-208.5 2045,-156.5 1888,-156.5"/>
<text text-anchor="start" x="1896" y="-196.5" font-family="Helvetica,sans-Serif" font-size="10.00">src/libs/vtools/tools</text>
<text text-anchor="start" x="1896" y="-185.5" font-family="Helvetica,sans-Serif" font-size="10.00">/drawTools/toolpoint</text>
<text text-anchor="start" x="1896" y="-174.5" font-family="Helvetica,sans-Serif" font-size="10.00">/toolsinglepoint/toollinepoint</text>
<text text-anchor="middle" x="1966.5" y="-163.5" font-family="Helvetica,sans-Serif" font-size="10.00">/vtoolnormal.h</text>
</a>
</g>
</g>
<!-- Node1&#45;&gt;Node21 -->
<g id="edge31" class="edge">
<title>Node1&#45;&gt;Node21</title>
<path fill="none" stroke="midnightblue" d="M1363.45,-262.27C1472.05,-251.82 1661.18,-232.31 1822.5,-209 1843.73,-205.93 1866.64,-202.11 1887.8,-198.37"/>
<polygon fill="midnightblue" stroke="midnightblue" points="1362.82,-258.81 1353.2,-263.25 1363.49,-265.78 1362.82,-258.81"/>
</g>
<!-- Node22 -->
<g id="node22" class="node">
<title>Node22</title>
<g id="a_node22"><a xlink:href="../../d4/ddb/vtoolnormal_8cpp.html" target="_top" xlink:title=" ">
<polygon fill="white" stroke="black" points="2094,-67.5 2094,-119.5 2251,-119.5 2251,-67.5 2094,-67.5"/>
<text text-anchor="start" x="2102" y="-107.5" font-family="Helvetica,sans-Serif" font-size="10.00">src/libs/vtools/tools</text>
<text text-anchor="start" x="2102" y="-96.5" font-family="Helvetica,sans-Serif" font-size="10.00">/drawTools/toolpoint</text>
<text text-anchor="start" x="2102" y="-85.5" font-family="Helvetica,sans-Serif" font-size="10.00">/toolsinglepoint/toollinepoint</text>
<text text-anchor="middle" x="2172.5" y="-74.5" font-family="Helvetica,sans-Serif" font-size="10.00">/vtoolnormal.cpp</text>
</a>
</g>
</g>
<!-- Node1&#45;&gt;Node22 -->
<g id="edge35" class="edge">
<title>Node1&#45;&gt;Node22</title>
<path fill="none" stroke="midnightblue" d="M1363.31,-270.93C1540.73,-270.59 1932.35,-263.46 2053.5,-209 2096.91,-189.49 2134.06,-147.14 2154.81,-119.77"/>
<polygon fill="midnightblue" stroke="midnightblue" points="1363.22,-267.43 1353.23,-270.94 1363.23,-274.43 1363.22,-267.43"/>
</g>
<!-- Node24 -->
<g id="node24" class="node">
<title>Node24</title>
<g id="a_node24"><a xlink:href="../../d5/deb/vtoolshoulderpoint_8h.html" target="_top" xlink:title=" ">
<polygon fill="white" stroke="black" points="2224,-156.5 2224,-208.5 2381,-208.5 2381,-156.5 2224,-156.5"/>
<text text-anchor="start" x="2232" y="-196.5" font-family="Helvetica,sans-Serif" font-size="10.00">src/libs/vtools/tools</text>
<text text-anchor="start" x="2232" y="-185.5" font-family="Helvetica,sans-Serif" font-size="10.00">/drawTools/toolpoint</text>
<text text-anchor="start" x="2232" y="-174.5" font-family="Helvetica,sans-Serif" font-size="10.00">/toolsinglepoint/toollinepoint</text>
<text text-anchor="middle" x="2302.5" y="-163.5" font-family="Helvetica,sans-Serif" font-size="10.00">/vtoolshoulderpoint.h</text>
</a>
</g>
</g>
<!-- Node1&#45;&gt;Node24 -->
<g id="edge36" class="edge">
<title>Node1&#45;&gt;Node24</title>
<path fill="none" stroke="midnightblue" d="M1363.22,-266.89C1521,-259.88 1860.58,-242.13 2145.5,-209 2171.01,-206.03 2198.7,-201.86 2223.63,-197.74"/>
<polygon fill="midnightblue" stroke="midnightblue" points="1362.93,-263.4 1353.09,-267.34 1363.24,-270.39 1362.93,-263.4"/>
</g>
<!-- Node25 -->
<g id="node25" class="node">
<title>Node25</title>
<g id="a_node25"><a xlink:href="../../dd/dab/vtoolshoulderpoint_8cpp.html" target="_top" xlink:title=" ">
<polygon fill="white" stroke="black" points="2448,-67.5 2448,-119.5 2605,-119.5 2605,-67.5 2448,-67.5"/>
<text text-anchor="start" x="2456" y="-107.5" font-family="Helvetica,sans-Serif" font-size="10.00">src/libs/vtools/tools</text>
<text text-anchor="start" x="2456" y="-96.5" font-family="Helvetica,sans-Serif" font-size="10.00">/drawTools/toolpoint</text>
<text text-anchor="start" x="2456" y="-85.5" font-family="Helvetica,sans-Serif" font-size="10.00">/toolsinglepoint/toollinepoint</text>
<text text-anchor="middle" x="2526.5" y="-74.5" font-family="Helvetica,sans-Serif" font-size="10.00">/vtoolshoulderpoint.cpp</text>
</a>
</g>
</g>
<!-- Node1&#45;&gt;Node25 -->
<g id="edge40" class="edge">
<title>Node1&#45;&gt;Node25</title>
<path fill="none" stroke="midnightblue" d="M1363.21,-268.84C1610.58,-263.75 2296.15,-246.4 2390.5,-209 2438.42,-190 2481.69,-147.07 2505.99,-119.51"/>
<polygon fill="midnightblue" stroke="midnightblue" points="1363.1,-265.34 1353.18,-269.04 1363.25,-272.34 1363.1,-265.34"/>
</g>
<!-- Node3 -->
<g id="node3" class="node">
<title>Node3</title>
<g id="a_node3"><a xlink:href="../../d4/d56/drawtools_8h.html" target="_top" xlink:title=" ">
<polygon fill="white" stroke="black" points="1070.5,-78.5 1070.5,-108.5 1198.5,-108.5 1198.5,-78.5 1070.5,-78.5"/>
<text text-anchor="start" x="1078.5" y="-96.5" font-family="Helvetica,sans-Serif" font-size="10.00">src/libs/vtools/tools</text>
<text text-anchor="middle" x="1134.5" y="-85.5" font-family="Helvetica,sans-Serif" font-size="10.00">/drawTools/drawtools.h</text>
</a>
</g>
</g>
<!-- Node2&#45;&gt;Node3 -->
<g id="edge2" class="edge">
<title>Node2&#45;&gt;Node3</title>
<path fill="none" stroke="midnightblue" d="M760.28,-162.8C772.75,-160.38 785.43,-158.04 797.5,-156 913.82,-136.29 945.73,-147.35 1060.5,-120 1073.06,-117.01 1086.49,-112.72 1098.41,-108.52"/>
<polygon fill="midnightblue" stroke="midnightblue" points="759.47,-159.39 750.33,-164.74 760.82,-166.26 759.47,-159.39"/>
</g>
<!-- Node2&#45;&gt;Node5 -->
<g id="edge4" class="edge">
<title>Node2&#45;&gt;Node5</title>
<path fill="none" stroke="midnightblue" d="M600.02,-152.58C573.58,-141.88 543.85,-129.85 518.33,-119.52"/>
<polygon fill="midnightblue" stroke="midnightblue" points="599.02,-155.95 609.6,-156.45 601.64,-149.46 599.02,-155.95"/>
</g>
<!-- Node4 -->
<g id="node4" class="node">
<title>Node4</title>
<g id="a_node4"><a xlink:href="../../d5/da5/tools_8h.html" target="_top" xlink:title=" ">
<polygon fill="white" stroke="black" points="1079,-0.5 1079,-30.5 1190,-30.5 1190,-0.5 1079,-0.5"/>
<text text-anchor="start" x="1087" y="-18.5" font-family="Helvetica,sans-Serif" font-size="10.00">src/libs/vtools/tools</text>
<text text-anchor="middle" x="1134.5" y="-7.5" font-family="Helvetica,sans-Serif" font-size="10.00">/tools.h</text>
</a>
</g>
</g>
<!-- Node3&#45;&gt;Node4 -->
<g id="edge3" class="edge">
<title>Node3&#45;&gt;Node4</title>
<path fill="none" stroke="midnightblue" d="M1134.5,-68.09C1134.5,-55.76 1134.5,-41.22 1134.5,-30.73"/>
<polygon fill="midnightblue" stroke="midnightblue" points="1131,-68.2 1134.5,-78.2 1138,-68.21 1131,-68.2"/>
</g>
<!-- Node7&#45;&gt;Node3 -->
<g id="edge8" class="edge">
<title>Node7&#45;&gt;Node3</title>
<path fill="none" stroke="midnightblue" d="M442.28,-170.92C484.95,-166.03 536.84,-160.35 583.5,-156 795.19,-136.28 852.29,-162.99 1060.5,-120 1073.54,-117.31 1087.44,-112.94 1099.63,-108.57"/>
<polygon fill="midnightblue" stroke="midnightblue" points="441.74,-167.46 432.2,-172.08 442.54,-174.42 441.74,-167.46"/>
</g>
<!-- Node7&#45;&gt;Node8 -->
<g id="edge9" class="edge">
<title>Node7&#45;&gt;Node8</title>
<path fill="none" stroke="midnightblue" d="M265.06,-153.52C230.41,-142.56 190.97,-130.08 157.32,-119.43"/>
<polygon fill="midnightblue" stroke="midnightblue" points="264.11,-156.89 274.7,-156.57 266.22,-150.22 264.11,-156.89"/>
</g>
<!-- Node9 -->
<g id="node9" class="node">
<title>Node9</title>
<g id="a_node9"><a xlink:href="../../db/dd5/vistoolcurveintersectaxis_8cpp.html" target="_top" xlink:title=" ">
<polygon fill="white" stroke="black" points="175.5,-78.5 175.5,-108.5 359.5,-108.5 359.5,-78.5 175.5,-78.5"/>
<text text-anchor="start" x="183.5" y="-96.5" font-family="Helvetica,sans-Serif" font-size="10.00">src/libs/vtools/visualization</text>
<text text-anchor="middle" x="267.5" y="-85.5" font-family="Helvetica,sans-Serif" font-size="10.00">/line/vistoolcurveintersectaxis.cpp</text>
</a>
</g>
</g>
<!-- Node7&#45;&gt;Node9 -->
<g id="edge10" class="edge">
<title>Node7&#45;&gt;Node9</title>
<path fill="none" stroke="midnightblue" d="M321.23,-148.85C307.56,-135.02 292.34,-119.63 281.6,-108.77"/>
<polygon fill="midnightblue" stroke="midnightblue" points="319.11,-151.68 328.63,-156.34 324.08,-146.76 319.11,-151.68"/>
</g>
<!-- Node10&#45;&gt;Node3 -->
<g id="edge12" class="edge">
<title>Node10&#45;&gt;Node3</title>
<path fill="none" stroke="midnightblue" d="M966.74,-153.12C1009.45,-138.19 1059.93,-120.55 1094.28,-108.55"/>
<polygon fill="midnightblue" stroke="midnightblue" points="965.47,-149.85 957.19,-156.45 967.78,-156.46 965.47,-149.85"/>
</g>
<!-- Node10&#45;&gt;Node6 -->
<g id="edge13" class="edge">
<title>Node10&#45;&gt;Node6</title>
<path fill="none" stroke="midnightblue" d="M802.7,-153.14C771.05,-142.3 735.22,-130.03 704.55,-119.52"/>
<polygon fill="midnightblue" stroke="midnightblue" points="801.78,-156.52 812.37,-156.45 804.05,-149.9 801.78,-156.52"/>
</g>
<!-- Node11 -->
<g id="node11" class="node">
<title>Node11</title>
<g id="a_node11"><a xlink:href="../../df/d33/vistoolbisector_8cpp.html" target="_top" xlink:title=" ">
<polygon fill="white" stroke="black" points="728,-78.5 728,-108.5 877,-108.5 877,-78.5 728,-78.5"/>
<text text-anchor="start" x="736" y="-96.5" font-family="Helvetica,sans-Serif" font-size="10.00">src/libs/vtools/visualization</text>
<text text-anchor="middle" x="802.5" y="-85.5" font-family="Helvetica,sans-Serif" font-size="10.00">/line/vistoolbisector.cpp</text>
</a>
</g>
</g>
<!-- Node10&#45;&gt;Node11 -->
<g id="edge14" class="edge">
<title>Node10&#45;&gt;Node11</title>
<path fill="none" stroke="midnightblue" d="M854.35,-148.85C841.16,-135.02 826.47,-119.63 816.11,-108.77"/>
<polygon fill="midnightblue" stroke="midnightblue" points="852.06,-151.52 861.49,-156.34 857.12,-146.68 852.06,-151.52"/>
</g>
<!-- Node12&#45;&gt;Node3 -->
<g id="edge17" class="edge">
<title>Node12&#45;&gt;Node3</title>
<path fill="none" stroke="midnightblue" d="M1113.41,-146.92C1118.77,-133.61 1124.59,-119.13 1128.76,-108.77"/>
<polygon fill="midnightblue" stroke="midnightblue" points="1110.11,-145.75 1109.62,-156.34 1116.6,-148.36 1110.11,-145.75"/>
</g>
<!-- Node12&#45;&gt;Node13 -->
<g id="edge18" class="edge">
<title>Node12&#45;&gt;Node13</title>
<path fill="none" stroke="midnightblue" d="M1054.61,-150.5C1039.93,-140.37 1023.83,-129.25 1009.86,-119.61"/>
<polygon fill="midnightblue" stroke="midnightblue" points="1052.84,-153.53 1063.06,-156.34 1056.82,-147.77 1052.84,-153.53"/>
</g>
<!-- Node14&#45;&gt;Node3 -->
<g id="edge21" class="edge">
<title>Node14&#45;&gt;Node3</title>
<path fill="none" stroke="midnightblue" d="M1225.29,-150.92C1202.04,-136.47 1175.43,-119.93 1157.05,-108.52"/>
<polygon fill="midnightblue" stroke="midnightblue" points="1223.67,-154.03 1234.01,-156.34 1227.36,-148.09 1223.67,-154.03"/>
</g>
<!-- Node14&#45;&gt;Node15 -->
<g id="edge22" class="edge">
<title>Node14&#45;&gt;Node15</title>
<path fill="none" stroke="midnightblue" d="M1337.92,-152.15C1360.81,-141.56 1386.41,-129.71 1408.43,-119.52"/>
<polygon fill="midnightblue" stroke="midnightblue" points="1336.23,-149.08 1328.63,-156.45 1339.17,-155.43 1336.23,-149.08"/>
</g>
<!-- Node16 -->
<g id="node16" class="node">
<title>Node16</title>
<g id="a_node16"><a xlink:href="../../d5/dc6/vistoolheight_8cpp.html" target="_top" xlink:title=" ">
<polygon fill="white" stroke="black" points="1217,-78.5 1217,-108.5 1366,-108.5 1366,-78.5 1217,-78.5"/>
<text text-anchor="start" x="1225" y="-96.5" font-family="Helvetica,sans-Serif" font-size="10.00">src/libs/vtools/visualization</text>
<text text-anchor="middle" x="1291.5" y="-85.5" font-family="Helvetica,sans-Serif" font-size="10.00">/line/vistoolheight.cpp</text>
</a>
</g>
</g>
<!-- Node14&#45;&gt;Node16 -->
<g id="edge23" class="edge">
<title>Node14&#45;&gt;Node16</title>
<path fill="none" stroke="midnightblue" d="M1281.41,-146.15C1283.97,-133.05 1286.73,-118.93 1288.71,-108.77"/>
<polygon fill="midnightblue" stroke="midnightblue" points="1277.9,-145.85 1279.42,-156.34 1284.77,-147.19 1277.9,-145.85"/>
</g>
<!-- Node18&#45;&gt;Node3 -->
<g id="edge26" class="edge">
<title>Node18&#45;&gt;Node3</title>
<path fill="none" stroke="midnightblue" d="M1575.12,-156.11C1412.27,-126.16 1364.86,-154.66 1207.5,-120 1194.78,-117.2 1181.22,-112.86 1169.28,-108.55"/>
<polygon fill="midnightblue" stroke="midnightblue" points="1574.52,-159.56 1584.99,-157.97 1575.81,-152.68 1574.52,-159.56"/>
</g>
<!-- Node18&#45;&gt;Node19 -->
<g id="edge27" class="edge">
<title>Node18&#45;&gt;Node19</title>
<path fill="none" stroke="midnightblue" d="M1720.83,-151.64C1740.85,-141.2 1763.1,-129.61 1782.31,-119.61"/>
<polygon fill="midnightblue" stroke="midnightblue" points="1719.05,-148.61 1711.8,-156.34 1722.29,-154.82 1719.05,-148.61"/>
</g>
<!-- Node20 -->
<g id="node20" class="node">
<title>Node20</title>
<g id="a_node20"><a xlink:href="../../d0/ddf/vistoollineintersectaxis_8cpp.html" target="_top" xlink:title=" ">
<polygon fill="white" stroke="black" points="1559,-78.5 1559,-108.5 1734,-108.5 1734,-78.5 1559,-78.5"/>
<text text-anchor="start" x="1567" y="-96.5" font-family="Helvetica,sans-Serif" font-size="10.00">src/libs/vtools/visualization</text>
<text text-anchor="middle" x="1646.5" y="-85.5" font-family="Helvetica,sans-Serif" font-size="10.00">/line/vistoollineintersectaxis.cpp</text>
</a>
</g>
</g>
<!-- Node18&#45;&gt;Node20 -->
<g id="edge28" class="edge">
<title>Node18&#45;&gt;Node20</title>
<path fill="none" stroke="midnightblue" d="M1656.59,-146.15C1654.03,-133.05 1651.27,-118.93 1649.29,-108.77"/>
<polygon fill="midnightblue" stroke="midnightblue" points="1653.23,-147.19 1658.58,-156.34 1660.1,-145.85 1653.23,-147.19"/>
</g>
<!-- Node21&#45;&gt;Node3 -->
<g id="edge32" class="edge">
<title>Node21&#45;&gt;Node3</title>
<path fill="none" stroke="midnightblue" d="M1877.6,-169.96C1838.64,-165.18 1792.35,-159.86 1750.5,-156 1509.66,-133.81 1444.49,-168.32 1207.5,-120 1194.48,-117.34 1180.61,-112.93 1168.5,-108.51"/>
<polygon fill="midnightblue" stroke="midnightblue" points="1877.51,-173.48 1887.86,-171.23 1878.37,-166.53 1877.51,-173.48"/>
</g>
<!-- Node21&#45;&gt;Node22 -->
<g id="edge33" class="edge">
<title>Node21&#45;&gt;Node22</title>
<path fill="none" stroke="midnightblue" d="M2035.32,-152.44C2060.57,-141.77 2088.92,-129.8 2113.25,-119.52"/>
<polygon fill="midnightblue" stroke="midnightblue" points="2033.66,-149.34 2025.81,-156.45 2036.38,-155.79 2033.66,-149.34"/>
</g>
<!-- Node23 -->
<g id="node23" class="node">
<title>Node23</title>
<g id="a_node23"><a xlink:href="../../db/ded/vistoolnormal_8cpp.html" target="_top" xlink:title=" ">
<polygon fill="white" stroke="black" points="1927,-78.5 1927,-108.5 2076,-108.5 2076,-78.5 1927,-78.5"/>
<text text-anchor="start" x="1935" y="-96.5" font-family="Helvetica,sans-Serif" font-size="10.00">src/libs/vtools/visualization</text>
<text text-anchor="middle" x="2001.5" y="-85.5" font-family="Helvetica,sans-Serif" font-size="10.00">/line/vistoolnormal.cpp</text>
</a>
</g>
</g>
<!-- Node21&#45;&gt;Node23 -->
<g id="edge34" class="edge">
<title>Node21&#45;&gt;Node23</title>
<path fill="none" stroke="midnightblue" d="M1980.41,-146.92C1985.77,-133.61 1991.59,-119.13 1995.76,-108.77"/>
<polygon fill="midnightblue" stroke="midnightblue" points="1977.11,-145.75 1976.62,-156.34 1983.6,-148.36 1977.11,-145.75"/>
</g>
<!-- Node24&#45;&gt;Node3 -->
<g id="edge37" class="edge">
<title>Node24&#45;&gt;Node3</title>
<path fill="none" stroke="midnightblue" d="M2213.88,-171.13C2166.38,-165.9 2106.81,-159.86 2053.5,-156 1678.14,-128.82 1577.12,-190.82 1207.5,-120 1194.32,-117.47 1180.29,-113.03 1168.1,-108.55"/>
<polygon fill="midnightblue" stroke="midnightblue" points="2213.5,-174.61 2223.82,-172.23 2214.27,-167.65 2213.5,-174.61"/>
</g>
<!-- Node24&#45;&gt;Node25 -->
<g id="edge38" class="edge">
<title>Node24&#45;&gt;Node25</title>
<path fill="none" stroke="midnightblue" d="M2376.61,-152.72C2404.25,-141.98 2435.38,-129.89 2462.08,-119.52"/>
<polygon fill="midnightblue" stroke="midnightblue" points="2375.04,-149.57 2366.99,-156.45 2377.58,-156.09 2375.04,-149.57"/>
</g>
<!-- Node26 -->
<g id="node26" class="node">
<title>Node26</title>
<g id="a_node26"><a xlink:href="../../d8/db4/vistoolshoulderpoint_8cpp.html" target="_top" xlink:title=" ">
<polygon fill="white" stroke="black" points="2269,-78.5 2269,-108.5 2430,-108.5 2430,-78.5 2269,-78.5"/>
<text text-anchor="start" x="2277" y="-96.5" font-family="Helvetica,sans-Serif" font-size="10.00">src/libs/vtools/visualization</text>
<text text-anchor="middle" x="2349.5" y="-85.5" font-family="Helvetica,sans-Serif" font-size="10.00">/line/vistoolshoulderpoint.cpp</text>
</a>
</g>
</g>
<!-- Node24&#45;&gt;Node26 -->
<g id="edge39" class="edge">
<title>Node24&#45;&gt;Node26</title>
<path fill="none" stroke="midnightblue" d="M2320.97,-147.31C2328.22,-133.89 2336.14,-119.23 2341.79,-108.77"/>
<polygon fill="midnightblue" stroke="midnightblue" points="2317.77,-145.87 2316.09,-156.34 2323.93,-149.2 2317.77,-145.87"/>
</g>
</g>
</svg>
        <g id="navigator" transform="translate(0 0)" fill="#404254">
                <rect fill="#f2f5e9" fill-opacity="0.5" stroke="#606060" stroke-width=".5" x="0" y="0" width="60" height="60"/>
                <use id="zoomplus" xlink:href="#zoomPlus" x="17" y="9" onmousedown="handleZoom(evt,'in')"/>
                <use id="zoomminus" xlink:href="#zoomMin" x="42" y="9" onmousedown="handleZoom(evt,'out')"/>
                <use id="reset" xlink:href="#resetDef" x="30" y="36" onmousedown="handleReset()"/>
                <g id="arrowUp" xlink:href="#dirArrow" transform="translate(30 24)" onmousedown="handlePan(0,-1)">
                  <use xlink:href="#rim" fill="#404040">
                        <set attributeName="fill" to="#808080" begin="arrowUp.mouseover" end="arrowUp.mouseout"/>
                  </use>
                  <path fill="none" stroke="white" stroke-width="1.5" d="M0,-3.0v7 M-2.5,-0.5L0,-3.0L2.5,-0.5"/>
                </g>
                <g id="arrowRight" xlink:href="#dirArrow" transform="rotate(90) translate(36 -43)" onmousedown="handlePan(1,0)">
                  <use xlink:href="#rim" fill="#404040">
                        <set attributeName="fill" to="#808080" begin="arrowRight.mouseover" end="arrowRight.mouseout"/>
                  </use>
                  <path fill="none" stroke="white" stroke-width="1.5" d="M0,-3.0v7 M-2.5,-0.5L0,-3.0L2.5,-0.5"/>
                </g>
                <g id="arrowDown" xlink:href="#dirArrow" transform="rotate(180) translate(-30 -48)" onmousedown="handlePan(0,1)">
                  <use xlink:href="#rim" fill="#404040">
                        <set attributeName="fill" to="#808080" begin="arrowDown.mouseover" end="arrowDown.mouseout"/>
                  </use>
                  <path fill="none" stroke="white" stroke-width="1.5" d="M0,-3.0v7 M-2.5,-0.5L0,-3.0L2.5,-0.5"/>
                </g>
                <g id="arrowLeft" xlink:href="#dirArrow" transform="rotate(270) translate(-36 17)" onmousedown="handlePan(-1,0)">
                  <use xlink:href="#rim" fill="#404040">
                        <set attributeName="fill" to="#808080" begin="arrowLeft.mouseover" end="arrowLeft.mouseout"/>
                  </use>
                  <path fill="none" stroke="white" stroke-width="1.5" d="M0,-3.0v7 M-2.5,-0.5L0,-3.0L2.5,-0.5"/>
                </g>
        </g>
        <svg viewBox="0 0 15 15" width="100%" height="30px" preserveAspectRatio="xMaxYMin meet">
         <g id="arrow_out" transform="scale(0.3 0.3)">
          <a xlink:href="vtoollinepoint_8h__dep__incl_org.svg" target="_base">
           <rect id="button" ry="5" rx="5" y="6" x="6" height="38" width="38"
                fill="#f2f5e9" fill-opacity="0.5" stroke="#606060" stroke-width="1.0"/>
           <path id="arrow"
             d="M 11.500037,31.436501 C 11.940474,20.09759 22.043105,11.32322 32.158766,21.979434 L 37.068811,17.246167 C 37.068811,17.246167 37.088388,32 37.088388,32 L 22.160133,31.978069 C 22.160133,31.978069 26.997745,27.140456 26.997745,27.140456 C 18.528582,18.264221 13.291696,25.230495 11.500037,31.436501 z"
             style="fill:#404040;"/>
          </a>
         </g>
        </svg>
</svg>
