<?xml version="1.0" encoding="UTF-8" standalone="no"?>
<!DOCTYPE svg PUBLIC "-//W3C//DTD SVG 1.1//EN"
 "http://www.w3.org/Graphics/SVG/1.1/DTD/svg11.dtd">
<!-- Generated by graphviz version 2.43.0 (0)
 -->
<!-- Title: src/libs/vpatterndb/variables/vincrement.h Pages: 1 -->
<svg width="6578pt" height="385pt"
 viewBox="0.00 0.00 6577.50 385.00" xmlns="http://www.w3.org/2000/svg" xmlns:xlink="http://www.w3.org/1999/xlink">
<g id="graph0" class="graph" transform="scale(1 1) rotate(0) translate(4 381)">
<title>src/libs/vpatterndb/variables/vincrement.h</title>
<polygon fill="white" stroke="transparent" points="-4,4 -4,-381 6573.5,-381 6573.5,4 -4,4"/>
<!-- Node1 -->
<g id="node1" class="node">
<title>Node1</title>
<g id="a_node1"><a xlink:title=" ">
<polygon fill="#bfbfbf" stroke="black" points="5290,-346.5 5290,-376.5 5422,-376.5 5422,-346.5 5290,-346.5"/>
<text text-anchor="start" x="5298" y="-364.5" font-family="Helvetica,sans-Serif" font-size="10.00">src/libs/vpatterndb</text>
<text text-anchor="middle" x="5356" y="-353.5" font-family="Helvetica,sans-Serif" font-size="10.00">/variables/vincrement.h</text>
</a>
</g>
</g>
<!-- Node2 -->
<g id="node2" class="node">
<title>Node2</title>
<g id="a_node2"><a xlink:href="../../d6/de6/vincrement_8cpp.html" target="_top" xlink:title=" ">
<polygon fill="white" stroke="black" points="5465.5,-67.5 5465.5,-97.5 5608.5,-97.5 5608.5,-67.5 5465.5,-67.5"/>
<text text-anchor="start" x="5473.5" y="-85.5" font-family="Helvetica,sans-Serif" font-size="10.00">src/libs/vpatterndb</text>
<text text-anchor="middle" x="5537" y="-74.5" font-family="Helvetica,sans-Serif" font-size="10.00">/variables/vincrement.cpp</text>
</a>
</g>
</g>
<!-- Node1&#45;&gt;Node2 -->
<g id="edge1" class="edge">
<title>Node1&#45;&gt;Node2</title>
<path fill="none" stroke="midnightblue" d="M5355.33,-336.24C5355.4,-290.95 5361.9,-192.82 5413,-134 5428.09,-116.63 5450.06,-105.14 5471.32,-97.58"/>
<polygon fill="midnightblue" stroke="midnightblue" points="5351.83,-336.35 5355.43,-346.31 5358.83,-336.28 5351.83,-336.35"/>
</g>
<!-- Node3 -->
<g id="node3" class="node">
<title>Node3</title>
<g id="a_node3"><a xlink:href="../../de/dca/variables_8h.html" target="_top" xlink:title=" ">
<polygon fill="white" stroke="black" points="5412.5,-279.5 5412.5,-309.5 5519.5,-309.5 5519.5,-279.5 5412.5,-279.5"/>
<text text-anchor="start" x="5420.5" y="-297.5" font-family="Helvetica,sans-Serif" font-size="10.00">src/libs/vpatterndb</text>
<text text-anchor="middle" x="5466" y="-286.5" font-family="Helvetica,sans-Serif" font-size="10.00">/variables.h</text>
</a>
</g>
</g>
<!-- Node1&#45;&gt;Node3 -->
<g id="edge2" class="edge">
<title>Node1&#45;&gt;Node3</title>
<path fill="none" stroke="midnightblue" d="M5388.5,-341.3C5405.71,-331.12 5426.48,-318.85 5442.18,-309.58"/>
<polygon fill="midnightblue" stroke="midnightblue" points="5386.7,-338.3 5379.87,-346.4 5390.26,-344.32 5386.7,-338.3"/>
</g>
<!-- Node36 -->
<g id="node31" class="node">
<title>Node36</title>
<g id="a_node31"><a xlink:href="../../d6/d46/vcontainer_8cpp.html" target="_top" xlink:title=" ">
<polygon fill="white" stroke="black" points="1320.5,-67.5 1320.5,-97.5 1427.5,-97.5 1427.5,-67.5 1320.5,-67.5"/>
<text text-anchor="start" x="1328.5" y="-85.5" font-family="Helvetica,sans-Serif" font-size="10.00">src/libs/vpatterndb</text>
<text text-anchor="middle" x="1374" y="-74.5" font-family="Helvetica,sans-Serif" font-size="10.00">/vcontainer.cpp</text>
</a>
</g>
</g>
<!-- Node1&#45;&gt;Node36 -->
<g id="edge61" class="edge">
<title>Node1&#45;&gt;Node36</title>
<path fill="none" stroke="midnightblue" d="M5279.53,-359.19C4818.75,-350.95 2407.72,-302.31 1680,-176 1579.93,-158.63 1466.56,-118.83 1410.05,-97.54"/>
<polygon fill="midnightblue" stroke="midnightblue" points="5279.67,-362.7 5289.73,-359.38 5279.79,-355.7 5279.67,-362.7"/>
</g>
<!-- Node4 -->
<g id="node4" class="node">
<title>Node4</title>
<g id="a_node4"><a xlink:href="../../d3/df7/vcontainer_8h.html" target="_top" xlink:title=" ">
<polygon fill="white" stroke="black" points="5490.5,-212.5 5490.5,-242.5 5597.5,-242.5 5597.5,-212.5 5490.5,-212.5"/>
<text text-anchor="start" x="5498.5" y="-230.5" font-family="Helvetica,sans-Serif" font-size="10.00">src/libs/vpatterndb</text>
<text text-anchor="middle" x="5544" y="-219.5" font-family="Helvetica,sans-Serif" font-size="10.00">/vcontainer.h</text>
</a>
</g>
</g>
<!-- Node3&#45;&gt;Node4 -->
<g id="edge3" class="edge">
<title>Node3&#45;&gt;Node4</title>
<path fill="none" stroke="midnightblue" d="M5490.74,-272.88C5502.59,-263.01 5516.48,-251.43 5527.11,-242.58"/>
<polygon fill="midnightblue" stroke="midnightblue" points="5488.37,-270.31 5482.92,-279.4 5492.85,-275.68 5488.37,-270.31"/>
</g>
<!-- Node5 -->
<g id="node5" class="node">
<title>Node5</title>
<g id="a_node5"><a xlink:href="../../dc/db7/measurements_8h.html" target="_top" xlink:title=" ">
<polygon fill="white" stroke="black" points="6390.5,-145.5 6390.5,-164.5 6569.5,-164.5 6569.5,-145.5 6390.5,-145.5"/>
<text text-anchor="middle" x="6480" y="-152.5" font-family="Helvetica,sans-Serif" font-size="10.00">src/libs/vformat/measurements.h</text>
</a>
</g>
</g>
<!-- Node4&#45;&gt;Node5 -->
<g id="edge4" class="edge">
<title>Node4&#45;&gt;Node5</title>
<path fill="none" stroke="midnightblue" d="M5607.87,-225.44C5747.64,-222.49 6090.96,-211.91 6376,-176 6397.89,-173.24 6422.11,-168.68 6441.67,-164.6"/>
<polygon fill="midnightblue" stroke="midnightblue" points="5607.68,-221.94 5597.76,-225.64 5607.83,-228.94 5607.68,-221.94"/>
</g>
<!-- Node6 -->
<g id="node6" class="node">
<title>Node6</title>
<g id="a_node6"><a xlink:href="../../d9/de3/measurements_8cpp.html" target="_top" xlink:title=" ">
<polygon fill="white" stroke="black" points="6326,-73 6326,-92 6516,-92 6516,-73 6326,-73"/>
<text text-anchor="middle" x="6421" y="-80" font-family="Helvetica,sans-Serif" font-size="10.00">src/libs/vformat/measurements.cpp</text>
</a>
</g>
</g>
<!-- Node4&#45;&gt;Node6 -->
<g id="edge6" class="edge">
<title>Node4&#45;&gt;Node6</title>
<path fill="none" stroke="midnightblue" d="M5607.82,-225.33C5785.66,-221.68 6278.08,-208.71 6343,-176 6352.66,-171.13 6397.28,-114.2 6414.34,-92.15"/>
<polygon fill="midnightblue" stroke="midnightblue" points="5607.5,-221.84 5597.57,-225.54 5607.64,-228.84 5607.5,-221.84"/>
</g>
<!-- Node7 -->
<g id="node7" class="node">
<title>Node7</title>
<g id="a_node7"><a xlink:href="../../d6/de0/vlayoutpiece_8h.html" target="_top" xlink:title=" ">
<polygon fill="white" stroke="black" points="547,-145.5 547,-164.5 713,-164.5 713,-145.5 547,-145.5"/>
<text text-anchor="middle" x="630" y="-152.5" font-family="Helvetica,sans-Serif" font-size="10.00">src/libs/vlayout/vlayoutpiece.h</text>
</a>
</g>
</g>
<!-- Node4&#45;&gt;Node7 -->
<g id="edge7" class="edge">
<title>Node4&#45;&gt;Node7</title>
<path fill="none" stroke="midnightblue" d="M5480.35,-225.68C5123.84,-221.05 3338.59,-197.72 1880,-176 1440.27,-169.45 913.54,-160.74 713.01,-157.39"/>
<polygon fill="midnightblue" stroke="midnightblue" points="5480.43,-229.18 5490.48,-225.81 5480.52,-222.18 5480.43,-229.18"/>
</g>
<!-- Node17 -->
<g id="node16" class="node">
<title>Node17</title>
<g id="a_node16"><a xlink:href="../../d8/d70/vtextmanager_8cpp.html" target="_top" xlink:title=" ">
<polygon fill="white" stroke="black" points="1446,-73 1446,-92 1628,-92 1628,-73 1446,-73"/>
<text text-anchor="middle" x="1537" y="-80" font-family="Helvetica,sans-Serif" font-size="10.00">src/libs/vlayout/vtextmanager.cpp</text>
</a>
</g>
</g>
<!-- Node4&#45;&gt;Node17 -->
<g id="edge18" class="edge">
<title>Node4&#45;&gt;Node17</title>
<path fill="none" stroke="midnightblue" d="M5480.45,-225.48C5039.31,-218.23 2427.84,-172.68 1637,-98 1621.28,-96.52 1604.26,-94.28 1588.78,-92.01"/>
<polygon fill="midnightblue" stroke="midnightblue" points="5480.4,-228.98 5490.46,-225.64 5480.52,-221.98 5480.4,-228.98"/>
</g>
<!-- Node18 -->
<g id="node17" class="node">
<title>Node18</title>
<g id="a_node17"><a xlink:href="../../d5/d74/vabstractapplication_8h.html" target="_top" xlink:title=" ">
<polygon fill="white" stroke="red" points="3405.5,-145.5 3405.5,-164.5 3600.5,-164.5 3600.5,-145.5 3405.5,-145.5"/>
<text text-anchor="middle" x="3503" y="-152.5" font-family="Helvetica,sans-Serif" font-size="10.00">src/libs/vmisc/vabstractapplication.h</text>
</a>
</g>
</g>
<!-- Node4&#45;&gt;Node18 -->
<g id="edge19" class="edge">
<title>Node4&#45;&gt;Node18</title>
<path fill="none" stroke="midnightblue" d="M5480.39,-224.3C5186.35,-214.15 3957.86,-171.71 3600.75,-159.38"/>
<polygon fill="midnightblue" stroke="midnightblue" points="5480.34,-227.8 5490.46,-224.65 5480.58,-220.81 5480.34,-227.8"/>
</g>
<!-- Node4&#45;&gt;Node36 -->
<g id="edge53" class="edge">
<title>Node4&#45;&gt;Node36</title>
<path fill="none" stroke="midnightblue" d="M5480.25,-226.3C5076.33,-224.94 2868.28,-215.74 2194,-176 1856.36,-156.1 1770.66,-153.37 1437,-98 1433.9,-97.49 1430.72,-96.91 1427.53,-96.29"/>
<polygon fill="midnightblue" stroke="midnightblue" points="5480.28,-229.8 5490.29,-226.34 5480.3,-222.8 5480.28,-229.8"/>
</g>
<!-- Node37 -->
<g id="node32" class="node">
<title>Node37</title>
<g id="a_node32"><a xlink:href="../../db/d11/vformula_8cpp.html" target="_top" xlink:title=" ">
<polygon fill="white" stroke="black" points="5215.5,-67.5 5215.5,-97.5 5322.5,-97.5 5322.5,-67.5 5215.5,-67.5"/>
<text text-anchor="start" x="5223.5" y="-85.5" font-family="Helvetica,sans-Serif" font-size="10.00">src/libs/vpatterndb</text>
<text text-anchor="middle" x="5269" y="-74.5" font-family="Helvetica,sans-Serif" font-size="10.00">/vformula.cpp</text>
</a>
</g>
</g>
<!-- Node4&#45;&gt;Node37 -->
<g id="edge55" class="edge">
<title>Node4&#45;&gt;Node37</title>
<path fill="none" stroke="midnightblue" d="M5480.54,-210.42C5452.54,-202.08 5419.76,-190.55 5392,-176 5349.64,-153.8 5306.38,-117.42 5284.19,-97.54"/>
<polygon fill="midnightblue" stroke="midnightblue" points="5479.65,-213.81 5490.23,-213.24 5481.6,-207.09 5479.65,-213.81"/>
</g>
<!-- Node38 -->
<g id="node33" class="node">
<title>Node38</title>
<g id="a_node33"><a xlink:href="../../df/d7a/vpiece_8cpp.html" target="_top" xlink:title=" ">
<polygon fill="white" stroke="black" points="5340.5,-67.5 5340.5,-97.5 5447.5,-97.5 5447.5,-67.5 5340.5,-67.5"/>
<text text-anchor="start" x="5348.5" y="-85.5" font-family="Helvetica,sans-Serif" font-size="10.00">src/libs/vpatterndb</text>
<text text-anchor="middle" x="5394" y="-74.5" font-family="Helvetica,sans-Serif" font-size="10.00">/vpiece.cpp</text>
</a>
</g>
</g>
<!-- Node4&#45;&gt;Node38 -->
<g id="edge58" class="edge">
<title>Node4&#45;&gt;Node38</title>
<path fill="none" stroke="midnightblue" d="M5480.4,-215.54C5456.04,-208.24 5430.03,-196.11 5413,-176 5394.14,-153.73 5392.32,-117.71 5392.96,-97.83"/>
<polygon fill="midnightblue" stroke="midnightblue" points="5479.78,-219 5490.35,-218.3 5481.65,-212.26 5479.78,-219"/>
</g>
<!-- Node40 -->
<g id="node35" class="node">
<title>Node40</title>
<g id="a_node35"><a xlink:href="../../d8/dba/vpiecenode_8cpp.html" target="_top" xlink:title=" ">
<polygon fill="white" stroke="black" points="5336.5,-0.5 5336.5,-30.5 5443.5,-30.5 5443.5,-0.5 5336.5,-0.5"/>
<text text-anchor="start" x="5344.5" y="-18.5" font-family="Helvetica,sans-Serif" font-size="10.00">src/libs/vpatterndb</text>
<text text-anchor="middle" x="5390" y="-7.5" font-family="Helvetica,sans-Serif" font-size="10.00">/vpiecenode.cpp</text>
</a>
</g>
</g>
<!-- Node4&#45;&gt;Node40 -->
<g id="edge56" class="edge">
<title>Node4&#45;&gt;Node40</title>
<path fill="none" stroke="midnightblue" d="M5560.14,-203.97C5586.71,-165.57 5634.99,-89.43 5617,-67 5595.69,-40.43 5503.84,-26.94 5443.7,-20.84"/>
<polygon fill="midnightblue" stroke="midnightblue" points="5557.09,-202.23 5554.22,-212.43 5562.82,-206.25 5557.09,-202.23"/>
</g>
<!-- Node57 -->
<g id="node45" class="node">
<title>Node57</title>
<g id="a_node45"><a xlink:href="../../d7/d8a/measurement__variable__p_8h.html" target="_top" xlink:title=" ">
<polygon fill="white" stroke="red" points="5622,-134.5 5622,-175.5 5758,-175.5 5758,-134.5 5622,-134.5"/>
<text text-anchor="start" x="5630" y="-163.5" font-family="Helvetica,sans-Serif" font-size="10.00">src/libs/vpatterndb</text>
<text text-anchor="start" x="5630" y="-152.5" font-family="Helvetica,sans-Serif" font-size="10.00">/variables/measurement</text>
<text text-anchor="middle" x="5690" y="-141.5" font-family="Helvetica,sans-Serif" font-size="10.00">_variable_p.h</text>
</a>
</g>
</g>
<!-- Node4&#45;&gt;Node57 -->
<g id="edge50" class="edge">
<title>Node4&#45;&gt;Node57</title>
<path fill="none" stroke="midnightblue" d="M5582.32,-208C5603,-198.01 5628.52,-185.69 5649.52,-175.55"/>
<polygon fill="midnightblue" stroke="midnightblue" points="5580.68,-204.9 5573.19,-212.4 5583.72,-211.21 5580.68,-204.9"/>
</g>
<!-- Node59 -->
<g id="node46" class="node">
<title>Node59</title>
<g id="a_node46"><a xlink:href="../../d1/de1/vincrement__p_8h.html" target="_top" xlink:title=" ">
<polygon fill="white" stroke="black" points="5422.5,-140 5422.5,-170 5565.5,-170 5565.5,-140 5422.5,-140"/>
<text text-anchor="start" x="5430.5" y="-158" font-family="Helvetica,sans-Serif" font-size="10.00">src/libs/vpatterndb</text>
<text text-anchor="middle" x="5494" y="-147" font-family="Helvetica,sans-Serif" font-size="10.00">/variables/vincrement_p.h</text>
</a>
</g>
</g>
<!-- Node4&#45;&gt;Node59 -->
<g id="edge51" class="edge">
<title>Node4&#45;&gt;Node59</title>
<path fill="none" stroke="midnightblue" d="M5527.96,-203.89C5520.13,-192.84 5510.94,-179.89 5504.1,-170.25"/>
<polygon fill="midnightblue" stroke="midnightblue" points="5525.24,-206.1 5533.88,-212.23 5530.95,-202.05 5525.24,-206.1"/>
</g>
<!-- Node60 -->
<g id="node47" class="node">
<title>Node60</title>
<g id="a_node47"><a xlink:href="../../d6/d91/vnodedetail_8cpp.html" target="_top" xlink:title=" ">
<polygon fill="white" stroke="black" points="5776.5,-140 5776.5,-170 5883.5,-170 5883.5,-140 5776.5,-140"/>
<text text-anchor="start" x="5784.5" y="-158" font-family="Helvetica,sans-Serif" font-size="10.00">src/libs/vpatterndb</text>
<text text-anchor="middle" x="5830" y="-147" font-family="Helvetica,sans-Serif" font-size="10.00">/vnodedetail.cpp</text>
</a>
</g>
</g>
<!-- Node4&#45;&gt;Node60 -->
<g id="edge54" class="edge">
<title>Node4&#45;&gt;Node60</title>
<path fill="none" stroke="midnightblue" d="M5607.81,-213.55C5652.59,-204.1 5713.75,-190.45 5767,-176 5773.64,-174.2 5780.64,-172.14 5787.45,-170.05"/>
<polygon fill="midnightblue" stroke="midnightblue" points="5607,-210.14 5597.94,-215.62 5608.44,-216.99 5607,-210.14"/>
</g>
<!-- Node61 -->
<g id="node48" class="node">
<title>Node61</title>
<g id="a_node48"><a xlink:href="../../da/de1/vpiecepath_8cpp.html" target="_top" xlink:title=" ">
<polygon fill="white" stroke="black" points="5901.5,-140 5901.5,-170 6008.5,-170 6008.5,-140 5901.5,-140"/>
<text text-anchor="start" x="5909.5" y="-158" font-family="Helvetica,sans-Serif" font-size="10.00">src/libs/vpatterndb</text>
<text text-anchor="middle" x="5955" y="-147" font-family="Helvetica,sans-Serif" font-size="10.00">/vpiecepath.cpp</text>
</a>
</g>
</g>
<!-- Node4&#45;&gt;Node61 -->
<g id="edge57" class="edge">
<title>Node4&#45;&gt;Node61</title>
<path fill="none" stroke="midnightblue" d="M5607.58,-220.43C5677.79,-212.99 5793.89,-198.53 5892,-176 5899.16,-174.36 5906.67,-172.28 5913.92,-170.1"/>
<polygon fill="midnightblue" stroke="midnightblue" points="5607.14,-216.95 5597.56,-221.47 5607.87,-223.91 5607.14,-216.95"/>
</g>
<!-- Node62 -->
<g id="node49" class="node">
<title>Node62</title>
<g id="a_node49"><a xlink:href="../../d1/d3a/abstracttest_8cpp.html" target="_top" xlink:title=" ">
<polygon fill="white" stroke="black" points="6026.5,-145.5 6026.5,-164.5 6187.5,-164.5 6187.5,-145.5 6026.5,-145.5"/>
<text text-anchor="middle" x="6107" y="-152.5" font-family="Helvetica,sans-Serif" font-size="10.00">src/libs/vtest/abstracttest.cpp</text>
</a>
</g>
</g>
<!-- Node4&#45;&gt;Node62 -->
<g id="edge59" class="edge">
<title>Node4&#45;&gt;Node62</title>
<path fill="none" stroke="midnightblue" d="M5608,-221.96C5699.2,-214.97 5871.63,-199.84 6017,-176 6035.64,-172.94 6056.22,-168.46 6072.99,-164.51"/>
<polygon fill="midnightblue" stroke="midnightblue" points="5607.53,-218.49 5597.82,-222.73 5608.06,-225.47 5607.53,-218.49"/>
</g>
<!-- Node63 -->
<g id="node50" class="node">
<title>Node63</title>
<g id="a_node50"><a xlink:href="../../da/db4/piece__tablewidgetitem_8cpp.html" target="_top" xlink:title=" ">
<polygon fill="white" stroke="black" points="6206,-140 6206,-170 6334,-170 6334,-140 6206,-140"/>
<text text-anchor="start" x="6214" y="-158" font-family="Helvetica,sans-Serif" font-size="10.00">src/libs/vwidgets/piece</text>
<text text-anchor="middle" x="6270" y="-147" font-family="Helvetica,sans-Serif" font-size="10.00">_tablewidgetitem.cpp</text>
</a>
</g>
</g>
<!-- Node4&#45;&gt;Node63 -->
<g id="edge60" class="edge">
<title>Node4&#45;&gt;Node63</title>
<path fill="none" stroke="midnightblue" d="M5608.01,-225.58C5725.54,-222.99 5983.32,-213.18 6197,-176 6205.8,-174.47 6215.08,-172.34 6223.96,-170.04"/>
<polygon fill="midnightblue" stroke="midnightblue" points="5607.68,-222.08 5597.75,-225.79 5607.83,-229.08 5607.68,-222.08"/>
</g>
<!-- Node5&#45;&gt;Node6 -->
<g id="edge5" class="edge">
<title>Node5&#45;&gt;Node6</title>
<path fill="none" stroke="midnightblue" d="M6466.11,-137.4C6454.26,-123.24 6437.7,-103.46 6428.29,-92.22"/>
<polygon fill="midnightblue" stroke="midnightblue" points="6463.66,-139.93 6472.77,-145.36 6469.03,-135.44 6463.66,-139.93"/>
</g>
<!-- Node8 -->
<g id="node8" class="node">
<title>Node8</title>
<g id="a_node8"><a xlink:href="../../dd/d66/vdxfengine_8cpp.html" target="_top" xlink:title=" ">
<polygon fill="white" stroke="black" points="953,-73 953,-92 1107,-92 1107,-73 953,-73"/>
<text text-anchor="middle" x="1030" y="-80" font-family="Helvetica,sans-Serif" font-size="10.00">src/libs/vdxf/vdxfengine.cpp</text>
</a>
</g>
</g>
<!-- Node7&#45;&gt;Node8 -->
<g id="edge8" class="edge">
<title>Node7&#45;&gt;Node8</title>
<path fill="none" stroke="midnightblue" d="M688.55,-143.68C767.84,-129.71 907.9,-105.02 981.58,-92.03"/>
<polygon fill="midnightblue" stroke="midnightblue" points="687.49,-140.31 678.25,-145.5 688.71,-147.21 687.49,-140.31"/>
</g>
<!-- Node9 -->
<g id="node9" class="node">
<title>Node9</title>
<g id="a_node9"><a xlink:href="../../de/da8/vbank_8cpp.html" target="_top" xlink:title=" ">
<polygon fill="white" stroke="black" points="0,-73 0,-92 144,-92 144,-73 0,-73"/>
<text text-anchor="middle" x="72" y="-80" font-family="Helvetica,sans-Serif" font-size="10.00">src/libs/vlayout/vbank.cpp</text>
</a>
</g>
</g>
<!-- Node7&#45;&gt;Node9 -->
<g id="edge9" class="edge">
<title>Node7&#45;&gt;Node9</title>
<path fill="none" stroke="midnightblue" d="M536.64,-144.72C440.32,-134.75 285.84,-117.67 153,-98 141.27,-96.26 128.63,-94.13 116.91,-92.04"/>
<polygon fill="midnightblue" stroke="midnightblue" points="536.34,-148.21 546.65,-145.75 537.06,-141.25 536.34,-148.21"/>
</g>
<!-- Node10 -->
<g id="node10" class="node">
<title>Node10</title>
<g id="a_node10"><a xlink:href="../../df/d5d/vcontour_8cpp.html" target="_top" xlink:title=" ">
<polygon fill="white" stroke="black" points="162,-73 162,-92 318,-92 318,-73 162,-73"/>
<text text-anchor="middle" x="240" y="-80" font-family="Helvetica,sans-Serif" font-size="10.00">src/libs/vlayout/vcontour.cpp</text>
</a>
</g>
</g>
<!-- Node7&#45;&gt;Node10 -->
<g id="edge10" class="edge">
<title>Node7&#45;&gt;Node10</title>
<path fill="none" stroke="midnightblue" d="M572.91,-143.68C495.6,-129.71 359.05,-105.02 287.21,-92.03"/>
<polygon fill="midnightblue" stroke="midnightblue" points="572.49,-147.16 582.96,-145.5 573.74,-140.27 572.49,-147.16"/>
</g>
<!-- Node11 -->
<g id="node11" class="node">
<title>Node11</title>
<g id="a_node11"><a xlink:href="../../d2/d2d/vlayoutpaper__p_8h.html" target="_top" xlink:title=" ">
<polygon fill="white" stroke="black" points="540.5,-73 540.5,-92 719.5,-92 719.5,-73 540.5,-73"/>
<text text-anchor="middle" x="630" y="-80" font-family="Helvetica,sans-Serif" font-size="10.00">src/libs/vlayout/vlayoutpaper_p.h</text>
</a>
</g>
</g>
<!-- Node7&#45;&gt;Node11 -->
<g id="edge11" class="edge">
<title>Node7&#45;&gt;Node11</title>
<path fill="none" stroke="midnightblue" d="M630,-134.94C630,-121.03 630,-102.82 630,-92.22"/>
<polygon fill="midnightblue" stroke="midnightblue" points="626.5,-135.36 630,-145.36 633.5,-135.36 626.5,-135.36"/>
</g>
<!-- Node12 -->
<g id="node12" class="node">
<title>Node12</title>
<g id="a_node12"><a xlink:href="../../d1/dd1/vlayoutpaper_8cpp.html" target="_top" xlink:title=" ">
<polygon fill="white" stroke="black" points="423,-6 423,-25 601,-25 601,-6 423,-6"/>
<text text-anchor="middle" x="512" y="-13" font-family="Helvetica,sans-Serif" font-size="10.00">src/libs/vlayout/vlayoutpaper.cpp</text>
</a>
</g>
</g>
<!-- Node7&#45;&gt;Node12 -->
<g id="edge14" class="edge">
<title>Node7&#45;&gt;Node12</title>
<path fill="none" stroke="midnightblue" d="M592.88,-141.61C571.7,-132.69 546.39,-118.56 531,-98 514.28,-75.67 511.95,-40.99 511.83,-25.05"/>
<polygon fill="midnightblue" stroke="midnightblue" points="591.68,-144.9 602.27,-145.34 594.27,-138.39 591.68,-144.9"/>
</g>
<!-- Node13 -->
<g id="node13" class="node">
<title>Node13</title>
<g id="a_node13"><a xlink:href="../../d3/d39/vlayoutgenerator_8cpp.html" target="_top" xlink:title=" ">
<polygon fill="white" stroke="black" points="737.5,-73 737.5,-92 934.5,-92 934.5,-73 737.5,-73"/>
<text text-anchor="middle" x="836" y="-80" font-family="Helvetica,sans-Serif" font-size="10.00">src/libs/vlayout/vlayoutgenerator.cpp</text>
</a>
</g>
</g>
<!-- Node7&#45;&gt;Node13 -->
<g id="edge13" class="edge">
<title>Node7&#45;&gt;Node13</title>
<path fill="none" stroke="midnightblue" d="M664.51,-142.19C705.95,-128.01 774.43,-104.57 811.06,-92.03"/>
<polygon fill="midnightblue" stroke="midnightblue" points="663.18,-138.95 654.85,-145.5 665.44,-145.57 663.18,-138.95"/>
</g>
<!-- Node14 -->
<g id="node14" class="node">
<title>Node14</title>
<g id="a_node14"><a xlink:href="../../db/d5c/vposition_8h.html" target="_top" xlink:title=" ">
<polygon fill="white" stroke="red" points="336,-73 336,-92 484,-92 484,-73 336,-73"/>
<text text-anchor="middle" x="410" y="-80" font-family="Helvetica,sans-Serif" font-size="10.00">src/libs/vlayout/vposition.h</text>
</a>
</g>
</g>
<!-- Node7&#45;&gt;Node14 -->
<g id="edge15" class="edge">
<title>Node7&#45;&gt;Node14</title>
<path fill="none" stroke="midnightblue" d="M593.7,-142.37C549.51,-128.21 475.92,-104.62 436.63,-92.03"/>
<polygon fill="midnightblue" stroke="midnightblue" points="592.87,-145.78 603.46,-145.5 595.01,-139.11 592.87,-145.78"/>
</g>
<!-- Node16 -->
<g id="node15" class="node">
<title>Node16</title>
<g id="a_node15"><a xlink:href="../../dd/d70/vlayoutpiece_8cpp.html" target="_top" xlink:title=" ">
<polygon fill="white" stroke="black" points="1125.5,-73 1125.5,-92 1302.5,-92 1302.5,-73 1125.5,-73"/>
<text text-anchor="middle" x="1214" y="-80" font-family="Helvetica,sans-Serif" font-size="10.00">src/libs/vlayout/vlayoutpiece.cpp</text>
</a>
</g>
</g>
<!-- Node7&#45;&gt;Node16 -->
<g id="edge17" class="edge">
<title>Node7&#45;&gt;Node16</title>
<path fill="none" stroke="midnightblue" d="M721.07,-144.39C818.81,-133.87 978.55,-116.08 1116,-98 1129.81,-96.18 1144.7,-94.06 1158.59,-92.02"/>
<polygon fill="midnightblue" stroke="midnightblue" points="720.5,-140.93 710.93,-145.48 721.25,-147.89 720.5,-140.93"/>
</g>
<!-- Node11&#45;&gt;Node12 -->
<g id="edge12" class="edge">
<title>Node11&#45;&gt;Node12</title>
<path fill="none" stroke="midnightblue" d="M605.11,-67.79C581.72,-54.9 547.44,-36.02 527.66,-25.13"/>
<polygon fill="midnightblue" stroke="midnightblue" points="603.64,-70.97 614.09,-72.73 607.02,-64.84 603.64,-70.97"/>
</g>
<!-- Node14&#45;&gt;Node12 -->
<g id="edge16" class="edge">
<title>Node14&#45;&gt;Node12</title>
<path fill="none" stroke="midnightblue" d="M432.33,-67.27C452.52,-54.4 481.59,-35.88 498.46,-25.13"/>
<polygon fill="midnightblue" stroke="midnightblue" points="430.31,-64.41 423.76,-72.73 434.07,-70.31 430.31,-64.41"/>
</g>
<!-- Node18&#45;&gt;Node16 -->
<g id="edge32" class="edge">
<title>Node18&#45;&gt;Node16</title>
<path fill="none" stroke="midnightblue" d="M3394.97,-153C3012.36,-149.18 1722.64,-133.89 1311,-98 1295.39,-96.64 1278.48,-94.38 1263.21,-92.05"/>
<polygon fill="midnightblue" stroke="midnightblue" points="3395.17,-156.5 3405.21,-153.1 3395.24,-149.5 3395.17,-156.5"/>
</g>
<!-- Node18&#45;&gt;Node17 -->
<g id="edge30" class="edge">
<title>Node18&#45;&gt;Node17</title>
<path fill="none" stroke="midnightblue" d="M3395.23,-150.19C3276.4,-146.03 3079.58,-139.26 2910,-134 2344.27,-116.46 2200.91,-146.69 1637,-98 1620.92,-96.61 1603.48,-94.35 1587.74,-92.02"/>
<polygon fill="midnightblue" stroke="midnightblue" points="3395.3,-153.69 3405.42,-150.55 3395.55,-146.7 3395.3,-153.69"/>
</g>
<!-- Node19 -->
<g id="node18" class="node">
<title>Node19</title>
<g id="a_node18"><a xlink:href="../../d4/d90/fvupdater_8cpp.html" target="_top" xlink:title=" ">
<polygon fill="white" stroke="black" points="3426.5,-73 3426.5,-92 3579.5,-92 3579.5,-73 3426.5,-73"/>
<text text-anchor="middle" x="3503" y="-80" font-family="Helvetica,sans-Serif" font-size="10.00">src/libs/fervor/fvupdater.cpp</text>
</a>
</g>
</g>
<!-- Node18&#45;&gt;Node19 -->
<g id="edge20" class="edge">
<title>Node18&#45;&gt;Node19</title>
<path fill="none" stroke="midnightblue" d="M3503,-134.94C3503,-121.03 3503,-102.82 3503,-92.22"/>
<polygon fill="midnightblue" stroke="midnightblue" points="3499.5,-135.36 3503,-145.36 3506.5,-135.36 3499.5,-135.36"/>
</g>
<!-- Node20 -->
<g id="node19" class="node">
<title>Node20</title>
<g id="a_node19"><a xlink:href="../../d9/dc8/dxiface_8cpp.html" target="_top" xlink:title=" ">
<polygon fill="white" stroke="black" points="3597.5,-73 3597.5,-92 3732.5,-92 3732.5,-73 3597.5,-73"/>
<text text-anchor="middle" x="3665" y="-80" font-family="Helvetica,sans-Serif" font-size="10.00">src/libs/vdxf/dxiface.cpp</text>
</a>
</g>
</g>
<!-- Node18&#45;&gt;Node20 -->
<g id="edge21" class="edge">
<title>Node18&#45;&gt;Node20</title>
<path fill="none" stroke="midnightblue" d="M3532.02,-141.37C3564.77,-127.12 3617.13,-104.33 3645.39,-92.03"/>
<polygon fill="midnightblue" stroke="midnightblue" points="3530.31,-138.3 3522.54,-145.5 3533.11,-144.71 3530.31,-138.3"/>
</g>
<!-- Node21 -->
<g id="node20" class="node">
<title>Node21</title>
<g id="a_node20"><a xlink:href="../../da/d75/vabstractarc__p_8h.html" target="_top" xlink:title=" ">
<polygon fill="white" stroke="red" points="3750.5,-67.5 3750.5,-97.5 3857.5,-97.5 3857.5,-67.5 3750.5,-67.5"/>
<text text-anchor="start" x="3758.5" y="-85.5" font-family="Helvetica,sans-Serif" font-size="10.00">src/libs/vgeometry</text>
<text text-anchor="middle" x="3804" y="-74.5" font-family="Helvetica,sans-Serif" font-size="10.00">/vabstractarc_p.h</text>
</a>
</g>
</g>
<!-- Node18&#45;&gt;Node21 -->
<g id="edge22" class="edge">
<title>Node18&#45;&gt;Node21</title>
<path fill="none" stroke="midnightblue" d="M3549.33,-143.15C3603.53,-130.45 3693.11,-109.47 3750.3,-96.08"/>
<polygon fill="midnightblue" stroke="midnightblue" points="3548.25,-139.81 3539.31,-145.5 3549.84,-146.62 3548.25,-139.81"/>
</g>
<!-- Node23 -->
<g id="node21" class="node">
<title>Node23</title>
<g id="a_node21"><a xlink:href="../../dc/da3/varc__p_8h.html" target="_top" xlink:title=" ">
<polygon fill="white" stroke="red" points="3875.5,-67.5 3875.5,-97.5 3982.5,-97.5 3982.5,-67.5 3875.5,-67.5"/>
<text text-anchor="start" x="3883.5" y="-85.5" font-family="Helvetica,sans-Serif" font-size="10.00">src/libs/vgeometry</text>
<text text-anchor="middle" x="3929" y="-74.5" font-family="Helvetica,sans-Serif" font-size="10.00">/varc_p.h</text>
</a>
</g>
</g>
<!-- Node18&#45;&gt;Node23 -->
<g id="edge23" class="edge">
<title>Node18&#45;&gt;Node23</title>
<path fill="none" stroke="midnightblue" d="M3577.94,-144.07C3651.53,-133.94 3766.86,-117.03 3866,-98 3869.09,-97.41 3872.25,-96.77 3875.44,-96.11"/>
<polygon fill="midnightblue" stroke="midnightblue" points="3577.27,-140.63 3567.83,-145.46 3578.22,-147.57 3577.27,-140.63"/>
</g>
<!-- Node25 -->
<g id="node22" class="node">
<title>Node25</title>
<g id="a_node22"><a xlink:href="../../d5/d8e/vcubicbezier__p_8h.html" target="_top" xlink:title=" ">
<polygon fill="white" stroke="red" points="4000.5,-67.5 4000.5,-97.5 4107.5,-97.5 4107.5,-67.5 4000.5,-67.5"/>
<text text-anchor="start" x="4008.5" y="-85.5" font-family="Helvetica,sans-Serif" font-size="10.00">src/libs/vgeometry</text>
<text text-anchor="middle" x="4054" y="-74.5" font-family="Helvetica,sans-Serif" font-size="10.00">/vcubicbezier_p.h</text>
</a>
</g>
</g>
<!-- Node18&#45;&gt;Node25 -->
<g id="edge24" class="edge">
<title>Node18&#45;&gt;Node25</title>
<path fill="none" stroke="midnightblue" d="M3610.71,-145.13C3709.92,-136.14 3860.99,-120.35 3991,-98 3994.1,-97.47 3997.27,-96.88 4000.47,-96.25"/>
<polygon fill="midnightblue" stroke="midnightblue" points="3610.32,-141.65 3600.68,-146.03 3610.95,-148.62 3610.32,-141.65"/>
</g>
<!-- Node27 -->
<g id="node23" class="node">
<title>Node27</title>
<g id="a_node23"><a xlink:href="../../df/dde/vellipticalarc__p_8h.html" target="_top" xlink:title=" ">
<polygon fill="white" stroke="black" points="4125.5,-67.5 4125.5,-97.5 4232.5,-97.5 4232.5,-67.5 4125.5,-67.5"/>
<text text-anchor="start" x="4133.5" y="-85.5" font-family="Helvetica,sans-Serif" font-size="10.00">src/libs/vgeometry</text>
<text text-anchor="middle" x="4179" y="-74.5" font-family="Helvetica,sans-Serif" font-size="10.00">/vellipticalarc_p.h</text>
</a>
</g>
</g>
<!-- Node18&#45;&gt;Node27 -->
<g id="edge25" class="edge">
<title>Node18&#45;&gt;Node27</title>
<path fill="none" stroke="midnightblue" d="M3610.81,-148.57C3733.68,-141.36 3940.23,-126.12 4116,-98 4119.1,-97.5 4122.28,-96.94 4125.48,-96.34"/>
<polygon fill="midnightblue" stroke="midnightblue" points="3610.43,-145.09 3600.65,-149.16 3610.84,-152.07 3610.43,-145.09"/>
</g>
<!-- Node28 -->
<g id="node24" class="node">
<title>Node28</title>
<g id="a_node24"><a xlink:href="../../d6/dfb/vellipticalarc_8cpp.html" target="_top" xlink:title=" ">
<polygon fill="white" stroke="black" points="2926.5,-0.5 2926.5,-30.5 3033.5,-30.5 3033.5,-0.5 2926.5,-0.5"/>
<text text-anchor="start" x="2934.5" y="-18.5" font-family="Helvetica,sans-Serif" font-size="10.00">src/libs/vgeometry</text>
<text text-anchor="middle" x="2980" y="-7.5" font-family="Helvetica,sans-Serif" font-size="10.00">/vellipticalarc.cpp</text>
</a>
</g>
</g>
<!-- Node18&#45;&gt;Node28 -->
<g id="edge27" class="edge">
<title>Node18&#45;&gt;Node28</title>
<path fill="none" stroke="midnightblue" d="M3395.23,-150.32C3276.4,-146.28 3079.56,-139.61 2910,-134 2848.39,-131.96 1843.88,-142.29 1801,-98 1791.42,-88.1 1791.47,-76.95 1801,-67 1840.4,-25.88 2700.97,-18.09 2926.36,-16.76"/>
<polygon fill="midnightblue" stroke="midnightblue" points="3395.3,-153.83 3405.41,-150.67 3395.54,-146.83 3395.3,-153.83"/>
</g>
<!-- Node29 -->
<g id="node25" class="node">
<title>Node29</title>
<g id="a_node25"><a xlink:href="../../d1/d76/vspline__p_8h.html" target="_top" xlink:title=" ">
<polygon fill="white" stroke="red" points="4250.5,-67.5 4250.5,-97.5 4357.5,-97.5 4357.5,-67.5 4250.5,-67.5"/>
<text text-anchor="start" x="4258.5" y="-85.5" font-family="Helvetica,sans-Serif" font-size="10.00">src/libs/vgeometry</text>
<text text-anchor="middle" x="4304" y="-74.5" font-family="Helvetica,sans-Serif" font-size="10.00">/vspline_p.h</text>
</a>
</g>
</g>
<!-- Node18&#45;&gt;Node29 -->
<g id="edge28" class="edge">
<title>Node18&#45;&gt;Node29</title>
<path fill="none" stroke="midnightblue" d="M3610.71,-150.9C3754.94,-145.6 4018.48,-131.85 4241,-98 4244.11,-97.53 4247.29,-96.98 4250.49,-96.39"/>
<polygon fill="midnightblue" stroke="midnightblue" points="3610.4,-147.41 3600.53,-151.27 3610.65,-154.41 3610.4,-147.41"/>
</g>
<!-- Node31 -->
<g id="node26" class="node">
<title>Node31</title>
<g id="a_node26"><a xlink:href="../../d9/d15/vabstractpiece_8cpp.html" target="_top" xlink:title=" ">
<polygon fill="white" stroke="black" points="4376,-73 4376,-92 4562,-92 4562,-73 4376,-73"/>
<text text-anchor="middle" x="4469" y="-80" font-family="Helvetica,sans-Serif" font-size="10.00">src/libs/vlayout/vabstractpiece.cpp</text>
</a>
</g>
</g>
<!-- Node18&#45;&gt;Node31 -->
<g id="edge29" class="edge">
<title>Node18&#45;&gt;Node31</title>
<path fill="none" stroke="midnightblue" d="M3610.65,-149.61C3774.17,-142.36 4094.81,-125.85 4366,-98 4381.63,-96.4 4398.53,-94.21 4414.04,-92.02"/>
<polygon fill="midnightblue" stroke="midnightblue" points="3610.43,-146.12 3600.59,-150.06 3610.73,-153.11 3610.43,-146.12"/>
</g>
<!-- Node32 -->
<g id="node27" class="node">
<title>Node32</title>
<g id="a_node27"><a xlink:href="../../db/d65/dialogexporttocsv_8cpp.html" target="_top" xlink:title=" ">
<polygon fill="white" stroke="black" points="4580.5,-67.5 4580.5,-97.5 4707.5,-97.5 4707.5,-67.5 4580.5,-67.5"/>
<text text-anchor="start" x="4588.5" y="-85.5" font-family="Helvetica,sans-Serif" font-size="10.00">src/libs/vmisc/dialogs</text>
<text text-anchor="middle" x="4644" y="-74.5" font-family="Helvetica,sans-Serif" font-size="10.00">/dialogexporttocsv.cpp</text>
</a>
</g>
</g>
<!-- Node18&#45;&gt;Node32 -->
<g id="edge31" class="edge">
<title>Node18&#45;&gt;Node32</title>
<path fill="none" stroke="midnightblue" d="M3610.75,-153.46C3803.93,-151.35 4221.67,-141.62 4571,-98 4574.08,-97.62 4577.22,-97.18 4580.39,-96.69"/>
<polygon fill="midnightblue" stroke="midnightblue" points="3610.56,-149.96 3600.6,-153.56 3610.64,-156.96 3610.56,-149.96"/>
</g>
<!-- Node33 -->
<g id="node28" class="node">
<title>Node33</title>
<g id="a_node28"><a xlink:href="../../d6/d0b/def_8cpp.html" target="_top" xlink:title=" ">
<polygon fill="white" stroke="black" points="4726,-73 4726,-92 4848,-92 4848,-73 4726,-73"/>
<text text-anchor="middle" x="4787" y="-80" font-family="Helvetica,sans-Serif" font-size="10.00">src/libs/vmisc/def.cpp</text>
</a>
</g>
</g>
<!-- Node18&#45;&gt;Node33 -->
<g id="edge33" class="edge">
<title>Node18&#45;&gt;Node33</title>
<path fill="none" stroke="midnightblue" d="M3610.74,-154.62C3823.07,-154.62 4310.26,-148.49 4716,-98 4727.36,-96.59 4739.62,-94.35 4750.69,-92.04"/>
<polygon fill="midnightblue" stroke="midnightblue" points="3610.53,-151.12 3600.53,-154.62 3610.52,-158.12 3610.53,-151.12"/>
</g>
<!-- Node34 -->
<g id="node29" class="node">
<title>Node34</title>
<g id="a_node29"><a xlink:href="../../d0/df6/vabstractapplication_8cpp.html" target="_top" xlink:title=" ">
<polygon fill="white" stroke="black" points="4866,-73 4866,-92 5072,-92 5072,-73 4866,-73"/>
<text text-anchor="middle" x="4969" y="-80" font-family="Helvetica,sans-Serif" font-size="10.00">src/libs/vmisc/vabstractapplication.cpp</text>
</a>
</g>
</g>
<!-- Node18&#45;&gt;Node34 -->
<g id="edge34" class="edge">
<title>Node18&#45;&gt;Node34</title>
<path fill="none" stroke="midnightblue" d="M3610.91,-152.74C3840.55,-149.35 4394.45,-137.43 4857,-98 4874.48,-96.51 4893.43,-94.29 4910.68,-92.03"/>
<polygon fill="midnightblue" stroke="midnightblue" points="3610.83,-149.24 3600.89,-152.88 3610.94,-156.24 3610.83,-149.24"/>
</g>
<!-- Node35 -->
<g id="node30" class="node">
<title>Node35</title>
<g id="a_node30"><a xlink:href="../../d4/d4f/pmsystems_8cpp.html" target="_top" xlink:title=" ">
<polygon fill="white" stroke="black" points="1646.5,-67.5 1646.5,-97.5 1753.5,-97.5 1753.5,-67.5 1646.5,-67.5"/>
<text text-anchor="start" x="1654.5" y="-85.5" font-family="Helvetica,sans-Serif" font-size="10.00">src/libs/vpatterndb</text>
<text text-anchor="middle" x="1700" y="-74.5" font-family="Helvetica,sans-Serif" font-size="10.00">/pmsystems.cpp</text>
</a>
</g>
</g>
<!-- Node18&#45;&gt;Node35 -->
<g id="edge35" class="edge">
<title>Node18&#45;&gt;Node35</title>
<path fill="none" stroke="midnightblue" d="M3395.23,-150.29C3276.4,-146.22 3079.57,-139.53 2910,-134 2402.46,-117.44 2272.11,-159.19 1768,-98 1763.33,-97.43 1758.5,-96.7 1753.67,-95.87"/>
<polygon fill="midnightblue" stroke="midnightblue" points="3395.3,-153.8 3405.41,-150.64 3395.54,-146.8 3395.3,-153.8"/>
</g>
<!-- Node18&#45;&gt;Node36 -->
<g id="edge36" class="edge">
<title>Node18&#45;&gt;Node36</title>
<path fill="none" stroke="midnightblue" d="M3395.17,-153.91C3027,-153.16 1821.26,-146.93 1437,-98 1433.99,-97.62 1430.92,-97.15 1427.83,-96.63"/>
<polygon fill="midnightblue" stroke="midnightblue" points="3395.28,-157.41 3405.29,-153.93 3395.3,-150.41 3395.28,-157.41"/>
</g>
<!-- Node18&#45;&gt;Node37 -->
<g id="edge37" class="edge">
<title>Node18&#45;&gt;Node37</title>
<path fill="none" stroke="midnightblue" d="M3611.01,-153.18C3935.05,-150.28 4895.68,-138.43 5206,-98 5209,-97.61 5212.08,-97.14 5215.17,-96.61"/>
<polygon fill="midnightblue" stroke="midnightblue" points="3610.65,-149.68 3600.68,-153.27 3610.71,-156.68 3610.65,-149.68"/>
</g>
<!-- Node18&#45;&gt;Node38 -->
<g id="edge38" class="edge">
<title>Node18&#45;&gt;Node38</title>
<path fill="none" stroke="midnightblue" d="M3610.67,-153.46C3950.11,-151.34 4995.19,-141.36 5331,-98 5334.01,-97.61 5337.08,-97.14 5340.17,-96.62"/>
<polygon fill="midnightblue" stroke="midnightblue" points="3610.57,-149.97 3600.59,-153.53 3610.61,-156.97 3610.57,-149.97"/>
</g>
<!-- Node39 -->
<g id="node34" class="node">
<title>Node39</title>
<g id="a_node34"><a xlink:href="../../df/dba/vpiecenode__p_8h.html" target="_top" xlink:title=" ">
<polygon fill="white" stroke="black" points="5090.5,-67.5 5090.5,-97.5 5197.5,-97.5 5197.5,-67.5 5090.5,-67.5"/>
<text text-anchor="start" x="5098.5" y="-85.5" font-family="Helvetica,sans-Serif" font-size="10.00">src/libs/vpatterndb</text>
<text text-anchor="middle" x="5144" y="-74.5" font-family="Helvetica,sans-Serif" font-size="10.00">/vpiecenode_p.h</text>
</a>
</g>
</g>
<!-- Node18&#45;&gt;Node39 -->
<g id="edge39" class="edge">
<title>Node18&#45;&gt;Node39</title>
<path fill="none" stroke="midnightblue" d="M3610.75,-152.85C3918.22,-149.15 4795.89,-135.52 5081,-98 5084,-97.6 5087.08,-97.13 5090.17,-96.6"/>
<polygon fill="midnightblue" stroke="midnightblue" points="3610.46,-149.36 3600.5,-152.98 3610.54,-156.36 3610.46,-149.36"/>
</g>
<!-- Node41 -->
<g id="node36" class="node">
<title>Node41</title>
<g id="a_node36"><a xlink:href="../../de/d3e/vtranslatevars_8cpp.html" target="_top" xlink:title=" ">
<polygon fill="white" stroke="black" points="1810,-67.5 1810,-97.5 1920,-97.5 1920,-67.5 1810,-67.5"/>
<text text-anchor="start" x="1818" y="-85.5" font-family="Helvetica,sans-Serif" font-size="10.00">src/libs/vpatterndb</text>
<text text-anchor="middle" x="1865" y="-74.5" font-family="Helvetica,sans-Serif" font-size="10.00">/vtranslatevars.cpp</text>
</a>
</g>
</g>
<!-- Node18&#45;&gt;Node41 -->
<g id="edge41" class="edge">
<title>Node18&#45;&gt;Node41</title>
<path fill="none" stroke="midnightblue" d="M3395.02,-150.29C3042.56,-138.17 1947.2,-100.36 1929,-98 1926.06,-97.62 1923.06,-97.16 1920.04,-96.66"/>
<polygon fill="midnightblue" stroke="midnightblue" points="3395.12,-153.8 3405.23,-150.64 3395.36,-146.8 3395.12,-153.8"/>
</g>
<!-- Node42 -->
<g id="node37" class="node">
<title>Node42</title>
<g id="a_node37"><a xlink:href="../../df/d40/export__format__combobox_8cpp.html" target="_top" xlink:title=" ">
<polygon fill="white" stroke="black" points="1938.5,-67.5 1938.5,-97.5 2071.5,-97.5 2071.5,-67.5 1938.5,-67.5"/>
<text text-anchor="start" x="1946.5" y="-85.5" font-family="Helvetica,sans-Serif" font-size="10.00">src/libs/vwidgets/export</text>
<text text-anchor="middle" x="2005" y="-74.5" font-family="Helvetica,sans-Serif" font-size="10.00">_format_combobox.cpp</text>
</a>
</g>
</g>
<!-- Node18&#45;&gt;Node42 -->
<g id="edge42" class="edge">
<title>Node18&#45;&gt;Node42</title>
<path fill="none" stroke="midnightblue" d="M3395.19,-150.21C3074.54,-138.86 2144.95,-105.51 2080,-98 2077.23,-97.68 2074.42,-97.31 2071.57,-96.91"/>
<polygon fill="midnightblue" stroke="midnightblue" points="3395.31,-153.71 3405.42,-150.57 3395.55,-146.72 3395.31,-153.71"/>
</g>
<!-- Node43 -->
<g id="node38" class="node">
<title>Node43</title>
<g id="a_node38"><a xlink:href="../../d2/d28/page__format__combobox_8cpp.html" target="_top" xlink:title=" ">
<polygon fill="white" stroke="black" points="2089.5,-67.5 2089.5,-97.5 2220.5,-97.5 2220.5,-67.5 2089.5,-67.5"/>
<text text-anchor="start" x="2097.5" y="-85.5" font-family="Helvetica,sans-Serif" font-size="10.00">src/libs/vwidgets/page</text>
<text text-anchor="middle" x="2155" y="-74.5" font-family="Helvetica,sans-Serif" font-size="10.00">_format_combobox.cpp</text>
</a>
</g>
</g>
<!-- Node18&#45;&gt;Node43 -->
<g id="edge43" class="edge">
<title>Node18&#45;&gt;Node43</title>
<path fill="none" stroke="midnightblue" d="M3394.65,-150.17C3107.83,-139.89 2342.94,-111.59 2229,-98 2226.27,-97.67 2223.49,-97.3 2220.69,-96.9"/>
<polygon fill="midnightblue" stroke="midnightblue" points="3394.94,-153.68 3405.06,-150.54 3395.19,-146.69 3394.94,-153.68"/>
</g>
<!-- Node44 -->
<g id="node39" class="node">
<title>Node44</title>
<g id="a_node39"><a xlink:href="../../d7/d1b/pen__toolbar_8cpp.html" target="_top" xlink:title=" ">
<polygon fill="white" stroke="black" points="2238.5,-67.5 2238.5,-97.5 2357.5,-97.5 2357.5,-67.5 2238.5,-67.5"/>
<text text-anchor="start" x="2246.5" y="-85.5" font-family="Helvetica,sans-Serif" font-size="10.00">src/libs/vwidgets/pen</text>
<text text-anchor="middle" x="2298" y="-74.5" font-family="Helvetica,sans-Serif" font-size="10.00">_toolbar.cpp</text>
</a>
</g>
</g>
<!-- Node18&#45;&gt;Node44 -->
<g id="edge44" class="edge">
<title>Node18&#45;&gt;Node44</title>
<path fill="none" stroke="midnightblue" d="M3394.99,-150.85C3151.09,-143.4 2563.69,-123.35 2367,-98 2363.96,-97.61 2360.86,-97.16 2357.74,-96.66"/>
<polygon fill="midnightblue" stroke="midnightblue" points="3395.18,-154.36 3405.28,-151.17 3395.39,-147.36 3395.18,-154.36"/>
</g>
<!-- Node45 -->
<g id="node40" class="node">
<title>Node45</title>
<g id="a_node40"><a xlink:href="../../d8/d76/scene__rect_8cpp.html" target="_top" xlink:title=" ">
<polygon fill="white" stroke="black" points="2376,-67.5 2376,-97.5 2506,-97.5 2506,-67.5 2376,-67.5"/>
<text text-anchor="start" x="2384" y="-85.5" font-family="Helvetica,sans-Serif" font-size="10.00">src/libs/vwidgets/scene</text>
<text text-anchor="middle" x="2441" y="-74.5" font-family="Helvetica,sans-Serif" font-size="10.00">_rect.cpp</text>
</a>
</g>
</g>
<!-- Node18&#45;&gt;Node45 -->
<g id="edge45" class="edge">
<title>Node18&#45;&gt;Node45</title>
<path fill="none" stroke="midnightblue" d="M3395.38,-152.71C3213.37,-149.46 2833.49,-138.04 2515,-98 2512.14,-97.64 2509.23,-97.24 2506.29,-96.8"/>
<polygon fill="midnightblue" stroke="midnightblue" points="3395.43,-156.21 3405.49,-152.89 3395.55,-149.22 3395.43,-156.21"/>
</g>
<!-- Node46 -->
<g id="node41" class="node">
<title>Node46</title>
<g id="a_node41"><a xlink:href="../../d3/d4f/mouse__coordinates_8cpp.html" target="_top" xlink:title=" ">
<polygon fill="white" stroke="black" points="2524,-67.5 2524,-97.5 2658,-97.5 2658,-67.5 2524,-67.5"/>
<text text-anchor="start" x="2532" y="-85.5" font-family="Helvetica,sans-Serif" font-size="10.00">src/libs/vwidgets/mouse</text>
<text text-anchor="middle" x="2591" y="-74.5" font-family="Helvetica,sans-Serif" font-size="10.00">_coordinates.cpp</text>
</a>
</g>
</g>
<!-- Node18&#45;&gt;Node46 -->
<g id="edge46" class="edge">
<title>Node18&#45;&gt;Node46</title>
<path fill="none" stroke="midnightblue" d="M3395.15,-150.97C3235.5,-145.53 2927.12,-131.4 2667,-98 2664.07,-97.62 2661.08,-97.2 2658.07,-96.75"/>
<polygon fill="midnightblue" stroke="midnightblue" points="3395.33,-154.48 3405.45,-151.31 3395.57,-147.48 3395.33,-154.48"/>
</g>
<!-- Node47 -->
<g id="node42" class="node">
<title>Node47</title>
<g id="a_node42"><a xlink:href="../../dd/df6/vabstractmainwindow_8cpp.html" target="_top" xlink:title=" ">
<polygon fill="white" stroke="black" points="2676.5,-73 2676.5,-92 2905.5,-92 2905.5,-73 2676.5,-73"/>
<text text-anchor="middle" x="2791" y="-80" font-family="Helvetica,sans-Serif" font-size="10.00">src/libs/vwidgets/vabstractmainwindow.cpp</text>
</a>
</g>
</g>
<!-- Node18&#45;&gt;Node47 -->
<g id="edge47" class="edge">
<title>Node18&#45;&gt;Node47</title>
<path fill="none" stroke="midnightblue" d="M3396.84,-144.58C3279.04,-133.97 3083.32,-115.85 2915,-98 2897.65,-96.16 2878.95,-94.04 2861.46,-92.01"/>
<polygon fill="midnightblue" stroke="midnightblue" points="3396.67,-148.08 3406.94,-145.49 3397.3,-141.11 3396.67,-148.08"/>
</g>
<!-- Node48 -->
<g id="node43" class="node">
<title>Node48</title>
<g id="a_node43"><a xlink:href="../../de/dec/vgraphicssimpletextitem_8cpp.html" target="_top" xlink:title=" ">
<polygon fill="white" stroke="black" points="2924,-73 2924,-92 3168,-92 3168,-73 2924,-73"/>
<text text-anchor="middle" x="3046" y="-80" font-family="Helvetica,sans-Serif" font-size="10.00">src/libs/vwidgets/vgraphicssimpletextitem.cpp</text>
</a>
</g>
</g>
<!-- Node18&#45;&gt;Node48 -->
<g id="edge48" class="edge">
<title>Node18&#45;&gt;Node48</title>
<path fill="none" stroke="midnightblue" d="M3437.76,-143.94C3347.48,-130.01 3186.02,-105.1 3101.32,-92.03"/>
<polygon fill="midnightblue" stroke="midnightblue" points="3437.46,-147.43 3447.88,-145.5 3438.53,-140.51 3437.46,-147.43"/>
</g>
<!-- Node49 -->
<g id="node44" class="node">
<title>Node49</title>
<g id="a_node44"><a xlink:href="../../d1/d88/vmaingraphicsscene_8cpp.html" target="_top" xlink:title=" ">
<polygon fill="white" stroke="black" points="3186,-73 3186,-92 3408,-92 3408,-73 3186,-73"/>
<text text-anchor="middle" x="3297" y="-80" font-family="Helvetica,sans-Serif" font-size="10.00">src/libs/vwidgets/vmaingraphicsscene.cpp</text>
</a>
</g>
</g>
<!-- Node18&#45;&gt;Node49 -->
<g id="edge49" class="edge">
<title>Node18&#45;&gt;Node49</title>
<path fill="none" stroke="midnightblue" d="M3468.49,-142.19C3427.05,-128.01 3358.57,-104.57 3321.94,-92.03"/>
<polygon fill="midnightblue" stroke="midnightblue" points="3467.56,-145.57 3478.15,-145.5 3469.82,-138.95 3467.56,-145.57"/>
</g>
<!-- Node27&#45;&gt;Node28 -->
<g id="edge26" class="edge">
<title>Node27&#45;&gt;Node28</title>
<path fill="none" stroke="midnightblue" d="M4115.1,-67.1C3883.14,-37.5 3226.06,-21.7 3033.57,-17.59"/>
<polygon fill="midnightblue" stroke="midnightblue" points="4114.79,-70.59 4125.16,-68.43 4115.71,-63.65 4114.79,-70.59"/>
</g>
<!-- Node39&#45;&gt;Node40 -->
<g id="edge40" class="edge">
<title>Node39&#45;&gt;Node40</title>
<path fill="none" stroke="midnightblue" d="M5206.76,-64.92C5246.9,-54.31 5298.42,-40.7 5336.6,-30.61"/>
<polygon fill="midnightblue" stroke="midnightblue" points="5205.85,-61.54 5197.08,-67.48 5207.64,-68.31 5205.85,-61.54"/>
</g>
<!-- Node59&#45;&gt;Node2 -->
<g id="edge52" class="edge">
<title>Node59&#45;&gt;Node2</title>
<path fill="none" stroke="midnightblue" d="M5507.99,-131.06C5514.69,-120.09 5522.49,-107.3 5528.31,-97.75"/>
<polygon fill="midnightblue" stroke="midnightblue" points="5504.92,-129.37 5502.7,-139.73 5510.9,-133.02 5504.92,-129.37"/>
</g>
</g>
</svg>
